<svg version="1.1" viewBox="0.0 0.0 150.0 60.0" fill="none" stroke="none" stroke-linecap="square" stroke-miterlimit="10" xmlns:xlink="http://www.w3.org/1999/xlink" xmlns="http://www.w3.org/2000/svg"><clipPath id="p.0"><path d="m0 0l150.0 0l0 60.0l-150.0 0l0 -60.0z" clip-rule="nonzero"/></clipPath><g clip-path="url(#p.0)"><path fill="#000000" fill-opacity="0.0" d="m0 0l150.0 0l0 60.0l-150.0 0z" fill-rule="evenodd"/><path fill="#000000" fill-opacity="0.0" d="m-6.4593177 -11.057743l158.51968 0l0 65.22835l-158.51968 0z" fill-rule="evenodd"/><path fill="#000000" d="m23.775057 10.387257q6.546875 0 10.375002 3.6875q3.828125 3.671875 3.828125 9.75q0 6.046875 -3.828125 9.75q-3.828127 3.6875 -10.375002 3.6875l-9.968749 0l0 15.0l-9.234375 0l0 -41.875l19.203125 0zm-2.5625 19.703125q3.953125 0 5.890625 -1.484375q1.9375 -1.484375 1.9375 -4.78125q0 -3.203125 -1.859375 -4.734375q-1.859375 -1.546875 -5.9375 -1.546875l-7.437499 0l0 12.546875l7.406249 0zm39.506073 -19.703125l15.656246 41.84375l-9.5625 0l-3.1406212 -9.3125l-15.671875 0l-3.296875 9.34375l-9.3125 0l15.90625 -41.875l9.421875 0zm-4.875 10.3125l-5.4375 15.375l10.859375 0l-5.28125 -15.375l-0.140625 0zm49.943386 -10.3125l0 7.734375l-12.5625 0l0 34.140625l-9.203125 0l0 -34.140625l-12.546875 0l0 -7.734375l34.3125 0z" fill-rule="nonzero"/><path fill="#e5261f" d="m118.02284 10.387257l0 15.78125l0.203125 0q1.3125 -2.265625 3.734375 -3.640625q2.421875 -1.390625 5.171875 -1.390625q5.78125 0 8.40625 2.953125q2.625 2.9375 2.625 9.21875l0 18.953125l-8.34375 0l0 -17.390625q0 -3.546875 -1.21875 -5.359375q-1.21875 -1.828125 -4.109375 -1.828125q-3.453125 0 -4.96875 2.0625q-1.5 2.0625 -1.5 6.328125l0 16.1875l-8.3125 0l0 -41.875l8.3125 0z" fill-rule="nonzero"/></g></svg>