<svg id="Layer_1" data-name="Layer 1" xmlns="http://www.w3.org/2000/svg" viewBox="0 0 262.46 193.79"><defs><style>.cls-1{fill:#010101;}.cls-2{fill:#d41e43;}</style></defs><path class="cls-1" d="M118.46,83.58h18.26L105.31,0H86.88L55.46,83.58H73.72l6.65-18.53h31.44Zm-32-35.36,9.68-27,9.68,27Z"/><path class="cls-1" d="M34,0H0V83.58H16.83V59.12H34A29.56,29.56,0,0,0,34,0Zm0,42H16.83V17.12H34A12.44,12.44,0,0,1,34,42Z"/><path class="cls-2" d="M234,26.11a23.07,23.07,0,0,0-14,4.53V0H126.73V16.83h28.93V83.58h17.1V16.83h30.4V83.58H220V59.1l.15-1.62c0-6.86,4.34-14.25,13.1-14.25,7.55,0,11.77,5.58,11.77,12.44V83.58h17.12V55.67C262.13,39.37,250.3,26.11,234,26.11Z"/><path class="cls-1" d="M5.26,109.2h-2v3.59H.63v-12H5.51c2.86,0,4.58,1.69,4.58,4.13v0C10.09,107.77,7.94,109.2,5.26,109.2ZM7.43,105c0-1.18-.82-1.81-2.14-1.81h-2v3.65H5.34a1.86,1.86,0,0,0,2.09-1.81Z"/><path class="cls-1" d="M20.77,112.79l-1.1-2.68H14.62l-1.1,2.68H10.84l5.13-12h2.42l5.12,12Zm-3.63-8.88-1.58,3.87h3.17Z"/><path class="cls-1" d="M33.64,112.79,31.08,109H29v3.83H26.38v-12h5.47c2.82,0,4.51,1.49,4.51,4v0a3.72,3.72,0,0,1-2.56,3.71l2.92,4.27Zm0-7.88c0-1.12-.78-1.7-2.06-1.7H29v3.43h2.67c1.28,0,2-.68,2-1.69Z"/><path class="cls-1" d="M45.17,103.26v9.53H42.54v-9.53H38.9v-2.43h9.91v2.43Z"/><path class="cls-1" d="M60.24,112.79l-5.79-7.6v7.6h-2.6v-12h2.43l5.6,7.36v-7.36h2.59v12Z"/><path class="cls-1" d="M66.37,112.79v-12h9v2.34H69v2.43h5.64v2.34H69v2.51h6.49v2.34Z"/><path class="cls-1" d="M86.1,112.79,83.53,109H81.47v3.83H78.84v-12H84.3c2.82,0,4.51,1.49,4.51,4v0a3.72,3.72,0,0,1-2.56,3.71l2.92,4.27Zm.05-7.88c0-1.12-.79-1.7-2.07-1.7H81.47v3.43h2.66c1.28,0,2-.68,2-1.69Z"/><path class="cls-1" d="M96.46,113a7.6,7.6,0,0,1-5.07-1.91l1.55-1.87a5.51,5.51,0,0,0,3.57,1.46c1.08,0,1.73-.43,1.73-1.13v0c0-.66-.41-1-2.41-1.52-2.41-.61-4-1.28-4-3.65v0c0-2.16,1.74-3.6,4.18-3.6a6.92,6.92,0,0,1,4.44,1.52l-1.36,2A5.65,5.65,0,0,0,96,103c-1,0-1.54.46-1.54,1v0c0,.79.51,1,2.58,1.57,2.43.63,3.79,1.5,3.79,3.59v0C100.85,111.63,99,113,96.46,113Z"/><path class="cls-1" d="M111.65,112.79V108H106.8v4.8h-2.63v-12h2.63v4.73h4.85v-4.73h2.63v12Z"/><path class="cls-1" d="M118.29,112.79v-12h2.63v12Z"/><path class="cls-1" d="M129.56,109.2h-2v3.59h-2.63v-12h4.89c2.85,0,4.58,1.69,4.58,4.13v0C134.4,107.77,132.25,109.2,129.56,109.2Zm2.17-4.18c0-1.18-.82-1.81-2.13-1.81h-2v3.65h2.09a1.85,1.85,0,0,0,2.08-1.81Z"/><path class="cls-1" d="M146.34,112.94c-1.59,0-2.67-.63-2.67-2.75v-4.34h-1.09v-2.22h1.09v-2.34h2.6v2.34h2.15v2.22h-2.15v3.91c0,.6.25.89.83.89a2.67,2.67,0,0,0,1.28-.32v2.08A3.73,3.73,0,0,1,146.34,112.94Z"/><path class="cls-1" d="M155.59,113a4.76,4.76,0,0,1-4.93-4.73v0a4.81,4.81,0,0,1,5-4.77,4.76,4.76,0,0,1,4.93,4.73v0A4.8,4.8,0,0,1,155.59,113Zm2.41-4.76a2.43,2.43,0,0,0-2.41-2.53,2.34,2.34,0,0,0-2.37,2.49v0a2.42,2.42,0,0,0,2.41,2.52,2.34,2.34,0,0,0,2.37-2.49Z"/><path class="cls-1" d="M178.79,112.79l-1.09-2.68h-5.06l-1.09,2.68h-2.68l5.12-12h2.42l5.13,12Zm-3.62-8.88-1.59,3.87h3.18Z"/><path class="cls-1" d="M189.07,112.79h-4.66v-12h4.66c3.76,0,6.36,2.58,6.36,6v0C195.43,110.17,192.83,112.79,189.07,112.79Zm3.6-6a3.43,3.43,0,0,0-3.6-3.6h-2v7.2h2a3.4,3.4,0,0,0,3.6-3.57Z"/><path class="cls-1" d="M204.15,112.87h-2.32l-4.83-12h2.9l3.13,8.42,3.12-8.42H209Z"/><path class="cls-1" d="M219.05,112.79l-1.1-2.68h-5l-1.1,2.68h-2.68l5.13-12h2.42l5.12,12Zm-3.63-8.88-1.58,3.87H217Z"/><path class="cls-1" d="M233.05,112.79l-5.79-7.6v7.6h-2.59v-12h2.42l5.6,7.36v-7.36h2.6v12Z"/><path class="cls-1" d="M244.79,113a6,6,0,0,1-6.14-6.15v0a6.08,6.08,0,0,1,6.24-6.18,6.18,6.18,0,0,1,4.71,1.84l-1.67,1.93a4.39,4.39,0,0,0-3.06-1.35,3.55,3.55,0,0,0-3.47,3.73v0a3.55,3.55,0,0,0,3.47,3.76,4.32,4.32,0,0,0,3.14-1.4l1.68,1.69A6.13,6.13,0,0,1,244.79,113Z"/><path class="cls-1" d="M252.81,112.79v-12h9v2.34h-6.4v2.43h5.63v2.34h-5.63v2.51h6.49v2.34Z"/><path class="cls-2" d="M12.63,135.2v18.69H7.47V135.2H.33v-4.76H19.77v4.76Z"/><path class="cls-2" d="M40.4,153.89v-9.41H30.89v9.41H25.73V130.44h5.16v9.28H40.4v-9.28h5.16v23.45Z"/><path class="cls-2" d="M67.43,153.89l-5-7.5H58.35v7.5H53.19V130.44H63.92c5.52,0,8.84,2.91,8.84,7.74v.07a7.29,7.29,0,0,1-5,7.27l5.72,8.37Zm.1-15.44c0-2.21-1.54-3.35-4.05-3.35H58.35v6.73h5.23c2.51,0,4-1.34,4-3.32Z"/><path class="cls-2" d="M90.82,154.29a12,12,0,0,1-12.43-12.06v-.06a12.47,12.47,0,0,1,24.92-.07v.07A12.12,12.12,0,0,1,90.82,154.29Zm7.1-12.12a7.13,7.13,0,0,0-7.1-7.37,7,7,0,0,0-7,7.3v.07a7.13,7.13,0,0,0,7.1,7.37,7,7,0,0,0,7-7.31Z"/><path class="cls-2" d="M119.69,154.26c-6.3,0-10.15-3.52-10.15-10.42v-13.4h5.16v13.27c0,3.82,1.91,5.79,5.06,5.79s5.06-1.91,5.06-5.63V130.44H130v13.23C130,150.78,126,154.26,119.69,154.26Z"/><path class="cls-2" d="M148.53,154.29c-7.3,0-12.32-5.12-12.32-12.06v-.06A12,12,0,0,1,148.5,130a12.89,12.89,0,0,1,9.21,3.21l-3.25,3.92a8.63,8.63,0,0,0-6.13-2.37c-3.75,0-6.73,3.31-6.73,7.3v.07c0,4.28,3,7.43,7.1,7.43a8.29,8.29,0,0,0,4.86-1.4v-3.35h-5.19v-4.46h10.18v10.19A15.24,15.24,0,0,1,148.53,154.29Z"/><path class="cls-2" d="M180.19,153.89v-9.41h-9.51v9.41h-5.16V130.44h5.16v9.28h9.51v-9.28h5.16v23.45Z"/><path class="cls-2" d="M202.07,146.86h-3.92v7H193V130.44h9.58c5.59,0,9,3.32,9,8.11v.06C211.55,144,207.33,146.86,202.07,146.86Zm4.25-8.21c0-2.31-1.61-3.55-4.19-3.55h-4v7.17h4.08c2.58,0,4.09-1.54,4.09-3.55Z"/><path class="cls-2" d="M227.16,154.26c-6.3,0-10.16-3.52-10.16-10.42v-13.4h5.16v13.27c0,3.82,1.91,5.79,5.06,5.79s5.06-1.91,5.06-5.63V130.44h5.16v13.23C237.44,150.78,233.45,154.26,227.16,154.26Z"/><path class="cls-2" d="M255.33,135.2v18.69h-5.16V135.2H243v-4.76h19.43v4.76Z"/><path class="cls-2" d="M13,193.79A11.84,11.84,0,0,1,1,181.73v-.07A11.92,11.92,0,0,1,13.2,169.53a12.13,12.13,0,0,1,9.25,3.62l-3.29,3.79a8.62,8.62,0,0,0-6-2.65c-4,0-6.81,3.28-6.81,7.3v.07c0,4,2.79,7.37,6.81,7.37,2.67,0,4.32-1.07,6.16-2.75l3.28,3.32A12,12,0,0,1,13,193.79Z"/><path class="cls-2" d="M39.46,193.79A12,12,0,0,1,27,181.73v-.07a12.13,12.13,0,0,1,12.5-12.13A12,12,0,0,1,52,181.59v.07A12.13,12.13,0,0,1,39.46,193.79Zm7.1-12.13a7.12,7.12,0,0,0-7.1-7.37,7,7,0,0,0-7,7.3v.07a7.12,7.12,0,0,0,7.1,7.37,7,7,0,0,0,7-7.3Z"/><path class="cls-2" d="M76.88,193.39V178.07l-6.6,10h-.13l-6.54-9.91v15.21H58.55V169.93h5.57l6.16,9.92,6.16-9.92H82v23.46Z"/><path class="cls-2" d="M98.72,186.35H94.8v7H89.64V169.93h9.58c5.6,0,9,3.32,9,8.11v.07C108.2,183.53,104,186.35,98.72,186.35Zm4.26-8.21c0-2.31-1.61-3.55-4.19-3.55h-4v7.17h4.09c2.58,0,4.09-1.54,4.09-3.55Z"/><path class="cls-2" d="M123.81,193.75c-6.3,0-10.15-3.51-10.15-10.42v-13.4h5.16V183.2c0,3.82,1.91,5.8,5.06,5.8s5.06-1.91,5.06-5.63V169.93h5.16v13.24C134.1,190.27,130.11,193.75,123.81,193.75Z"/><path class="cls-2" d="M152,174.69v18.7h-5.16v-18.7h-7.13v-4.76h19.43v4.76Z"/><path class="cls-2" d="M165.32,193.39V169.93h5.15v23.46Z"/><path class="cls-2" d="M194.8,193.39l-11.36-14.91v14.91h-5.09V169.93h4.75l11,14.44V169.93h5.1v23.46Z"/><path class="cls-2" d="M218.11,193.79c-7.3,0-12.33-5.13-12.33-12.06v-.07a12,12,0,0,1,12.3-12.13,12.87,12.87,0,0,1,9.21,3.22L224,176.67a8.63,8.63,0,0,0-6.13-2.38c-3.75,0-6.73,3.32-6.73,7.3v.07c0,4.29,2.94,7.44,7.1,7.44a8.25,8.25,0,0,0,4.86-1.41v-3.35h-5.2v-4.46h10.19v10.19A15.24,15.24,0,0,1,218.11,193.79Z"/></svg>