<?xml version="1.0" encoding="utf-8"?>
<!-- Generator: Adobe Illustrator 25.3.1, SVG Export Plug-In . SVG Version: 6.00 Build 0)  -->
<svg version="1.1"
	 id="svg148" inkscape:version="1.0.2 (e86c8708, 2021-01-15)" sodipodi:docname="CHTCandOSG copy.svg" xmlns:cc="http://creativecommons.org/ns#" xmlns:dc="http://purl.org/dc/elements/1.1/" xmlns:inkscape="http://www.inkscape.org/namespaces/inkscape" xmlns:rdf="http://www.w3.org/1999/02/22-rdf-syntax-ns#" xmlns:sodipodi="http://sodipodi.sourceforge.net/DTD/sodipodi-0.dtd" xmlns:svg="http://www.w3.org/2000/svg"
	 xmlns="http://www.w3.org/2000/svg" xmlns:xlink="http://www.w3.org/1999/xlink" x="0px" y="0px" viewBox="0 0 241.4 120.5"
	 style="enable-background:new 0 0 241.4 120.5;" xml:space="preserve">
<style type="text/css">
	.st0{fill:#231F20;}
	.st1{fill:#D41041;}
	.st2{fill:none;stroke:#231F20;stroke-width:0.612;stroke-linecap:round;stroke-linejoin:round;stroke-miterlimit:5.3333;}
</style>
<sodipodi:namedview  bordercolor="#666666" borderopacity="1" gridtolerance="10" guidetolerance="10" id="namedview150" inkscape:current-layer="g156" inkscape:cx="41.126538" inkscape:cy="120.60485" inkscape:document-rotation="0" inkscape:pageopacity="0" inkscape:pageshadow="2" inkscape:window-height="762" inkscape:window-maximized="0" inkscape:window-width="1322" inkscape:window-x="118" inkscape:window-y="25" inkscape:zoom="0.69602273" objecttolerance="10" pagecolor="#ffffff" showgrid="false">
	</sodipodi:namedview>
<g id="g156" transform="matrix(1.3333333,0,0,-1.3333333,-284.97958,605.50282)" inkscape:groupmode="layer" inkscape:label="ink_ext_XXXXXX">
	<g id="g1510" transform="translate(64.420409,34.481634)">
		<path id="path1094" class="st0" d="M201.1,364.3c-1.1,1-1.4,2.3-1.4,3.4c0,0.8,0.3,2.1,1.3,3.1c0.7,0.7,1.7,1.2,3.5,1.2
			c0.5,0,1.1,0,1.6-0.1c0.4-0.1,0.8-0.1,1.2-0.2c0.1,0,0.1-0.1,0.1-0.1c0-0.1,0-0.2-0.1-0.6c0-0.4,0-1,0-1.2c0-0.2,0-0.2-0.1-0.2
			c-0.1,0-0.1,0.1-0.1,0.2c0,0.4-0.2,0.9-0.5,1.2c-0.4,0.3-1.3,0.6-2.3,0.6c-1.5,0-2.2-0.4-2.6-0.8c-0.8-0.8-1-1.8-1-3
			c0-2.2,1.7-4.2,4.1-4.2c0.9,0,1.5,0.1,2,0.6c0.2,0.3,0.4,0.8,0.4,1c0,0.1,0,0.2,0.1,0.2c0.1,0,0.1-0.1,0.1-0.2
			c0-0.1-0.1-1.1-0.3-1.5c-0.1-0.2-0.1-0.2-0.3-0.3c-0.5-0.2-1.3-0.3-2-0.3C203.2,363.1,202,363.5,201.1,364.3"/>
		<path id="path1096" class="st0" d="M210.4,368.6c0,1.8,0,2.1,0,2.5c0,0.4-0.1,0.6-0.5,0.6c-0.1,0-0.3,0-0.4,0c0,0-0.1,0-0.1,0.1
			c0,0.1,0.1,0.1,0.2,0.1c0.3,0,0.6,0,0.8,0l0.5,0c0.1,0,2.3,0,2.6,0c0.2,0,0.4,0,0.5,0.1c0.1,0,0.1,0.1,0.2,0.1c0,0,0,0,0-0.1
			c0-0.1-0.1-0.2-0.1-0.5c0-0.1,0-0.6-0.1-0.8c0-0.1,0-0.1-0.1-0.1c-0.1,0-0.1,0.1-0.1,0.1c0,0.1,0,0.3-0.1,0.4
			c-0.1,0.2-0.2,0.3-0.8,0.4c-0.2,0-1.4,0-1.6,0c0,0-0.1,0-0.1-0.1v-3.1c0-0.1,0-0.1,0.1-0.1c0.1,0,1.5,0,1.8,0c0.3,0,0.4,0,0.5,0.2
			c0.1,0.1,0.1,0.1,0.2,0.1c0,0,0.1,0,0.1-0.1s-0.1-0.3-0.1-0.6c0-0.2,0-0.6,0-0.7c0-0.1,0-0.2-0.1-0.2c-0.1,0-0.1,0-0.1,0.1
			c0,0.1,0,0.2,0,0.4c0,0.2-0.1,0.4-0.6,0.4c-0.3,0-1.4,0.1-1.6,0.1c-0.1,0-0.1,0-0.1-0.1v-1c0-0.4,0-1.7,0-1.9
			c0-0.8,0.2-0.9,1.3-0.9c0.3,0,0.8,0,1.1,0.1c0.3,0.1,0.4,0.4,0.5,0.8c0,0.1,0,0.2,0.1,0.2c0.1,0,0.1-0.1,0.1-0.2
			c0-0.1-0.1-0.9-0.1-1.1c-0.1-0.3-0.2-0.3-0.6-0.3c-0.9,0-1.5,0-1.9,0c-0.4,0-0.7,0-0.9,0c0,0-0.2,0-0.5,0c-0.2,0-0.5,0-0.7,0
			c-0.1,0-0.2,0-0.2,0.1c0,0,0,0.1,0.1,0.1c0.1,0,0.2,0,0.3,0c0.2,0,0.3,0.3,0.3,0.6c0.1,0.5,0.1,1.4,0.1,2.5V368.6"/>
		<path id="path1098" class="st0" d="M217.9,364.8c0-0.9,0.1-1.2,0.4-1.3c0.2-0.1,0.5-0.1,0.6-0.1c0.1,0,0.1,0,0.1-0.1
			c0-0.1-0.1-0.1-0.2-0.1c-0.6,0-1.1,0-1.2,0c-0.1,0-0.6,0-1.1,0c-0.1,0-0.2,0-0.2,0.1c0,0,0,0.1,0.1,0.1c0.1,0,0.3,0,0.5,0.1
			c0.3,0.1,0.3,0.4,0.3,1.4l0,6.5c0,0.4,0,0.6,0.1,0.6s0.3-0.2,0.4-0.4c0.2-0.2,1.9-2,3.6-3.9c1.1-1.2,2.4-2.6,2.7-3l-0.1,5.8
			c0,0.7-0.1,1-0.4,1.1c-0.2,0-0.5,0.1-0.6,0.1c-0.1,0-0.1,0-0.1,0.1c0,0.1,0.1,0.1,0.2,0.1c0.5,0,1.1,0,1.2,0c0.1,0,0.5,0,1,0
			c0.1,0,0.2,0,0.2-0.1c0,0,0-0.1-0.1-0.1c-0.1,0-0.1,0-0.3,0c-0.4-0.1-0.4-0.3-0.4-1l0-6.7c0-0.8,0-0.8-0.1-0.8
			c-0.1,0-0.2,0.1-0.8,0.7c-0.1,0.1-1.8,1.8-3,3.1c-1.3,1.4-2.6,2.9-3,3.3L217.9,364.8"/>
		<path id="path1100" class="st0" d="M231,366.6c0-1.1,0-2,0.1-2.5c0-0.3,0.1-0.6,0.4-0.6c0.2,0,0.4,0,0.5,0c0.1,0,0.1,0,0.1-0.1
			c0-0.1-0.1-0.1-0.2-0.1c-0.6,0-1.3,0-1.4,0c-0.1,0-0.8,0-1.1,0c-0.1,0-0.2,0-0.2,0.1c0,0,0,0.1,0.1,0.1c0.1,0,0.2,0,0.3,0
			c0.2,0,0.3,0.3,0.3,0.6c0.1,0.5,0.1,1.4,0.1,2.5v4.8l-1.7,0c-0.7,0-1-0.1-1.2-0.4c-0.1-0.2-0.2-0.3-0.2-0.4c0-0.1-0.1-0.1-0.1-0.1
			c0,0-0.1,0-0.1,0.1c0,0.1,0.2,1.1,0.3,1.2c0,0.1,0.1,0.2,0.1,0.2c0.1,0,0.2-0.1,0.5-0.1c0.3,0,0.8-0.1,0.9-0.1h4.3
			c0.4,0,0.6,0,0.8,0.1c0.2,0,0.3,0.1,0.3,0.1c0.1,0,0.1-0.1,0.1-0.1c0-0.3,0-1.1,0-1.3c0-0.1,0-0.1-0.1-0.1c-0.1,0-0.1,0-0.1,0.2
			l0,0.1c0,0.3-0.3,0.6-1.4,0.6l-1.4,0L231,366.6"/>
		<path id="path1102" class="st0" d="M236.7,368.6c0,1.8,0,2.1,0,2.5c0,0.4-0.1,0.6-0.5,0.6c-0.1,0-0.3,0-0.4,0c0,0-0.1,0-0.1,0.1
			c0,0.1,0.1,0.1,0.2,0.1c0.3,0,0.6,0,0.8,0l0.5,0c0.1,0,2.3,0,2.6,0c0.2,0,0.4,0,0.5,0.1c0.1,0,0.1,0.1,0.2,0.1c0,0,0,0,0-0.1
			c0-0.1-0.1-0.2-0.1-0.5c0-0.1,0-0.6-0.1-0.8c0-0.1,0-0.1-0.1-0.1c-0.1,0-0.1,0.1-0.1,0.1c0,0.1,0,0.3-0.1,0.4
			c-0.1,0.2-0.2,0.3-0.8,0.4c-0.2,0-1.4,0-1.6,0c0,0-0.1,0-0.1-0.1v-3.1c0-0.1,0-0.1,0.1-0.1c0.1,0,1.5,0,1.8,0c0.3,0,0.4,0,0.5,0.2
			c0.1,0.1,0.1,0.1,0.2,0.1c0,0,0.1,0,0.1-0.1s-0.1-0.3-0.1-0.6c0-0.2,0-0.6,0-0.7c0-0.1,0-0.2-0.1-0.2c-0.1,0-0.1,0-0.1,0.1
			c0,0.1,0,0.2,0,0.4c0,0.2-0.1,0.4-0.6,0.4c-0.3,0-1.4,0.1-1.6,0.1c-0.1,0-0.1,0-0.1-0.1v-1c0-0.4,0-1.7,0-1.9
			c0-0.8,0.2-0.9,1.3-0.9c0.3,0,0.8,0,1.1,0.1c0.3,0.1,0.4,0.4,0.5,0.8c0,0.1,0,0.2,0.1,0.2c0.1,0,0.1-0.1,0.1-0.2
			c0-0.1-0.1-0.9-0.1-1.1c-0.1-0.3-0.2-0.3-0.6-0.3c-0.9,0-1.5,0-1.9,0c-0.4,0-0.7,0-0.9,0c0,0-0.2,0-0.5,0c-0.2,0-0.5,0-0.7,0
			c-0.1,0-0.2,0-0.2,0.1c0,0,0,0.1,0.1,0.1c0.1,0,0.2,0,0.3,0c0.2,0,0.3,0.3,0.3,0.6c0.1,0.5,0.1,1.4,0.1,2.5V368.6"/>
		<path id="path1104" class="st0" d="M244.8,367.6c0-0.1,0-0.1,0.1-0.1c0.2-0.1,0.7-0.2,1.2-0.2c0.3,0,0.6,0,0.9,0.2
			c0.4,0.3,0.7,0.9,0.7,1.8c0,1.4-0.8,2.3-2,2.3c-0.3,0-0.7,0-0.8-0.1c-0.1,0-0.1-0.1-0.1-0.1V367.6z M243.8,368.6
			c0,1.8,0,2.1,0,2.5c0,0.4-0.1,0.6-0.5,0.6c-0.1,0-0.3,0-0.4,0c0,0-0.1,0-0.1,0.1c0,0.1,0.1,0.1,0.2,0.1c0.5,0,1.2,0,1.3,0
			c0.1,0,1,0,1.3,0c0.7,0,1.5-0.1,2.1-0.5c0.3-0.2,0.8-0.8,0.8-1.5c0-0.8-0.4-1.7-1.4-2.6c0.9-1.2,1.7-2.2,2.4-2.9
			c0.6-0.6,1.1-0.8,1.4-0.8c0.2,0,0.4,0,0.4,0c0.1,0,0.1,0,0.1-0.1c0-0.1-0.1-0.1-0.3-0.1h-0.8c-0.6,0-0.9,0.1-1.2,0.2
			c-0.5,0.3-0.9,0.8-1.5,1.7c-0.5,0.6-1,1.4-1.2,1.7c0,0-0.1,0.1-0.1,0.1l-1.4,0c-0.1,0-0.1,0-0.1-0.1v-0.3c0-1.1,0-2,0.1-2.5
			c0-0.3,0.1-0.6,0.4-0.6c0.2,0,0.4,0,0.5,0c0.1,0,0.1,0,0.1-0.1c0-0.1-0.1-0.1-0.2-0.1c-0.6,0-1.3,0-1.4,0c0,0-0.7,0-1.1,0
			c-0.1,0-0.2,0-0.2,0.1c0,0,0,0.1,0.1,0.1c0.1,0,0.2,0,0.3,0c0.2,0,0.3,0.3,0.3,0.6c0.1,0.5,0.1,1.4,0.1,2.5L243.8,368.6"/>
		<path id="path1106" class="st0" d="M256.5,368.6c0,1.8,0,2.1,0,2.5c0,0.4-0.1,0.6-0.5,0.6c-0.1,0-0.3,0-0.4,0c0,0-0.1,0-0.1,0.1
			c0,0.1,0.1,0.1,0.2,0.1c0.3,0,0.6,0,0.8,0l0.5,0c0.2,0,2.5,0,2.8,0c0.2,0,0.4,0,0.5,0c0.1,0,0.1,0.1,0.2,0.1c0,0,0.1,0,0.1-0.1
			c0-0.1-0.1-0.2-0.1-0.5c0-0.1,0-0.6-0.1-0.8c0-0.1,0-0.1-0.1-0.1c-0.1,0-0.1,0.1-0.1,0.1c0,0.1,0,0.3-0.1,0.4
			c-0.1,0.1-0.3,0.4-0.8,0.4l-1.8,0c-0.1,0-0.1,0-0.1-0.1v-3.1c0-0.1,0-0.1,0.1-0.1l1.5,0c0.2,0,0.4,0,0.5,0c0.3,0,0.4,0.1,0.5,0.2
			c0,0.1,0.1,0.1,0.1,0.1c0,0,0.1,0,0.1-0.1c0-0.1-0.1-0.3-0.1-0.6c0-0.2,0-0.7,0-0.8c0-0.1,0-0.2-0.1-0.2c-0.1,0-0.1,0-0.1,0.1
			c0,0.1,0,0.3-0.1,0.4c-0.1,0.2-0.2,0.4-0.6,0.4c-0.3,0-1.5,0-1.7,0c-0.1,0-0.1,0-0.1-0.1v-1c0-1.1,0-2,0.1-2.5
			c0-0.3,0.1-0.6,0.4-0.6c0.2,0,0.4,0,0.5,0c0.1,0,0.1,0,0.1-0.1c0-0.1-0.1-0.1-0.2-0.1c-0.6,0-1.3,0-1.4,0s-0.8,0-1.1,0
			c-0.1,0-0.2,0-0.2,0.1c0,0,0,0.1,0.1,0.1c0.1,0,0.2,0,0.3,0c0.2,0,0.3,0.3,0.3,0.6c0.1,0.5,0.1,1.4,0.1,2.5L256.5,368.6"/>
		<path id="path1108" class="st0" d="M266.9,363.5c1,0,3.1,0.6,3.1,3.9c0,2.7-1.7,4.2-3.5,4.2c-1.9,0-3.3-1.3-3.3-3.7
			C263.3,365.2,264.9,363.5,266.9,363.5L266.9,363.5z M266.7,372c2.6,0,4.5-1.6,4.5-4.3c0-2.5-1.8-4.7-4.5-4.7
			c-3.1,0-4.4,2.4-4.4,4.5C262.2,369.4,263.5,372,266.7,372"/>
		<path id="path1110" class="st0" d="M275,367.6c0-0.1,0-0.1,0.1-0.1c0.2-0.1,0.7-0.2,1.2-0.2c0.3,0,0.6,0,0.9,0.2
			c0.4,0.3,0.7,0.9,0.7,1.8c0,1.4-0.8,2.3-2,2.3c-0.3,0-0.6,0-0.8-0.1c-0.1,0-0.1-0.1-0.1-0.1V367.6z M274.1,368.6
			c0,1.8,0,2.1,0,2.5c0,0.4-0.1,0.6-0.5,0.6c-0.1,0-0.3,0-0.4,0c0,0-0.1,0-0.1,0.1c0,0.1,0.1,0.1,0.2,0.1c0.5,0,1.2,0,1.3,0
			c0.1,0,1,0,1.3,0c0.7,0,1.5-0.1,2.1-0.5c0.3-0.2,0.8-0.8,0.8-1.5c0-0.8-0.4-1.7-1.4-2.6c0.9-1.2,1.7-2.2,2.4-2.9
			c0.6-0.6,1.1-0.8,1.4-0.8c0.2,0,0.4,0,0.4,0c0.1,0,0.1,0,0.1-0.1c0-0.1-0.1-0.1-0.3-0.1h-0.8c-0.6,0-0.9,0.1-1.2,0.2
			c-0.5,0.3-0.9,0.8-1.5,1.7c-0.5,0.6-1,1.4-1.2,1.7c0,0-0.1,0.1-0.1,0.1l-1.4,0c-0.1,0-0.1,0-0.1-0.1v-0.3c0-1.1,0-2,0.1-2.5
			c0-0.3,0.1-0.6,0.4-0.6c0.2,0,0.4,0,0.5,0c0.1,0,0.1,0,0.1-0.1c0-0.1-0.1-0.1-0.2-0.1c-0.6,0-1.3,0-1.4,0c0,0-0.7,0-1.1,0
			c-0.1,0-0.2,0-0.2,0.1c0,0,0,0.1,0.1,0.1c0.1,0,0.2,0,0.3,0c0.2,0,0.3,0.3,0.3,0.6c0.1,0.5,0.1,1.4,0.1,2.5V368.6"/>
		<path id="path1112" class="st1" d="M161.4,348.7c0-1.7,0-3,0.1-3.7c0.1-0.5,0.2-0.9,0.7-0.9c0.2,0,0.6-0.1,0.8-0.1
			c0.1,0,0.1-0.1,0.1-0.1c0-0.1-0.1-0.1-0.3-0.1c-0.9,0-2,0.1-2.1,0.1c-0.1,0-1.2-0.1-1.7-0.1c-0.2,0-0.3,0-0.3,0.1
			c0,0.1,0,0.1,0.1,0.1c0.2,0,0.4,0,0.5,0.1c0.3,0.1,0.4,0.4,0.5,0.9c0.1,0.7,0.1,2.1,0.1,3.7v1.8c0,0.1-0.1,0.1-0.1,0.1h-7.3
			c-0.1,0-0.1,0-0.1-0.1v-1.8c0-1.7,0-3,0.1-3.7c0.1-0.5,0.2-0.9,0.7-0.9c0.2,0,0.6-0.1,0.8-0.1c0.1,0,0.1-0.1,0.1-0.1
			c0-0.1-0.1-0.1-0.3-0.1c-0.9,0-2,0.1-2.1,0.1c-0.1,0-1.2-0.1-1.7-0.1c-0.2,0-0.3,0-0.3,0.1c0,0.1,0,0.1,0.1,0.1
			c0.2,0,0.4,0,0.5,0.1c0.3,0.1,0.4,0.4,0.5,0.9c0.1,0.7,0.1,2.1,0.1,3.7v3c0,2.7,0,3.2,0,3.7c0,0.6-0.2,0.9-0.7,1
			c-0.1,0-0.4,0.1-0.6,0.1c-0.1,0-0.1,0-0.1,0.1c0,0.1,0.1,0.1,0.3,0.1c0.8,0,1.9-0.1,1.9-0.1c0.1,0,1.2,0.1,1.7,0.1
			c0.2,0,0.3,0,0.3-0.1c0-0.1-0.1-0.1-0.1-0.1c-0.1,0-0.2,0-0.4-0.1c-0.5-0.1-0.6-0.4-0.6-1c0-0.6,0-1,0-3.7v-0.4
			c0-0.1,0.1-0.1,0.1-0.1h7.3c0.1,0,0.1,0,0.1,0.1v0.4c0,2.7,0,3.2,0,3.7c0,0.6-0.2,0.9-0.7,1c-0.1,0-0.4,0.1-0.6,0.1
			c-0.1,0-0.1,0-0.1,0.1c0,0.1,0.1,0.1,0.3,0.1c0.8,0,1.9-0.1,1.9-0.1c0.1,0,1.2,0.1,1.7,0.1c0.2,0,0.3,0,0.3-0.1
			c0-0.1-0.1-0.1-0.1-0.1c-0.1,0-0.2,0-0.4-0.1c-0.5-0.1-0.6-0.4-0.6-1c0-0.6,0-1,0-3.7V348.7"/>
		<path id="path1114" class="st1" d="M167.7,348.7c0-1.7,0-3,0.1-3.7c0.1-0.5,0.2-0.9,0.7-0.9c0.2,0,0.6-0.1,0.8-0.1
			c0.1,0,0.1-0.1,0.1-0.1c0-0.1-0.1-0.1-0.3-0.1c-0.9,0-2,0.1-2.1,0.1c-0.1,0-1.2-0.1-1.7-0.1c-0.2,0-0.3,0-0.3,0.1
			c0,0.1,0,0.1,0.1,0.1c0.2,0,0.4,0,0.5,0.1c0.3,0.1,0.4,0.4,0.5,0.9c0.1,0.7,0.1,2.1,0.1,3.7v3c0,2.7,0,3.2,0,3.7
			c0,0.6-0.2,0.9-0.6,1c-0.2,0.1-0.4,0.1-0.5,0.1c-0.1,0-0.1,0-0.1,0.1c0,0.1,0.1,0.1,0.3,0.1c0.6,0,1.7-0.1,1.7-0.1
			c0.1,0,1.2,0.1,1.7,0.1c0.2,0,0.3,0,0.3-0.1c0-0.1-0.1-0.1-0.1-0.1c-0.1,0-0.2,0-0.4-0.1c-0.5-0.1-0.6-0.4-0.6-1c0-0.6,0-1,0-3.7
			V348.7"/>
		<path id="path1116" class="st1" d="M180.3,348.1c0,1.4-0.1,1.6-0.8,1.8c-0.1,0-0.4,0.1-0.6,0.1c-0.1,0-0.1,0-0.1,0.1
			c0,0.1,0.1,0.1,0.3,0.1c0.8,0,1.9-0.1,1.9-0.1c0.1,0,1.2,0.1,1.7,0.1c0.2,0,0.3,0,0.3-0.1c0-0.1-0.1-0.1-0.1-0.1
			c-0.1,0-0.2,0-0.4-0.1c-0.5-0.1-0.6-0.4-0.6-1c0-0.6,0-1.1,0-1.8v-1.9c0-0.8,0-0.8-0.2-0.9c-1.1-0.6-2.7-0.8-3.6-0.8
			c-1.3,0-3.8,0.2-5.7,1.8c-1.1,0.9-2,2.8-2,4.9c0,2.8,1.3,4.7,2.9,5.7c1.6,1,3.3,1.1,4.6,1.1c1.1,0,2.3-0.2,2.6-0.3
			c0.4-0.1,1-0.2,1.4-0.2c0.2,0,0.2-0.1,0.2-0.2c0-0.2-0.1-0.7-0.1-2.4c0-0.3,0-0.4-0.2-0.4c-0.1,0-0.1,0.1-0.1,0.3
			c0,0.2-0.1,0.7-0.4,1.1c-0.4,0.7-1.8,1.4-4,1.4c-1.1,0-2.4-0.1-3.7-1.1c-1-0.8-1.7-2.4-1.7-4.4c0-2.4,1.2-4.2,1.8-4.8
			c1.4-1.3,2.9-1.8,4.5-1.8c0.6,0,1.5,0.1,2,0.4c0.2,0.1,0.3,0.3,0.3,0.6L180.3,348.1"/>
		<path id="path1118" class="st1" d="M196.1,348.7c0-1.7,0-3,0.1-3.7c0.1-0.5,0.2-0.9,0.7-0.9c0.2,0,0.6-0.1,0.8-0.1
			c0.1,0,0.1-0.1,0.1-0.1c0-0.1-0.1-0.1-0.3-0.1c-0.9,0-2,0.1-2.1,0.1c-0.1,0-1.2-0.1-1.7-0.1c-0.2,0-0.3,0-0.3,0.1
			c0,0.1,0,0.1,0.1,0.1c0.2,0,0.4,0,0.5,0.1c0.3,0.1,0.4,0.4,0.5,0.9c0.1,0.7,0.1,2.1,0.1,3.7v1.8c0,0.1-0.1,0.1-0.1,0.1h-7.3
			c-0.1,0-0.1,0-0.1-0.1v-1.8c0-1.7,0-3,0.1-3.7c0.1-0.5,0.2-0.9,0.7-0.9c0.2,0,0.6-0.1,0.8-0.1c0.1,0,0.1-0.1,0.1-0.1
			c0-0.1-0.1-0.1-0.3-0.1c-0.9,0-2,0.1-2.1,0.1c-0.1,0-1.2-0.1-1.7-0.1c-0.2,0-0.3,0-0.3,0.1c0,0.1,0,0.1,0.1,0.1
			c0.2,0,0.4,0,0.5,0.1c0.3,0.1,0.4,0.4,0.5,0.9c0.1,0.7,0.1,2.1,0.1,3.7v3c0,2.7,0,3.2,0,3.7c0,0.6-0.2,0.9-0.7,1
			c-0.1,0-0.4,0.1-0.6,0.1c-0.1,0-0.1,0-0.1,0.1c0,0.1,0.1,0.1,0.3,0.1c0.8,0,1.9-0.1,1.9-0.1c0.1,0,1.2,0.1,1.7,0.1
			c0.2,0,0.3,0,0.3-0.1c0-0.1-0.1-0.1-0.1-0.1c-0.1,0-0.2,0-0.4-0.1c-0.5-0.1-0.6-0.4-0.6-1c0-0.6,0-1,0-3.7v-0.4
			c0-0.1,0.1-0.1,0.1-0.1h7.3c0.1,0,0.1,0,0.1,0.1v0.4c0,2.7,0,3.2,0,3.7c0,0.6-0.2,0.9-0.7,1c-0.1,0-0.4,0.1-0.6,0.1
			c-0.1,0-0.1,0-0.1,0.1c0,0.1,0.1,0.1,0.3,0.1c0.8,0,1.9-0.1,1.9-0.1c0.1,0,1.2,0.1,1.7,0.1c0.2,0,0.3,0,0.3-0.1
			c0-0.1-0.1-0.1-0.1-0.1c-0.1,0-0.2,0-0.4-0.1c-0.5-0.1-0.6-0.4-0.6-1c0-0.6,0-1,0-3.7L196.1,348.7"/>
		<path id="path1120" class="st1" d="M209.7,348.7c0-1.7,0-3,0.1-3.7c0.1-0.5,0.2-0.9,0.7-0.9c0.2,0,0.6-0.1,0.8-0.1
			c0.1,0,0.1-0.1,0.1-0.1c0-0.1-0.1-0.1-0.3-0.1c-0.9,0-2,0.1-2.1,0.1s-1.2-0.1-1.7-0.1c-0.2,0-0.3,0-0.3,0.1c0,0.1,0,0.1,0.1,0.1
			c0.2,0,0.4,0,0.5,0.1c0.3,0.1,0.4,0.4,0.5,0.9c0.1,0.7,0.1,2.1,0.1,3.7v7.3l-2.5,0c-1.1,0-1.5-0.1-1.8-0.6
			c-0.2-0.3-0.2-0.4-0.3-0.5c-0.1-0.1-0.1-0.2-0.2-0.2c-0.1,0-0.1,0.1-0.1,0.2c0,0.2,0.3,1.7,0.4,1.8c0,0.1,0.1,0.3,0.2,0.3
			c0.1,0,0.3-0.2,0.8-0.2c0.5-0.1,1.2-0.1,1.4-0.1h6.5c0.6,0,0.9,0,1.2,0.1c0.3,0,0.4,0.1,0.5,0.1c0.1,0,0.1-0.1,0.1-0.2
			c0-0.5-0.1-1.7-0.1-1.9c0-0.2-0.1-0.2-0.1-0.2c-0.1,0-0.1,0.1-0.1,0.3l0,0.2c-0.1,0.5-0.5,0.9-2.1,0.9l-2.2,0L209.7,348.7"/>
		<path id="path1122" class="st1" d="M227.4,348.7c0-1.7,0-3,0.1-3.7c0.1-0.5,0.2-0.9,0.7-0.9c0.2,0,0.6-0.1,0.8-0.1
			c0.1,0,0.1-0.1,0.1-0.1c0-0.1-0.1-0.1-0.3-0.1c-0.9,0-2,0.1-2.1,0.1c-0.1,0-1.2-0.1-1.7-0.1c-0.2,0-0.3,0-0.3,0.1
			c0,0.1,0,0.1,0.1,0.1c0.2,0,0.4,0,0.5,0.1c0.3,0.1,0.4,0.4,0.5,0.9c0.1,0.7,0.1,2.1,0.1,3.7v1.8c0,0.1-0.1,0.1-0.1,0.1h-7.3
			c-0.1,0-0.1,0-0.1-0.1v-1.8c0-1.7,0-3,0.1-3.7c0.1-0.5,0.2-0.9,0.7-0.9c0.2,0,0.6-0.1,0.8-0.1c0.1,0,0.1-0.1,0.1-0.1
			c0-0.1-0.1-0.1-0.3-0.1c-0.9,0-2,0.1-2.1,0.1c-0.1,0-1.2-0.1-1.7-0.1c-0.2,0-0.3,0-0.3,0.1c0,0.1,0,0.1,0.1,0.1
			c0.2,0,0.4,0,0.5,0.1c0.3,0.1,0.4,0.4,0.5,0.9c0.1,0.7,0.1,2.1,0.1,3.7v3c0,2.7,0,3.2,0,3.7c0,0.6-0.2,0.9-0.7,1
			c-0.1,0-0.4,0.1-0.6,0.1c-0.1,0-0.1,0-0.1,0.1c0,0.1,0.1,0.1,0.3,0.1c0.8,0,1.9-0.1,1.9-0.1c0.1,0,1.2,0.1,1.7,0.1
			c0.2,0,0.3,0,0.3-0.1c0-0.1-0.1-0.1-0.1-0.1c-0.1,0-0.2,0-0.4-0.1c-0.5-0.1-0.6-0.4-0.6-1c0-0.6,0-1,0-3.7v-0.4
			c0-0.1,0.1-0.1,0.1-0.1h7.3c0.1,0,0.1,0,0.1,0.1v0.4c0,2.7,0,3.2,0,3.7c0,0.6-0.2,0.9-0.7,1c-0.1,0-0.4,0.1-0.6,0.1
			c-0.1,0-0.1,0-0.1,0.1c0,0.1,0.1,0.1,0.3,0.1c0.8,0,1.9-0.1,1.9-0.1c0.1,0,1.2,0.1,1.7,0.1c0.2,0,0.3,0,0.3-0.1
			c0-0.1-0.1-0.1-0.1-0.1c-0.1,0-0.2,0-0.4-0.1c-0.5-0.1-0.6-0.4-0.6-1c0-0.6,0-1,0-3.7L227.4,348.7"/>
		<path id="path1124" class="st1" d="M233.3,350.3c0-0.1,0-0.2,0.1-0.2c0.3-0.2,1.1-0.3,1.8-0.3c0.4,0,0.9,0.1,1.3,0.3
			c0.6,0.4,1.1,1.3,1.1,2.7c0,2.2-1.1,3.4-3,3.4c-0.5,0-1-0.1-1.2-0.1c-0.1,0-0.1-0.1-0.1-0.2L233.3,350.3z M231.9,351.8
			c0,2.7,0,3.2,0,3.7c0,0.6-0.2,0.9-0.7,1c-0.1,0-0.4,0.1-0.6,0.1c-0.1,0-0.1,0-0.1,0.1c0,0.1,0.1,0.1,0.3,0.1
			c0.8,0,1.9-0.1,1.9-0.1c0.2,0,1.5,0.1,2,0.1c1.1,0,2.2-0.1,3.1-0.8c0.4-0.3,1.2-1.2,1.2-2.3c0-1.3-0.5-2.5-2.1-4
			c1.4-1.8,2.6-3.3,3.6-4.4c0.9-1,1.7-1.2,2.1-1.2c0.3-0.1,0.6-0.1,0.7-0.1c0.1,0,0.2-0.1,0.2-0.1c0-0.1-0.1-0.1-0.4-0.1h-1.2
			c-1,0-1.4,0.1-1.8,0.3c-0.7,0.4-1.3,1.2-2.3,2.5c-0.7,0.9-1.5,2.1-1.9,2.5c-0.1,0.1-0.1,0.1-0.2,0.1l-2.1,0
			c-0.1,0-0.1-0.1-0.1-0.1v-0.4c0-1.7,0-3,0.1-3.7c0.1-0.5,0.2-0.9,0.7-0.9c0.2,0,0.6-0.1,0.8-0.1c0.1,0,0.1-0.1,0.1-0.1
			c0-0.1-0.1-0.1-0.3-0.1c-0.9,0-2,0.1-2.1,0.1c0,0-1.1-0.1-1.6-0.1c-0.2,0-0.3,0-0.3,0.1c0,0.1,0,0.1,0.1,0.1c0.2,0,0.4,0,0.5,0.1
			c0.3,0.1,0.4,0.4,0.5,0.9c0.1,0.7,0.1,2.1,0.1,3.7V351.8"/>
		<path id="path1126" class="st1" d="M248.9,344.1c1.6,0,4.8,0.9,4.8,5.9c0,4.1-2.5,6.4-5.2,6.4c-2.9,0-5-1.9-5-5.7
			C243.4,346.7,245.8,344.1,248.9,344.1L248.9,344.1z M248.6,357c3.9,0,6.8-2.4,6.8-6.5c0-3.9-2.7-7-6.9-7c-4.7,0-6.7,3.7-6.7,6.8
			C241.8,353,243.8,357,248.6,357"/>
		<path id="path1128" class="st1" d="M256.9,351.8c0,2.7,0,3.2,0,3.7c0,0.6-0.2,0.9-0.7,1c-0.1,0-0.4,0.1-0.6,0.1
			c-0.1,0-0.1,0-0.1,0.1c0,0.1,0.1,0.1,0.3,0.1c0.8,0,1.8-0.1,2-0.1c0.2,0,1.2,0.1,1.7,0.1c0.2,0,0.3,0,0.3-0.1
			c0-0.1-0.1-0.1-0.1-0.1c-0.1,0-0.2,0-0.4-0.1c-0.5-0.1-0.6-0.4-0.6-1c0-0.6,0-1,0-3.7v-2.4c0-2.5,0.6-3.5,1.3-4.3
			c0.8-0.8,1.6-0.9,2.6-0.9c1,0,2.1,0.5,2.7,1.2c0.8,1,1,2.4,1,4.2v2.2c0,2.7,0,3.2,0,3.7c0,0.6-0.2,0.9-0.7,1
			c-0.1,0-0.4,0.1-0.6,0.1c-0.1,0-0.1,0-0.1,0.1c0,0.1,0.1,0.1,0.3,0.1c0.8,0,1.7-0.1,1.8-0.1c0.1,0,0.9,0.1,1.4,0.1
			c0.2,0,0.3,0,0.3-0.1c0-0.1-0.1-0.1-0.1-0.1c-0.1,0-0.2,0-0.4-0.1c-0.5-0.1-0.6-0.4-0.6-1c0-0.6,0-1,0-3.7v-1.8
			c0-1.9-0.2-3.9-1.6-5.1c-1.2-1.1-2.5-1.3-3.5-1.3c-0.6,0-2.3,0.1-3.5,1.2c-0.8,0.8-1.5,2-1.5,4.5L256.9,351.8"/>
		<path id="path1130" class="st1" d="M278.9,348.1c0,1.4-0.1,1.6-0.8,1.8c-0.1,0-0.4,0.1-0.6,0.1c-0.1,0-0.1,0-0.1,0.1
			c0,0.1,0.1,0.1,0.3,0.1c0.8,0,1.9-0.1,1.9-0.1s1.2,0.1,1.7,0.1c0.2,0,0.3,0,0.3-0.1c0-0.1-0.1-0.1-0.1-0.1c-0.1,0-0.2,0-0.4-0.1
			c-0.5-0.1-0.6-0.4-0.6-1c0-0.6,0-1.1,0-1.8v-1.9c0-0.8,0-0.8-0.2-0.9c-1.1-0.6-2.7-0.8-3.6-0.8c-1.3,0-3.8,0.2-5.7,1.8
			c-1,0.9-2,2.8-2,4.9c0,2.8,1.3,4.7,2.9,5.7c1.5,1,3.3,1.1,4.6,1.1c1.1,0,2.3-0.2,2.6-0.3c0.4-0.1,1-0.2,1.4-0.2
			c0.2,0,0.2-0.1,0.2-0.2c0-0.2-0.1-0.7-0.1-2.4c0-0.3,0-0.4-0.2-0.4c-0.1,0-0.1,0.1-0.1,0.3c0,0.2-0.1,0.7-0.4,1.1
			c-0.4,0.7-1.8,1.4-4,1.4c-1.1,0-2.4-0.1-3.7-1.1c-1-0.8-1.7-2.4-1.7-4.4c0-2.4,1.2-4.2,1.8-4.8c1.4-1.3,2.9-1.8,4.5-1.8
			c0.6,0,1.5,0.1,2,0.4c0.2,0.1,0.3,0.3,0.3,0.6L278.9,348.1"/>
		<path id="path1132" class="st1" d="M294.1,348.7c0-1.7,0-3,0.1-3.7c0.1-0.5,0.2-0.9,0.7-0.9c0.2,0,0.6-0.1,0.8-0.1
			c0.1,0,0.1-0.1,0.1-0.1c0-0.1-0.1-0.1-0.3-0.1c-0.9,0-2,0.1-2.1,0.1c-0.1,0-1.2-0.1-1.7-0.1c-0.2,0-0.3,0-0.3,0.1
			c0,0.1,0,0.1,0.1,0.1c0.2,0,0.4,0,0.5,0.1c0.3,0.1,0.4,0.4,0.5,0.9c0.1,0.7,0.1,2.1,0.1,3.7v1.8c0,0.1-0.1,0.1-0.1,0.1h-7.3
			c-0.1,0-0.1,0-0.1-0.1v-1.8c0-1.7,0-3,0.1-3.7c0.1-0.5,0.2-0.9,0.7-0.9c0.2,0,0.6-0.1,0.8-0.1c0.1,0,0.1-0.1,0.1-0.1
			c0-0.1-0.1-0.1-0.3-0.1c-0.9,0-2,0.1-2.1,0.1c-0.1,0-1.2-0.1-1.7-0.1c-0.2,0-0.3,0-0.3,0.1c0,0.1,0,0.1,0.1,0.1
			c0.2,0,0.4,0,0.5,0.1c0.3,0.1,0.4,0.4,0.5,0.9c0.1,0.7,0.1,2.1,0.1,3.7v3c0,2.7,0,3.2,0,3.7c0,0.6-0.2,0.9-0.7,1
			c-0.1,0-0.4,0.1-0.6,0.1c-0.1,0-0.1,0-0.1,0.1c0,0.1,0.1,0.1,0.3,0.1c0.8,0,1.9-0.1,1.9-0.1c0.1,0,1.2,0.1,1.7,0.1
			c0.2,0,0.3,0,0.3-0.1c0-0.1-0.1-0.1-0.1-0.1c-0.1,0-0.2,0-0.4-0.1c-0.5-0.1-0.6-0.4-0.6-1c0-0.6,0-1,0-3.7v-0.4
			c0-0.1,0.1-0.1,0.1-0.1h7.3c0.1,0,0.1,0,0.1,0.1v0.4c0,2.7,0,3.2,0,3.7c0,0.6-0.2,0.9-0.7,1c-0.1,0-0.4,0.1-0.6,0.1
			c-0.1,0-0.1,0-0.1,0.1c0,0.1,0.1,0.1,0.3,0.1c0.8,0,1.9-0.1,1.9-0.1c0.1,0,1.2,0.1,1.7,0.1c0.2,0,0.3,0,0.3-0.1
			c0-0.1-0.1-0.1-0.1-0.1c-0.1,0-0.2,0-0.4-0.1c-0.5-0.1-0.6-0.4-0.6-1c0-0.6,0-1,0-3.7L294.1,348.7"/>
		<path id="path1134" class="st1" d="M298.8,351.8c0,2.7,0,3.2,0,3.7c0,0.6-0.2,0.9-0.7,1c-0.1,0-0.4,0.1-0.6,0.1
			c-0.1,0-0.1,0-0.1,0.1c0,0.1,0.1,0.1,0.3,0.1c0.8,0,1.8-0.1,1.9-0.1c0.4,0,1.4,0.1,2.2,0.1c2.2,0,2.9-0.7,3.2-1
			c0.4-0.4,0.9-1.1,0.9-2c0-2.4-1.8-4.1-4.2-4.1c-0.1,0-0.3,0-0.4,0c-0.1,0-0.2,0-0.2,0.1c0,0.1,0.1,0.2,0.5,0.2c1.7,0,3,1.2,3,2.8
			c0,0.6-0.1,1.7-1,2.6c-0.9,0.9-2,0.9-2.4,0.9c-0.3,0-0.6,0-0.7-0.1c-0.1,0-0.1-0.2-0.1-0.3v-7.1c0-1.7,0-3,0.1-3.7
			c0.1-0.5,0.2-0.9,0.7-0.9c0.2,0,0.6-0.1,0.8-0.1c0.1,0,0.1-0.1,0.1-0.1c0-0.1-0.1-0.1-0.3-0.1c-0.9,0-2,0.1-2.1,0.1
			c-0.1,0-1.1-0.1-1.7-0.1c-0.2,0-0.3,0-0.3,0.1c0,0.1,0,0.1,0.1,0.1c0.2,0,0.4,0,0.5,0.1c0.3,0.1,0.4,0.4,0.5,0.9
			c0.1,0.7,0.1,2.1,0.1,3.7V351.8"/>
		<path id="path1136" class="st1" d="M307.4,351.8c0,2.7,0,3.2,0,3.7c0,0.6-0.2,0.9-0.7,1c-0.1,0-0.4,0.1-0.6,0.1
			c-0.1,0-0.1,0-0.1,0.1c0,0.1,0.1,0.1,0.3,0.1c0.8,0,1.8-0.1,2-0.1s1.2,0.1,1.7,0.1c0.2,0,0.3,0,0.3-0.1c0-0.1-0.1-0.1-0.1-0.1
			c-0.1,0-0.2,0-0.4-0.1c-0.5-0.1-0.6-0.4-0.6-1c0-0.6,0-1,0-3.7v-2.4c0-2.5,0.6-3.5,1.3-4.3c0.8-0.8,1.6-0.9,2.6-0.9
			c1,0,2.1,0.5,2.7,1.2c0.8,1,1,2.4,1,4.2v2.2c0,2.7,0,3.2,0,3.7c0,0.6-0.2,0.9-0.7,1c-0.1,0-0.4,0.1-0.6,0.1c-0.1,0-0.1,0-0.1,0.1
			c0,0.1,0.1,0.1,0.3,0.1c0.8,0,1.7-0.1,1.8-0.1c0.1,0,0.9,0.1,1.4,0.1c0.2,0,0.3,0,0.3-0.1c0-0.1-0.1-0.1-0.1-0.1
			c-0.1,0-0.2,0-0.4-0.1c-0.5-0.1-0.6-0.4-0.6-1c0-0.6,0-1,0-3.7v-1.8c0-1.9-0.2-3.9-1.6-5.1c-1.2-1.1-2.5-1.3-3.5-1.3
			c-0.6,0-2.3,0.1-3.5,1.2c-0.8,0.8-1.5,2-1.5,4.5L307.4,351.8"/>
		<path id="path1138" class="st1" d="M325.7,348.7c0-1.7,0-3,0.1-3.7c0.1-0.5,0.2-0.9,0.7-0.9c0.2,0,0.6-0.1,0.8-0.1
			c0.1,0,0.1-0.1,0.1-0.1c0-0.1-0.1-0.1-0.3-0.1c-0.9,0-2,0.1-2.1,0.1s-1.2-0.1-1.7-0.1c-0.2,0-0.3,0-0.3,0.1c0,0.1,0,0.1,0.1,0.1
			c0.2,0,0.4,0,0.5,0.1c0.3,0.1,0.4,0.4,0.5,0.9c0.1,0.7,0.1,2.1,0.1,3.7v7.3l-2.5,0c-1.1,0-1.5-0.1-1.8-0.6
			c-0.2-0.3-0.2-0.4-0.3-0.5c-0.1-0.1-0.1-0.2-0.2-0.2c-0.1,0-0.1,0.1-0.1,0.2c0,0.2,0.3,1.7,0.4,1.8c0,0.1,0.1,0.3,0.2,0.3
			c0.1,0,0.3-0.2,0.8-0.2c0.5-0.1,1.2-0.1,1.4-0.1h6.5c0.6,0,0.9,0,1.2,0.1c0.3,0,0.4,0.1,0.5,0.1c0.1,0,0.1-0.1,0.1-0.2
			c0-0.5-0.1-1.7-0.1-1.9c0-0.2-0.1-0.2-0.1-0.2c-0.1,0-0.1,0.1-0.1,0.3l0,0.2c-0.1,0.5-0.5,0.9-2.1,0.9l-2.2,0L325.7,348.7"/>
		<path id="path1140" class="st0" d="M200.8,330.5c-1.1,1-1.4,2.3-1.4,3.4c0,0.8,0.3,2.1,1.3,3.1c0.7,0.7,1.7,1.2,3.5,1.2
			c0.5,0,1.1,0,1.6-0.1c0.4-0.1,0.8-0.1,1.2-0.2c0.1,0,0.1-0.1,0.1-0.1c0-0.1,0-0.2-0.1-0.6c0-0.4,0-1,0-1.2s0-0.2-0.1-0.2
			c-0.1,0-0.1,0.1-0.1,0.2c0,0.4-0.2,0.9-0.5,1.2c-0.4,0.3-1.3,0.6-2.3,0.6c-1.5,0-2.2-0.4-2.6-0.8c-0.8-0.8-1-1.8-1-3
			c0-2.2,1.7-4.2,4.1-4.2c0.9,0,1.5,0.1,2,0.6c0.2,0.3,0.4,0.8,0.4,1c0,0.1,0,0.2,0.1,0.2c0.1,0,0.1-0.1,0.1-0.2
			c0-0.1-0.1-1.1-0.3-1.5c-0.1-0.2-0.1-0.2-0.3-0.3c-0.5-0.2-1.3-0.3-2-0.3C202.9,329.3,201.7,329.7,200.8,330.5"/>
		<path id="path1142" class="st0" d="M213.3,329.7c1,0,3.1,0.6,3.1,3.9c0,2.7-1.7,4.2-3.5,4.2c-1.9,0-3.3-1.3-3.3-3.7
			C209.7,331.4,211.3,329.7,213.3,329.7z M213.1,338.2c2.6,0,4.5-1.6,4.5-4.3c0-2.5-1.8-4.7-4.5-4.7c-3.1,0-4.4,2.4-4.4,4.5
			C208.6,335.6,209.9,338.2,213.1,338.2"/>
		<path id="path1144" class="st0" d="M228.8,330.9c0-0.4,0.1-1,0.6-1.2c0.3-0.1,0.6-0.1,0.7-0.1c0.1,0,0.1,0,0.1-0.1
			c0-0.1-0.1-0.1-0.2-0.1c-0.3,0-1.5,0-1.9,0.1c-0.3,0-0.3,0.1-0.3,0.1c0,0,0,0.1,0.1,0.1c0.1,0,0.1,0.2,0,0.4l-0.5,5.9h0l-2.8-5.9
			c-0.2-0.5-0.3-0.6-0.4-0.6c-0.1,0-0.1,0.1-0.4,0.5c-0.3,0.6-1.3,2.5-1.3,2.6c-0.1,0.2-1.4,2.9-1.5,3.2h0l-0.5-5.3
			c0-0.2,0-0.4,0-0.6c0-0.2,0.1-0.3,0.3-0.4c0.2,0,0.4-0.1,0.4-0.1c0,0,0.1,0,0.1-0.1c0-0.1-0.1-0.1-0.2-0.1c-0.4,0-1,0-1.1,0
			c-0.1,0-0.6,0-1,0c-0.1,0-0.2,0-0.2,0.1c0,0,0.1,0.1,0.1,0.1c0.1,0,0.2,0,0.3,0c0.4,0.1,0.4,0.5,0.5,0.9l0.8,7.4
			c0,0.1,0.1,0.2,0.1,0.2c0.1,0,0.1,0,0.2-0.2l3.5-7.2l3.3,7.1c0,0.1,0.1,0.2,0.2,0.2s0.1-0.1,0.1-0.3L228.8,330.9"/>
		<path id="path1146" class="st0" d="M232.4,334.7c0,1.8,0,2.1,0,2.5c0,0.4-0.1,0.6-0.5,0.6c-0.1,0-0.3,0-0.4,0c0,0-0.1,0-0.1,0.1
			c0,0.1,0.1,0.1,0.2,0.1c0.5,0,1.2,0,1.3,0c0.3,0,0.9,0,1.4,0c1.4,0,1.9-0.5,2.1-0.6c0.3-0.2,0.6-0.8,0.6-1.4
			c0-1.6-1.2-2.7-2.8-2.7c-0.1,0-0.2,0-0.2,0c-0.1,0-0.1,0-0.1,0.1c0,0.1,0.1,0.1,0.3,0.1c1.1,0,2,0.8,2,1.9c0,0.4,0,1.1-0.6,1.8
			c-0.6,0.6-1.3,0.6-1.6,0.6c-0.2,0-0.4,0-0.5-0.1c-0.1,0-0.1-0.1-0.1-0.2v-4.7c0-1.1,0-2,0.1-2.5c0-0.3,0.1-0.6,0.4-0.6
			c0.2,0,0.4,0,0.5,0c0.1,0,0.1,0,0.1-0.1c0-0.1-0.1-0.1-0.2-0.1c-0.6,0-1.3,0-1.4,0c0,0-0.8,0-1.1,0c-0.1,0-0.2,0-0.2,0.1
			c0,0,0,0.1,0.1,0.1c0.1,0,0.2,0,0.3,0c0.2,0,0.3,0.3,0.3,0.6c0.1,0.5,0.1,1.4,0.1,2.5L232.4,334.7"/>
		<path id="path1148" class="st0" d="M239.1,334.7c0,1.8,0,2.1,0,2.5c0,0.4-0.1,0.6-0.5,0.6c-0.1,0-0.3,0-0.4,0c0,0-0.1,0-0.1,0.1
			c0,0.1,0.1,0.1,0.2,0.1c0.5,0,1.2,0,1.3,0c0.1,0,0.8,0,1.1,0c0.1,0,0.2,0,0.2-0.1c0,0,0-0.1-0.1-0.1c-0.1,0-0.1,0-0.3,0
			c-0.3,0-0.4-0.3-0.4-0.6c0-0.4,0-0.7,0-2.5v-1.6c0-1.6,0.4-2.3,0.9-2.8c0.6-0.5,1.1-0.6,1.7-0.6c0.7,0,1.4,0.3,1.8,0.8
			c0.5,0.6,0.7,1.6,0.7,2.8v1.4c0,1.8,0,2.1,0,2.5c0,0.4-0.1,0.6-0.5,0.6c-0.1,0-0.3,0-0.4,0c0,0-0.1,0-0.1,0.1
			c0,0.1,0.1,0.1,0.2,0.1c0.5,0,1.1,0,1.2,0c0.1,0,0.6,0,1,0c0.1,0,0.2,0,0.2-0.1c0,0,0-0.1-0.1-0.1c-0.1,0-0.1,0-0.3,0
			c-0.3-0.1-0.4-0.3-0.4-0.6c0-0.4,0-0.7,0-2.5v-1.2c0-1.2-0.1-2.6-1-3.4c-0.8-0.7-1.7-0.8-2.3-0.8c-0.4,0-1.5,0-2.3,0.8
			c-0.6,0.5-1,1.3-1,3L239.1,334.7"/>
		<path id="path1150" class="st0" d="M251.7,332.7c0-1.1,0-2,0.1-2.5c0-0.3,0.1-0.6,0.4-0.6c0.2,0,0.4,0,0.5,0c0.1,0,0.1,0,0.1-0.1
			c0-0.1-0.1-0.1-0.2-0.1c-0.6,0-1.3,0-1.4,0s-0.8,0-1.1,0c-0.1,0-0.2,0-0.2,0.1c0,0,0,0.1,0.1,0.1c0.1,0,0.2,0,0.3,0
			c0.2,0,0.3,0.3,0.3,0.6c0.1,0.5,0.1,1.4,0.1,2.5v4.8l-1.7,0c-0.7,0-1-0.1-1.2-0.4c-0.1-0.2-0.2-0.3-0.2-0.4c0-0.1-0.1-0.1-0.1-0.1
			c0,0-0.1,0-0.1,0.1c0,0.1,0.2,1.1,0.3,1.2c0,0.1,0.1,0.2,0.1,0.2c0.1,0,0.2-0.1,0.5-0.1c0.3,0,0.8-0.1,0.9-0.1h4.3
			c0.4,0,0.6,0,0.8,0.1c0.2,0,0.3,0.1,0.3,0.1c0.1,0,0.1-0.1,0.1-0.1c0-0.3,0-1.1,0-1.3c0-0.1,0-0.1-0.1-0.1c-0.1,0-0.1,0-0.1,0.2
			l0,0.1c0,0.3-0.3,0.6-1.4,0.6l-1.4,0V332.7"/>
		<path id="path1152" class="st0" d="M258.2,332.7c0-1.1,0-2,0.1-2.5c0-0.3,0.1-0.6,0.4-0.6c0.2,0,0.4,0,0.5,0c0.1,0,0.1,0,0.1-0.1
			c0-0.1-0.1-0.1-0.2-0.1c-0.6,0-1.3,0-1.4,0s-0.8,0-1.1,0c-0.1,0-0.2,0-0.2,0.1c0,0,0,0.1,0.1,0.1c0.1,0,0.2,0,0.3,0
			c0.2,0,0.3,0.3,0.3,0.6c0.1,0.5,0.1,1.4,0.1,2.5v2c0,1.8,0,2.1,0,2.5c0,0.4-0.1,0.6-0.4,0.6c-0.1,0-0.3,0-0.4,0c0,0-0.1,0-0.1,0.1
			c0,0.1,0.1,0.1,0.2,0.1c0.4,0,1.1,0,1.1,0s0.8,0,1.1,0c0.1,0,0.2,0,0.2-0.1c0,0,0-0.1-0.1-0.1c-0.1,0-0.1,0-0.3,0
			c-0.3-0.1-0.4-0.3-0.4-0.6c0-0.4,0-0.7,0-2.5L258.2,332.7"/>
		<path id="path1154" class="st0" d="M262.7,331c0-0.9,0.1-1.2,0.4-1.3c0.2-0.1,0.5-0.1,0.6-0.1c0.1,0,0.1,0,0.1-0.1
			c0-0.1-0.1-0.1-0.2-0.1c-0.6,0-1.1,0-1.2,0c-0.1,0-0.6,0-1.1,0c-0.1,0-0.2,0-0.2,0.1c0,0,0,0.1,0.1,0.1c0.1,0,0.3,0,0.5,0.1
			c0.3,0.1,0.3,0.4,0.3,1.4l0,6.5c0,0.4,0,0.6,0.1,0.6s0.3-0.3,0.4-0.4c0.2-0.2,1.9-2,3.6-3.9c1.1-1.2,2.4-2.6,2.7-3l-0.1,5.8
			c0,0.7-0.1,1-0.4,1.1c-0.2,0-0.5,0.1-0.6,0.1c-0.1,0-0.1,0-0.1,0.1c0,0.1,0.1,0.1,0.2,0.1c0.5,0,1.1,0,1.2,0c0.1,0,0.5,0,1,0
			c0.1,0,0.2,0,0.2-0.1c0,0,0-0.1-0.1-0.1c-0.1,0-0.1,0-0.3,0c-0.4-0.1-0.4-0.3-0.4-1l0-6.7c0-0.8,0-0.8-0.1-0.8
			c-0.1,0-0.2,0.1-0.8,0.7c-0.1,0.1-1.8,1.8-3,3.1c-1.3,1.4-2.6,2.9-3,3.3L262.7,331"/>
		<path id="path1156" class="st0" d="M278.5,332.3c0,0.9-0.1,1-0.5,1.2c-0.1,0-0.3,0-0.4,0c0,0-0.1,0-0.1,0.1c0,0.1,0.1,0.1,0.2,0.1
			c0.5,0,1.2,0,1.3,0c0.1,0,0.8,0,1.1,0c0.1,0,0.2,0,0.2-0.1c0,0,0-0.1-0.1-0.1c-0.1,0-0.1,0-0.3,0c-0.3-0.1-0.4-0.3-0.4-0.6
			c0-0.4,0-0.7,0-1.2v-1.3c0-0.5,0-0.5-0.1-0.6c-0.7-0.4-1.8-0.5-2.4-0.5c-0.9,0-2.5,0.1-3.7,1.2c-0.7,0.6-1.4,1.8-1.4,3.2
			c0,1.8,0.9,3.1,1.9,3.7c1,0.6,2.2,0.7,3,0.7c0.7,0,1.5-0.1,1.7-0.2c0.2-0.1,0.6-0.1,0.9-0.1c0.1,0,0.1-0.1,0.1-0.1
			c0-0.2-0.1-0.5-0.1-1.6c0-0.2,0-0.2-0.1-0.2c-0.1,0-0.1,0.1-0.1,0.2c0,0.2-0.1,0.5-0.2,0.8c-0.3,0.4-1.2,0.9-2.7,0.9
			c-0.7,0-1.6-0.1-2.4-0.8c-0.7-0.5-1.1-1.6-1.1-2.9c0-1.6,0.8-2.8,1.2-3.2c0.9-0.9,1.9-1.2,3-1.2c0.4,0,1,0.1,1.3,0.2
			c0.1,0.1,0.2,0.2,0.2,0.4L278.5,332.3"/>
		<path id="path1158" class="st2" d="M149.3,360.3h180.1"/>
		<path id="path1160" class="st2" d="M149.3,340.8h180.1"/>
		<path id="path1162" class="st0" d="M237.4,403H221v16.7h-9.7v-41.9h9.7v16.7h16.3v-16.7h9.7v33.1h-9.7L237.4,403"/>
		<path id="path1164" class="st1" d="M237.4,419.6v-8.8H252v-33.1h10.1v33h11.3v8.9"/>
	</g>
</g>
</svg>
