<?xml version="1.0" encoding="utf-8"?>
<!-- Generator: Adobe Illustrator 25.4.1, SVG Export Plug-In . SVG Version: 6.00 Build 0)  -->
<svg version="1.1" id="Layer_1" xmlns="http://www.w3.org/2000/svg" xmlns:xlink="http://www.w3.org/1999/xlink" x="0px" y="0px"
	 viewBox="0 0 371.6 377.7" style="enable-background:new 0 0 371.6 377.7;" xml:space="preserve">
<style type="text/css">
	.st0{fill:#232323;}
</style>
<path class="st0" d="M217.8,119.1c-0.7,0-1.3-0.6-1.3-1.3c0,0,0,0,0,0V94.2c-0.1-0.7,0.5-1.3,1.2-1.4c0.7-0.1,1.3,0.5,1.4,1.2
	c0,0.1,0,0.2,0,0.2v23.7C219.1,118.6,218.5,119.1,217.8,119.1z"/>
<path class="st0" d="M229.6,107.3h-23.7c-0.7-0.1-1.2-0.7-1.2-1.4c0.1-0.6,0.5-1.1,1.2-1.2h23.7c0.7-0.1,1.3,0.5,1.4,1.2
	c0.1,0.7-0.5,1.3-1.2,1.4C229.8,107.3,229.7,107.3,229.6,107.3z"/>
<path class="st0" d="M150.7,250.8H140c-0.7-0.1-1.2-0.7-1.2-1.4c0.1-0.6,0.5-1.1,1.2-1.2h10.7c0.7-0.1,1.3,0.5,1.4,1.2
	c0.1,0.7-0.5,1.3-1.2,1.4C150.8,250.8,150.8,250.8,150.7,250.8z"/>
<path class="st0" d="M151.2,265.4h-19.9c-0.7-0.1-1.2-0.7-1.2-1.4c0.1-0.6,0.5-1.1,1.2-1.2h19.9c0.7,0.1,1.2,0.7,1.2,1.4
	C152.3,264.9,151.9,265.4,151.2,265.4z"/>
<path class="st0" d="M163.4,265.4h-4.8c-0.7,0.1-1.3-0.5-1.4-1.2c-0.1-0.7,0.5-1.3,1.2-1.4c0.1,0,0.2,0,0.2,0h4.8
	c0.7,0.1,1.2,0.7,1.2,1.4C164.5,264.9,164,265.4,163.4,265.4z"/>
<path class="st0" d="M170.6,278.7h-22c-0.7-0.1-1.2-0.7-1.2-1.4c0.1-0.6,0.5-1.1,1.2-1.2h22c0.7,0.1,1.2,0.7,1.2,1.4
	C171.7,278.1,171.2,278.6,170.6,278.7z"/>
<path class="st0" d="M155.1,102h-10.7c-0.7-0.1-1.2-0.7-1.2-1.4c0.1-0.6,0.5-1.1,1.2-1.2h10.7c0.7-0.1,1.3,0.5,1.4,1.2
	c0.1,0.7-0.5,1.3-1.2,1.4C155.2,102,155.2,102,155.1,102z"/>
<path class="st0" d="M155.6,116.6h-19.9c-0.7-0.1-1.2-0.7-1.2-1.4c0.1-0.6,0.5-1.1,1.2-1.2h19.9c0.7-0.1,1.3,0.5,1.4,1.2
	c0.1,0.7-0.5,1.3-1.2,1.4C155.8,116.6,155.7,116.6,155.6,116.6z"/>
<path class="st0" d="M167.7,116.6H163c-0.7,0.1-1.3-0.5-1.4-1.2c-0.1-0.7,0.5-1.3,1.2-1.4c0.1,0,0.2,0,0.2,0h4.8
	c0.7-0.1,1.3,0.5,1.4,1.2c0.1,0.7-0.5,1.3-1.2,1.4C167.9,116.6,167.8,116.6,167.7,116.6z"/>
<path class="st0" d="M175,129.9h-22c-0.7,0.1-1.3-0.5-1.4-1.2c-0.1-0.7,0.5-1.3,1.2-1.4c0.1,0,0.2,0,0.2,0h22
	c0.7,0.1,1.2,0.7,1.2,1.4C176.1,129.4,175.6,129.8,175,129.9z"/>
<path class="st0" d="M282,177.1h-10.7c-0.7,0.1-1.3-0.5-1.4-1.2c-0.1-0.7,0.5-1.3,1.2-1.4c0.1,0,0.2,0,0.2,0H282
	c0.7,0.1,1.2,0.7,1.2,1.4C283.1,176.6,282.6,177.1,282,177.1L282,177.1z"/>
<path class="st0" d="M290.7,191.7h-19.9c-0.7-0.1-1.2-0.7-1.2-1.4c0.1-0.6,0.5-1.1,1.2-1.2h19.9c0.7,0.1,1.2,0.7,1.2,1.4
	C291.8,191.2,291.4,191.7,290.7,191.7z"/>
<path class="st0" d="M263.5,191.7h-4.8c-0.7-0.1-1.2-0.7-1.2-1.4c0.1-0.6,0.5-1.1,1.2-1.2h4.8c0.7-0.1,1.3,0.5,1.4,1.2
	c0.1,0.7-0.5,1.3-1.2,1.4C263.6,191.7,263.6,191.7,263.5,191.7z"/>
<path class="st0" d="M273.4,205h-22c-0.7-0.1-1.2-0.7-1.2-1.4c0.1-0.6,0.5-1.1,1.2-1.2h22c0.7,0.1,1.2,0.7,1.2,1.4
	C274.5,204.4,274.1,204.9,273.4,205z"/>
<path class="st0" d="M309.7,273.1l-2.4-0.8c4-12.2,4-21.3,0.1-23.5c-2.5-1.4-6,0.1-8.6,1.7l-1.3-2.1c5.7-3.4,9.2-2.8,11.2-1.7
	C313.8,249.7,314.2,259.3,309.7,273.1z"/>
<path class="st0" d="M304.6,286.2l-2.2-1c1-2.1,1.9-4.3,2.7-6.3l2.3,0.9C306.5,281.8,305.6,284,304.6,286.2z"/>
<path class="st0" d="M287.2,314.6l-2-1.5c4.1-5.2,7.8-10.7,11.1-16.5c0.8-1.3,1.5-2.6,2.2-3.9l2.2,1.2c-0.7,1.3-1.5,2.7-2.2,4
	C295.1,303.7,291.4,309.3,287.2,314.6z"/>
<path class="st0" d="M262.8,333.2c-1.2,0-2.4-0.3-3.5-0.9c-4.1-2.4-5.1-9.1-3-19c2-9.5,6.8-20.9,13.2-32.1
	c5.9-10.2,12.7-19.3,19.3-25.8l1.7,1.8c-6.4,6.3-13.1,15.2-18.9,25.2c-6.4,11-11,22.2-13,31.4c-1.9,8.6-1.2,14.6,1.8,16.3
	c3.9,2.2,11.6-2.3,20.3-11.8l1.8,1.7C274.9,328.6,267.9,333.2,262.8,333.2z"/>
<path class="st0" d="M283.8,299.5c-5.5,0-10-4.5-10-10s4.5-10,10-10s10,4.5,10,10S289.4,299.5,283.8,299.5z M283.8,282
	c-4.1,0-7.5,3.4-7.5,7.5s3.4,7.5,7.5,7.5s7.5-3.4,7.5-7.5C291.3,285.4,288,282,283.8,282z"/>
<path class="st0" d="M280.4,290.7c-0.7,0-1.2-0.5-1.2-1.2c0,0,0,0,0,0c0-2.6,2.1-4.7,4.7-4.7c0.7,0,1.2,0.6,1.2,1.2
	c0,0.7-0.6,1.2-1.2,1.2c-1.2,0-2.2,1-2.2,2.2C281.6,290.2,281,290.7,280.4,290.7L280.4,290.7z"/>
<path class="st0" d="M293.8,259.3c-3.7,0-6.7-3-6.7-6.7c0-3.7,3-6.7,6.7-6.7c3.7,0,6.7,3,6.7,6.7c0,0,0,0,0,0
	C300.5,256.3,297.5,259.3,293.8,259.3z M293.8,248.5c-2.3,0-4.2,1.9-4.2,4.2s1.9,4.2,4.2,4.2c2.3,0,4.2-1.9,4.2-4.2
	C298,250.3,296.1,248.5,293.8,248.5z"/>
<path class="st0" d="M241.7,298.3c-5.8-3.2-7.1-6.6-7.1-8.8c0-4,3.7-7.6,10.7-10.6c6.4-2.7,15.5-4.7,25.5-5.5l0.2,2.5
	c-9.8,0.9-18.6,2.8-24.8,5.4c-5.9,2.5-9.2,5.4-9.2,8.3s3.1,5.2,5.8,6.6L241.7,298.3z"/>
<path class="st0" d="M311.1,303.6l-0.5-2.4c12.6-2.7,20.4-7.2,20.4-11.6c0-3.5-4.8-7-13.2-9.7c-9-2.9-20.9-4.5-33.7-4.5
	c-1.5,0-3,0-4.4,0.1l-0.1-2.5c1.5,0,3-0.1,4.5-0.1c13,0,25.2,1.6,34.4,4.6c9.7,3.1,15,7.4,15,12.1
	C333.4,295.4,325.3,300.5,311.1,303.6z"/>
<path class="st0" d="M284,306.2c-1.5,0-3,0-4.5-0.1l0.1-2.5c1.5,0,3,0.1,4.5,0.1c6.6,0,13.2-0.4,19.8-1.4l0.4,2.5
	C297.5,305.7,290.8,306.2,284,306.2z"/>
<path class="st0" d="M270.9,305.6c-2.4-0.2-4.8-0.5-7-0.8l0.4-2.5c2.2,0.3,4.5,0.6,6.9,0.8L270.9,305.6z"/>
<path class="st0" d="M257,303.6c-1.7-0.4-3.4-0.8-4.9-1.2l0.7-2.4c1.5,0.4,3.1,0.8,4.8,1.2L257,303.6z"/>
<path class="st0" d="M247.3,306.1c-3.7,0-6.7-3-6.7-6.7c0-3.7,3-6.7,6.7-6.7c3.7,0,6.7,3,6.7,6.7c0,2.4-1.3,4.6-3.3,5.8
	C249.6,305.8,248.4,306.1,247.3,306.1z M247.3,295.3c-0.7,0-1.5,0.2-2.1,0.6c-2,1.2-2.7,3.7-1.5,5.7c0,0,0,0,0,0
	c1.2,2,3.7,2.7,5.7,1.5c2-1.2,2.7-3.7,1.5-5.7c-0.6-1-1.5-1.7-2.6-2C248,295.3,247.6,295.3,247.3,295.3L247.3,295.3z"/>
<path class="st0" d="M305.3,333.2c-3.9,0-8.9-2.7-14.5-7.8c-7.2-6.5-14.7-16.3-21.2-27.5c-0.8-1.3-1.5-2.7-2.2-4l2.2-1.2
	c0.7,1.3,1.4,2.6,2.2,3.9c6.4,11,13.7,20.6,20.7,26.9c6.5,5.9,12,8.3,15.1,6.6c2.4-1.4,2.9-5.3,2.9-8.3h2.5
	c0.1,6.7-2.2,9.4-4.1,10.5C307.7,332.9,306.5,333.2,305.3,333.2z"/>
<path class="st0" d="M263.5,286.2c-1-2.2-2-4.3-2.8-6.5l2.3-0.9c0.8,2.1,1.7,4.2,2.7,6.3L263.5,286.2z"/>
<path class="st0" d="M258.3,273c-4.4-13.8-4-23.3,1-26.3s13.6,1.6,23.4,12.3l-1.8,1.7c-8.6-9.5-16.4-14.1-20.3-11.9
	s-3.8,11.2,0.1,23.3L258.3,273z"/>
<path class="st0" d="M289.4,271.5c-1.4-1.9-2.7-3.8-4.1-5.5l2-1.5c1.4,1.8,2.8,3.7,4.2,5.6L289.4,271.5z"/>
<path class="st0" d="M308.7,311.4c-2.2-8.7-6.6-19-12.4-29c-0.8-1.3-1.5-2.6-2.3-3.8l2.1-1.3c0.8,1.3,1.6,2.6,2.3,3.9
	c5.9,10.2,10.4,20.7,12.6,29.6L308.7,311.4z"/>
<path class="st0" d="M311.1,323c-1.2,0-2.3-0.3-3.3-0.9c-3.2-1.8-4.3-5.9-2.4-9.1c1.8-3.2,5.9-4.3,9.1-2.4c3.2,1.8,4.3,5.9,2.4,9.1
	c-0.9,1.5-2.3,2.6-4,3.1C312.2,323,311.6,323,311.1,323z M311.1,312.2c-0.4,0-0.7,0-1.1,0.1c-2.2,0.6-3.6,2.9-3,5.1
	c0.6,2.2,2.9,3.6,5.1,3s3.6-2.9,3-5.1c-0.3-1.1-1-2-2-2.5C312.5,312.4,311.8,312.2,311.1,312.2L311.1,312.2z"/>
<path class="st0" d="M180.5,354.3c-19,0-34.5-15.5-34.4-34.5c0-19,15.5-34.5,34.5-34.4s34.5,15.5,34.4,34.5c0,5-1.1,10-3.2,14.5
	C206.1,346.6,193.9,354.4,180.5,354.3z M180.6,287.9c-17.7,0-32,14.3-32.1,31.9c0,17.7,14.3,32,31.9,32.1c12.5,0,23.8-7.2,29.1-18.5
	l0,0c7.5-16,0.5-35.1-15.5-42.5C189.8,288.9,185.2,287.9,180.6,287.9z"/>
<rect x="179.3" y="286.6" transform="matrix(0.4226 -0.9063 0.9063 0.4226 -185.6608 348.2724)" class="st0" width="2.5" height="66.5"/>
<path class="st0" d="M164.5,351.3c-0.8,0-1.6,0-2.4-0.1l0.1-2.6c0.8,0,1.5,0.1,2.2,0.1c13.8,0,25.8-7.9,31.7-21
	c6.3-13.5,3.8-29.5-6.3-40.4l1.8-1.8c10.8,11.7,13.5,28.8,6.8,43.3C192.1,342.8,179.3,351.3,164.5,351.3z"/>
<path class="st0" d="M167.1,351.1l-1.2-2.2c21-11.6,32.1-35.4,27.5-58.9l2.4-0.5C200.6,314.1,189,338.9,167.1,351.1L167.1,351.1z"/>
<path class="st0" d="M165.6,350.8c-14-14.9-13.3-38.3,1.5-52.3c7.4-7,17.4-10.6,27.5-10l-0.1,2.5c-19-1.1-35.4,13.3-36.5,32.4
	c-0.6,9.5,2.8,18.8,9.4,25.8L165.6,350.8z"/>
<path class="st0" d="M165.3,350.2c-4.8-24.6,6.8-49.4,28.7-61.6l1.2,2.2c-21,11.6-32.1,35.4-27.5,58.9L165.3,350.2z"/>
<rect x="147.3" y="318.6" transform="matrix(0.4228 -0.9062 0.9062 0.4228 -185.6263 348.1874)" class="st0" width="66.5" height="2.5"/>
<path class="st0" d="M212.6,313c-17.8-2.1-34.4-9.9-47.4-22.1l1.7-1.8c12.7,11.9,28.8,19.4,46,21.5L212.6,313z"/>
<path class="st0" d="M194.2,350.6c-12.7-11.9-28.8-19.4-46-21.5l0.3-2.5c17.8,2.1,34.4,9.9,47.4,22.1L194.2,350.6z"/>
<path class="st0" d="M180.4,360.9c-6,0-11.9-1.3-17.3-3.8l0,0c-0.6-0.3-0.9-1-0.6-1.6l0.1-0.1l1.5-3.2l2.2,1l-1,2.2
	c19.6,8.4,42.3-0.6,50.7-20.2c8.1-18.8,0.1-40.6-18.1-49.7l-1,2.2l-2.2-1l1.5-3.2c0-0.1,0-0.1,0.1-0.2c0.3-0.6,1-0.9,1.6-0.6l0,0
	c20.6,9.6,29.4,34,19.8,54.6C211,351.6,196.5,360.9,180.4,360.9L180.4,360.9z"/>
<path class="st0" d="M209.3,377.8h-50.9c-0.7,0-1.2-0.6-1.2-1.2c0-2.8,5.1-4.3,17.4-6.8c2.8-0.6,4.7-3,4.7-5.8
	c0-0.7,0.6-1.2,1.2-1.2c0,0,0,0,0,0h6.6c0.7,0,1.2,0.5,1.2,1.2c0,0,0,0,0,0c0,2.8,2,5.2,4.8,5.8c12.3,2.5,17.4,4,17.4,6.8
	C210.5,377.3,209.9,377.8,209.3,377.8z M162.4,375.4h42.9c-0.7-0.2-1.6-0.5-2.7-0.8c-3.1-0.9-7.1-1.7-10-2.3c-3.5-0.7-6.1-3.5-6.6-7
	h-4.3c-0.5,3.5-3.2,6.3-6.6,7c-2.9,0.6-6.8,1.4-10,2.3C163.9,374.8,163.1,375.1,162.4,375.4z"/>
<rect x="182.6" y="359.5" class="st0" width="2.5" height="4.5"/>
<path class="st0" d="M105.1,218.2H1.4c-0.7,0-1.2-0.6-1.2-1.2v-67.1c0-0.7,0.6-1.2,1.2-1.2h103.7c0.7,0,1.2,0.5,1.2,1.2c0,0,0,0,0,0
	V217C106.3,217.7,105.8,218.2,105.1,218.2C105.1,218.2,105.1,218.2,105.1,218.2z M2.6,215.7h101.2v-64.6H2.6V215.7z"/>
<path class="st0" d="M100.1,209.9H6.4c-0.7,0-1.2-0.6-1.2-1.2v-53.8c0-0.7,0.6-1.2,1.2-1.2h93.8c0.7,0,1.2,0.6,1.2,1.2v53.8
	C101.4,209.3,100.9,209.9,100.1,209.9C100.2,209.9,100.1,209.9,100.1,209.9z M7.6,207.4h91.3v-51.4H7.6V207.4z"/>
<path class="st0" d="M105.1,218.2H1.4c-0.7,0-1.2-0.6-1.2-1.2v-8.3c0-0.7,0.6-1.2,1.2-1.2h103.7c0.7,0,1.2,0.5,1.2,1.2c0,0,0,0,0,0
	v8.3C106.3,217.7,105.8,218.2,105.1,218.2C105.1,218.2,105.1,218.2,105.1,218.2z M2.6,215.7h101.2v-5.9H2.6V215.7z"/>
<path class="st0" d="M65.5,230.9H41c-0.7,0-1.2-0.6-1.2-1.2v-8h2.5v6.8h22v-6.8h2.5v8C66.7,230.3,66.2,230.9,65.5,230.9z"/>
<path class="st0" d="M74,230.9H32.5c-0.7,0-1.2-0.6-1.2-1.2c0-0.7,0.6-1.2,1.2-1.2l0,0H74c0.7,0,1.2,0.6,1.2,1.2
	C75.2,230.3,74.6,230.9,74,230.9z"/>
<path class="st0" d="M57.3,214.1h-8.1c-0.7,0-1.2-0.6-1.2-1.2c0-0.7,0.6-1.2,1.2-1.2l0,0h8.1c0.7,0,1.2,0.6,1.2,1.2
	C58.5,213.5,58,214.1,57.3,214.1z"/>
<path class="st0" d="M12.5,171.2c-0.7,0-1.2-0.5-1.2-1.2c0-0.3,0.1-0.7,0.4-0.9l8.7-8.7c0.5-0.5,1.3-0.5,1.8,0s0.5,1.3,0,1.8l0,0
	l-8.7,8.7C13.1,171.1,12.8,171.2,12.5,171.2z"/>
<path class="st0" d="M12.5,182.5c-0.7,0-1.2-0.5-1.2-1.2c0-0.3,0.1-0.7,0.4-0.9l19.9-19.9c0.5-0.5,1.3-0.5,1.8,0
	c0.5,0.5,0.5,1.3,0,1.8l-20,19.9C13.1,182.4,12.8,182.5,12.5,182.5z"/>
<rect x="52.9" y="292.5" transform="matrix(0.5002 -0.8659 0.8659 0.5002 -225.5459 196.672)" class="st0" width="9.3" height="2.5"/>
<rect x="56.4" y="304.2" transform="matrix(0.866 -0.5 0.5 0.866 -146.6896 70.173)" class="st0" width="2.5" height="9.3"/>
<rect x="66" y="315.1" class="st0" width="9.3" height="2.5"/>
<rect x="79.1" y="307.6" transform="matrix(0.4995 -0.8663 0.8663 0.4995 -225.6159 227.0957)" class="st0" width="9.3" height="2.5"/>
<rect x="82.5" y="289.1" transform="matrix(0.8659 -0.5002 0.5002 0.8659 -135.6567 81.2704)" class="st0" width="2.5" height="9.3"/>
<rect x="66" y="284.9" class="st0" width="9.3" height="2.5"/>
<path class="st0" d="M53.2,306.6c-2.9,0-5.3-2.4-5.3-5.3c0-2.9,2.4-5.3,5.3-5.3c2.9,0,5.3,2.4,5.3,5.3S56.2,306.6,53.2,306.6
	L53.2,306.6z M53.2,298.4c-1.6,0-2.9,1.3-2.9,2.8c0,1.6,1.3,2.9,2.8,2.9c1.6,0,2.9-1.3,2.9-2.8c0,0,0,0,0,0
	C56.1,299.7,54.8,298.4,53.2,298.4C53.2,298.4,53.2,298.4,53.2,298.4z"/>
<path class="st0" d="M62,321.7c-2.9,0-5.3-2.4-5.3-5.3c0-2.9,2.4-5.3,5.3-5.3c2.9,0,5.3,2.4,5.3,5.3c0,0,0,0,0,0
	C67.3,319.3,64.9,321.7,62,321.7z M62,313.6c-1.6,0-2.8,1.3-2.8,2.8c0,1.6,1.3,2.8,2.8,2.8s2.8-1.3,2.8-2.8
	C64.8,314.8,63.5,313.5,62,313.6C62,313.5,62,313.5,62,313.6L62,313.6z"/>
<path class="st0" d="M79.4,321.7c-2.9,0-5.3-2.4-5.3-5.3c0-2.9,2.4-5.3,5.3-5.3c2.9,0,5.3,2.4,5.3,5.3c0,0,0,0,0,0
	C84.7,319.3,82.3,321.7,79.4,321.7z M79.4,313.6c-1.6,0-2.8,1.3-2.8,2.8c0,1.6,1.3,2.8,2.8,2.8s2.8-1.3,2.8-2.8
	C82.2,314.8,80.9,313.5,79.4,313.6C79.4,313.5,79.4,313.5,79.4,313.6L79.4,313.6z"/>
<rect x="92.2" y="300" class="st0" width="9.3" height="2.5"/>
<rect x="105.3" y="292.5" transform="matrix(0.5002 -0.8659 0.8659 0.5002 -199.3848 241.9819)" class="st0" width="9.3" height="2.5"/>
<rect x="108.7" y="274" transform="matrix(0.866 -0.5 0.5 0.866 -124.568 92.2867)" class="st0" width="2.5" height="9.3"/>
<rect x="92.2" y="269.8" class="st0" width="9.3" height="2.5"/>
<path class="st0" d="M105.6,276.4c-2.9,0-5.3-2.4-5.3-5.3c0-2.9,2.4-5.3,5.3-5.3c2.9,0,5.3,2.4,5.3,5.3c0,0,0,0,0,0
	C110.9,274,108.5,276.4,105.6,276.4z M105.6,268.2c-1.6,0-2.8,1.3-2.8,2.8c0,1.6,1.3,2.8,2.8,2.8s2.8-1.3,2.8-2.8
	S107.1,268.2,105.6,268.2L105.6,268.2z"/>
<path class="st0" d="M114.3,291.5c-2.9,0-5.3-2.4-5.3-5.3c0-2.9,2.4-5.3,5.3-5.3c2.9,0,5.3,2.4,5.3,5.3S117.2,291.5,114.3,291.5
	L114.3,291.5z M114.3,283.3c-1.6,0-2.8,1.3-2.8,2.8c0,1.6,1.3,2.8,2.8,2.8s2.8-1.3,2.8-2.8C117.1,284.6,115.8,283.3,114.3,283.3
	C114.3,283.3,114.3,283.3,114.3,283.3L114.3,283.3z"/>
<path class="st0" d="M88.1,306.6c-2.9,0-5.3-2.4-5.3-5.3c0-2.9,2.4-5.3,5.3-5.3c2.9,0,5.3,2.4,5.3,5.3S91.1,306.6,88.1,306.6
	L88.1,306.6z M88.1,298.4c-1.6,0-2.9,1.3-2.9,2.8c0,1.6,1.3,2.9,2.8,2.9c1.6,0,2.9-1.3,2.9-2.8c0,0,0,0,0,0
	C91,299.7,89.7,298.4,88.1,298.4L88.1,298.4z"/>
<path class="st0" d="M105.6,306.6c-2.9,0-5.3-2.4-5.3-5.3c0-2.9,2.4-5.3,5.3-5.3c2.9,0,5.3,2.4,5.3,5.3S108.5,306.6,105.6,306.6
	L105.6,306.6z M105.6,298.4c-1.6,0-2.9,1.3-2.9,2.8c0,1.6,1.3,2.9,2.8,2.9c1.6,0,2.9-1.3,2.9-2.8c0,0,0,0,0,0
	C108.4,299.7,107.1,298.4,105.6,298.4L105.6,298.4z"/>
<rect x="52.9" y="262.3" transform="matrix(0.5002 -0.8659 0.8659 0.5002 -199.3863 181.5719)" class="st0" width="9.3" height="2.5"/>
<rect x="56.3" y="274" transform="matrix(0.866 -0.5 0.5 0.866 -131.5921 66.1209)" class="st0" width="2.5" height="9.3"/>
<rect x="79.1" y="277.4" transform="matrix(0.4998 -0.8661 0.8661 0.4998 -199.4219 211.882)" class="st0" width="9.3" height="2.5"/>
<rect x="82.5" y="258.8" transform="matrix(0.866 -0.5 0.5 0.866 -120.5073 77.1874)" class="st0" width="2.5" height="9.3"/>
<rect x="66" y="254.7" class="st0" width="9.3" height="2.5"/>
<path class="st0" d="M62,261.3c-2.9,0-5.3-2.4-5.3-5.3c0-2.9,2.4-5.3,5.3-5.3c2.9,0,5.3,2.4,5.3,5.3v0
	C67.3,258.9,64.9,261.3,62,261.3z M62,253.1c-1.6,0-2.8,1.3-2.8,2.8c0,1.6,1.3,2.8,2.8,2.8s2.8-1.3,2.8-2.8l0,0
	C64.8,254.4,63.5,253.1,62,253.1z"/>
<path class="st0" d="M79.4,261.3c-2.9,0-5.3-2.4-5.3-5.3c0-2.9,2.4-5.3,5.3-5.3c2.9,0,5.3,2.4,5.3,5.3v0
	C84.7,258.9,82.3,261.3,79.4,261.3z M79.4,253.1c-1.6,0-2.8,1.3-2.8,2.8c0,1.6,1.3,2.8,2.8,2.8s2.8-1.3,2.8-2.8l0,0
	C82.2,254.4,80.9,253.1,79.4,253.1z"/>
<path class="st0" d="M88.1,276.4c-2.9,0-5.3-2.4-5.3-5.3c0-2.9,2.4-5.3,5.3-5.3c2.9,0,5.3,2.4,5.3,5.3c0,0,0,0,0,0
	C93.4,274,91.1,276.4,88.1,276.4C88.1,276.4,88.1,276.4,88.1,276.4z M88.1,268.2c-1.6,0-2.8,1.3-2.8,2.8c0,1.6,1.3,2.8,2.8,2.8
	s2.8-1.3,2.8-2.8S89.7,268.2,88.1,268.2L88.1,268.2z"/>
<path class="st0" d="M53.2,276.4c-2.9,0-5.3-2.4-5.3-5.3c0-2.9,2.4-5.3,5.3-5.3c2.9,0,5.3,2.4,5.3,5.3c0,0,0,0,0,0
	C58.6,274,56.2,276.4,53.2,276.4z M53.2,268.2c-1.6,0-2.8,1.3-2.8,2.8c0,1.6,1.3,2.8,2.8,2.8c1.6,0,2.8-1.3,2.8-2.8
	S54.8,268.2,53.2,268.2C53.2,268.2,53.2,268.2,53.2,268.2z"/>
<path class="st0" d="M62,291.5c-2.9,0-5.3-2.4-5.3-5.3c0-2.9,2.4-5.3,5.3-5.3c2.9,0,5.3,2.4,5.3,5.3S64.9,291.5,62,291.5L62,291.5z
	 M62,283.3c-1.6,0-2.8,1.3-2.8,2.8c0,1.6,1.3,2.8,2.8,2.8s2.8-1.3,2.8-2.8C64.8,284.6,63.5,283.3,62,283.3
	C62,283.3,62,283.3,62,283.3L62,283.3z"/>
<path class="st0" d="M79.4,291.5c-2.9,0-5.3-2.4-5.3-5.3c0-2.9,2.4-5.3,5.3-5.3c2.9,0,5.3,2.4,5.3,5.3S82.3,291.5,79.4,291.5
	L79.4,291.5z M79.4,283.3c-1.6,0-2.8,1.3-2.8,2.8c0,1.6,1.3,2.8,2.8,2.8s2.8-1.3,2.8-2.8C82.2,284.6,80.9,283.3,79.4,283.3
	C79.4,283.3,79.4,283.3,79.4,283.3L79.4,283.3z"/>
<rect x="118.4" y="284.9" class="st0" width="9.3" height="2.5"/>
<rect x="105.3" y="262.3" transform="matrix(0.5002 -0.8659 0.8659 0.5002 -173.2388 226.878)" class="st0" width="9.3" height="2.5"/>
<rect x="52.9" y="322.7" transform="matrix(0.5 -0.866 0.866 0.5 -251.7782 211.8571)" class="st0" width="9.3" height="2.5"/>
<rect x="82.5" y="319.3" transform="matrix(0.8659 -0.5002 0.5002 0.8659 -150.7627 85.3165)" class="st0" width="2.5" height="9.3"/>
<rect x="108.7" y="304.2" transform="matrix(0.866 -0.5 0.5 0.866 -139.67 96.3305)" class="st0" width="2.5" height="9.3"/>
<rect x="39.9" y="300" class="st0" width="9.3" height="2.5"/>
<rect x="39.9" y="269.8" class="st0" width="9.3" height="2.5"/>
<rect x="56.4" y="243.7" transform="matrix(0.866 -0.5 0.5 0.866 -116.4656 62.0799)" class="st0" width="2.5" height="9.3"/>
<rect x="79.1" y="247.2" transform="matrix(0.4995 -0.8663 0.8663 0.4995 -173.2731 196.8661)" class="st0" width="9.3" height="2.5"/>
<path class="st0" d="M246,62.6c-0.1,0-0.2,0-0.3,0l-8.1-2.2c-0.3-0.1-0.6-0.3-0.8-0.6c-0.2-0.3-0.2-0.6-0.1-1l4.3-16
	c0.2-0.7,0.8-1.1,1.5-0.9c0,0,0,0,0,0l8.1,2.2c0.7,0.2,1,0.9,0.9,1.5l-4.3,16C247.1,62.2,246.6,62.6,246,62.6z M239.5,58.3l5.7,1.5
	l3.6-13.6l-5.7-1.5L239.5,58.3z"/>
<path class="st0" d="M319.3,78.3H319l-19.2-4.8c-0.7-0.2-1.1-0.9-0.9-1.5c0,0,0,0,0,0l2.5-9.4c0.2-0.7,0.9-1.1,1.5-0.9c0,0,0,0,0,0
	l19,5.5c0.6,0.2,1,0.9,0.8,1.5l-2.3,8.7C320.3,77.9,319.8,78.3,319.3,78.3z M301.5,71.4l16.8,4.2l1.7-6.3l-16.7-4.8L301.5,71.4z"/>
<path class="st0" d="M323.7,82.4c-0.3,0-0.6-0.1-0.8-0.3l-4.4-4.1c-0.3-0.3-0.5-0.8-0.3-1.2l2.3-8.7c0.1-0.4,0.5-0.8,0.9-0.9
	l5.9-1.3c0.7-0.2,1.3,0.3,1.5,0.9c0,0.2,0,0.4,0,0.6l-3.8,14.1c-0.1,0.4-0.4,0.7-0.9,0.9C323.9,82.3,323.8,82.3,323.7,82.4z
	 M320.7,76.6l2.3,2.2l2.7-10.1l-3.1,0.7L320.7,76.6z"/>
<path class="st0" d="M278.7,82.4c-0.6,0-1.2-0.1-1.8-0.2c-3.7-1-5.9-4.8-4.9-8.4s4.8-5.9,8.4-4.9c3.7,1,5.9,4.8,4.9,8.4c0,0,0,0,0,0
	l0,0c-0.5,1.8-1.6,3.3-3.2,4.2C281.1,82,279.9,82.4,278.7,82.4z M278.7,71c-2.4,0-4.4,2-4.4,4.4c0,2.4,2,4.4,4.4,4.4
	c2,0,3.7-1.3,4.3-3.3l0,0c0.6-2.4-0.8-4.8-3.1-5.4C279.5,71.1,279.1,71,278.7,71L278.7,71z"/>
<path class="st0" d="M277.1,77.6c-0.4,0-0.9-0.2-1.1-0.6c-0.8-1.5-0.2-3.4,1.3-4.2c1.4-0.7,3.2-0.3,4.1,1.1c0.3,0.6,0.1,1.4-0.5,1.7
	c-0.6,0.3-1.4,0.1-1.7-0.5c-0.2-0.3-0.6-0.4-0.9-0.2c-0.3,0.2-0.4,0.6-0.2,0.9c0,0,0,0,0,0c0.3,0.6,0.1,1.4-0.5,1.7
	C277.5,77.6,277.3,77.6,277.1,77.6L277.1,77.6z"/>
<path class="st0" d="M303.2,60.4l-53-14.7c-0.3-0.1-0.7-0.1-1,0.1c-0.3,0.2-0.5,0.4-0.6,0.8l-3.5,12.9c-0.1,0.3,0,0.7,0.1,0.9
	c0.2,0.3,0.4,0.5,0.8,0.6l24.1,6.2l-1.1,4.2c-0.2,0.7,0.2,1.3,0.9,1.5c0,0,0,0,0,0l3.5,1l0.6-2.4l-2.3-0.6l1.1-4.2
	c0.2-0.7-0.2-1.3-0.9-1.5c0,0,0,0,0,0L248,58.9l2.8-10.5l50.6,14.1l-2.5,9.4l-9.1-2.3c-0.7-0.2-1.3,0.2-1.5,0.9l-1.2,4.4l-2.4-0.6
	l-0.6,2.4l3.6,1c0.1,0,0.2,0,0.3,0c0.2,0,0.4-0.1,0.6-0.2c0.3-0.2,0.5-0.4,0.6-0.8l1.2-4.4l9.1,2.3c0.7,0.2,1.3-0.2,1.5-0.9
	l3.2-11.8C304.2,61.3,303.8,60.6,303.2,60.4z"/>
<path class="st0" d="M289.9,64.5c-0.1,0-0.2,0-0.3,0l-36.5-10.2c-0.7-0.2-1-0.9-0.9-1.5c0.2-0.7,0.9-1,1.5-0.9l36.5,10.2
	c0.7,0.2,1.1,0.8,0.9,1.5C291,64.2,290.5,64.5,289.9,64.5L289.9,64.5z"/>
<path class="st0" d="M296.7,66.4c-0.1,0-0.2,0-0.3,0l-1.6-0.5c-0.7-0.2-1-0.9-0.9-1.5c0.2-0.7,0.9-1,1.5-0.9l1.6,0.5
	c0.7,0.2,1.1,0.8,0.9,1.5C297.8,66,297.3,66.4,296.7,66.4L296.7,66.4z"/>
<path class="st0" d="M305.1,130l-20.9-44.8v-6h-2.5v6.3c0,0.2,0,0.4,0.1,0.5l21,45c0.1,0.3,0.1,0.5,0,0.8c-0.1,0.3-0.3,0.5-0.5,0.6
	c-0.5,0.3-1.1,0.1-1.3-0.4c0,0,0,0,0-0.1l-18.9-40.4l-2.2,1l18.9,40.4c0.6,1.2,1.8,2,3.2,2c0.5,0,1-0.1,1.5-0.3
	C305.1,133.8,305.9,131.7,305.1,130C305,129.9,305,129.9,305.1,130L305.1,130z"/>
<path class="st0" d="M275.4,91.5l-18.9,40.4c-0.2,0.5-0.8,0.7-1.3,0.5c0,0,0,0-0.1,0c-0.2-0.1-0.4-0.3-0.5-0.6
	c-0.1-0.3-0.1-0.5,0-0.8l21-45c0.1-0.2,0.1-0.3,0.1-0.5v-6.3h-2.5v6L252.4,130c-0.4,0.8-0.4,1.8-0.1,2.7c0.3,0.9,1,1.6,1.8,2
	c0.5,0.2,1,0.3,1.5,0.3c1.4,0,2.6-0.8,3.2-2l18.9-40.4L275.4,91.5z"/>
<path class="st0" d="M278.7,140.1c-1.9,0-3.5-1.6-3.5-3.5c0,0,0,0,0,0V89.2h2.5v47.4c0,0.6,0.5,1,1,1s1-0.5,1-1V89.2h2.5v47.4
	C282.2,138.6,280.6,140.1,278.7,140.1z"/>
<rect x="332.7" y="152.8" class="st0" width="7.7" height="2.5"/>
<rect x="343.2" y="152.8" class="st0" width="3.5" height="2.5"/>
<rect x="322.2" y="197.8" class="st0" width="35.1" height="2.5"/>
<path class="st0" d="M363.6,231.9h-47.7c-4.5,0-8.2-3.7-8.2-8.2c0-1.4,0.4-2.8,1.1-4.1l21.4-36.9c0.8-1.4,1.2-3,1.2-4.6v-23
	c-2-0.6-3.2-2.7-2.7-4.7c0.5-1.6,2-2.8,3.7-2.8H347c2.1,0,3.8,1.7,3.8,3.9c0,1.7-1.2,3.2-2.8,3.7v23c0,1.6,0.4,3.2,1.2,4.6
	l21.4,36.9l0,0c2.3,3.9,0.9,8.9-2.9,11.1C366.4,231.4,365,231.8,363.6,231.9L363.6,231.9z M332.5,150.2c-0.7,0-1.3,0.6-1.3,1.3
	c0,0.7,0.6,1.3,1.3,1.3h0.2c0.7,0,1.2,0.6,1.2,1.2v24.1c0,2-0.5,4.1-1.6,5.8L311,220.9c-1.6,2.7-0.6,6.2,2.1,7.8
	c0.9,0.5,1.8,0.8,2.8,0.8h47.7c3.1,0,5.7-2.6,5.7-5.7c0-1-0.3-2-0.8-2.8L347.1,184c-1-1.8-1.6-3.8-1.6-5.8v-24.1
	c0-0.7,0.6-1.2,1.2-1.2h0.2c0.7,0,1.3-0.6,1.3-1.3s-0.6-1.3-1.3-1.3c0,0,0,0,0,0H332.5z"/>
<rect x="341" y="224.1" class="st0" width="2.8" height="2.5"/>
<path class="st0" d="M363.6,226.6h-16.8v-2.5h16.8c0.1,0,0.3-0.1,0.3-0.2c0.1-0.1,0.1-0.3,0-0.4l-9-15.5l2.2-1.2l9,15.5
	c0.8,1.4,0.3,3.1-1.1,3.9C364.6,226.4,364.1,226.6,363.6,226.6L363.6,226.6z"/>
<path class="st0" d="M331.4,195.1c-0.2,0-0.4-0.1-0.6-0.2c-0.6-0.3-0.8-1.1-0.5-1.7c0,0,0,0,0,0l4.5-7.8c1.3-2.2,2-4.7,2-7.2v-9.7
	c-0.1-0.7,0.4-1.3,1.1-1.4c0.7-0.1,1.3,0.4,1.4,1.1c0,0.1,0,0.1,0,0.2v9.7c0,3-0.8,5.9-2.3,8.5l-4.5,7.8
	C332.2,194.8,331.8,195.1,331.4,195.1z"/>
<path class="st0" d="M184.6,13.8c-0.7,0-1.2-0.6-1.2-1.2V1.4c0-0.7,0.6-1.2,1.2-1.2c0.7,0,1.2,0.6,1.2,1.2l0,0v11.1
	C185.9,13.2,185.3,13.8,184.6,13.8z"/>
<path class="st0" d="M172,17.2c-0.4,0-0.9-0.2-1.1-0.6l-5.5-9.6c-0.3-0.6-0.1-1.4,0.5-1.7c0.6-0.3,1.3-0.1,1.7,0.4c0,0,0,0,0,0
	l5.6,9.6c0.3,0.6,0.1,1.4-0.5,1.7C172.4,17.1,172.2,17.2,172,17.2z"/>
<path class="st0" d="M162.7,26.5c-0.2,0-0.4-0.1-0.6-0.2l-9.6-5.6c-0.6-0.3-0.8-1.1-0.5-1.7c0.3-0.6,1.1-0.8,1.7-0.5c0,0,0,0,0,0
	l9.6,5.6c0.6,0.3,0.8,1.1,0.5,1.7C163.6,26.2,163.1,26.4,162.7,26.5L162.7,26.5z"/>
<path class="st0" d="M159.3,39.1h-11.1c-0.7,0-1.2-0.6-1.2-1.2c0-0.7,0.6-1.2,1.2-1.2l0,0h11.1c0.7,0,1.2,0.6,1.2,1.2
	C160.5,38.6,160,39.1,159.3,39.1z"/>
<path class="st0" d="M153,57.4c-0.7,0-1.2-0.6-1.2-1.2c0-0.4,0.2-0.9,0.6-1.1l9.6-5.6c0.6-0.3,1.4-0.1,1.7,0.5
	c0.3,0.6,0.1,1.4-0.5,1.7l0,0l-9.6,5.6C153.5,57.3,153.3,57.4,153,57.4z"/>
<path class="st0" d="M216.2,57.4c-0.2,0-0.4-0.1-0.6-0.2l-9.6-5.6c-0.6-0.3-0.8-1.1-0.5-1.7c0.3-0.6,1.1-0.8,1.7-0.5l0,0l9.6,5.6
	c0.6,0.3,0.8,1.1,0.4,1.7C217.1,57.1,216.7,57.4,216.2,57.4z"/>
<path class="st0" d="M221.1,39.1H210c-0.7,0-1.2-0.6-1.2-1.2c0-0.7,0.6-1.2,1.2-1.2h11.1c0.7,0,1.2,0.6,1.2,1.2
	C222.4,38.6,221.8,39.1,221.1,39.1L221.1,39.1z"/>
<path class="st0" d="M206.6,26.5c-0.7,0-1.2-0.5-1.3-1.2c0-0.5,0.2-0.9,0.6-1.1l9.6-5.6c0.6-0.3,1.4-0.1,1.7,0.5
	c0.3,0.6,0.1,1.4-0.5,1.7l0,0l-9.6,5.6C207,26.4,206.8,26.5,206.6,26.5z"/>
<path class="st0" d="M197.4,17.2c-0.2,0-0.4-0.1-0.6-0.2c-0.6-0.3-0.8-1.1-0.5-1.7c0,0,0,0,0,0l5.6-9.6c0.3-0.6,1.1-0.8,1.7-0.5
	c0.6,0.3,0.8,1.1,0.5,1.7l-5.6,9.6C198.1,16.9,197.8,17.2,197.4,17.2z"/>
<path class="st0" d="M192.1,68.4h-15c-2.1,0-3.8-1.7-3.8-3.8v-4.2c0-2.6-1.1-5.1-3-6.8c-8.8-7.7-9.6-21.1-1.9-29.8
	s21.1-9.6,29.8-1.9c0.4,0.3,0.7,0.7,1.1,1c4.1,4,6.4,9.4,6.4,15.1c0,5.9-2.5,11.6-6.8,15.6c-1.9,1.8-3,4.2-3,6.8v4.2
	C195.8,66.6,194.2,68.3,192.1,68.4z M184.6,19.2h-0.5c-10.3,0.2-18.5,8.7-18.3,19c0.1,5.1,2.3,10,6.1,13.4c2.4,2.2,3.8,5.4,3.8,8.6
	v4.2c0,0.7,0.6,1.3,1.4,1.3h15c0.7,0,1.3-0.6,1.3-1.3v-4.2c0-3.3,1.4-6.4,3.8-8.6c3.8-3.5,6-8.5,6-13.7
	C203.3,27.6,195,19.3,184.6,19.2C184.7,19.3,184.6,19.3,184.6,19.2L184.6,19.2z"/>
<path class="st0" d="M171.5,32.8c-0.2,0-0.4,0-0.5-0.1c-0.6-0.3-0.9-1-0.6-1.7c2.6-5.4,7.9-8.8,13.9-9c0.7,0,1.2,0.6,1.2,1.3
	c0,0.6-0.5,1.1-1.1,1.2c-5,0.1-9.5,3.1-11.7,7.6C172.4,32.5,172,32.8,171.5,32.8z"/>
<path class="st0" d="M170,39.2c-0.7,0-1.2-0.6-1.2-1.2c0-0.6,0-1.2,0.1-1.9c0.1-0.7,0.7-1.2,1.4-1.1s1.2,0.7,1.1,1.4
	c-0.1,0.5-0.1,1-0.1,1.6C171.3,38.6,170.7,39.2,170,39.2C170,39.2,170,39.2,170,39.2L170,39.2z"/>
<path class="st0" d="M192.8,71.9h-16.3c-0.7,0-1.2-0.6-1.2-1.2c0-0.7,0.6-1.2,1.2-1.2h16.3c0.7,0,1.2,0.6,1.2,1.2
	C194,71.3,193.4,71.9,192.8,71.9z"/>
<path class="st0" d="M192.8,75.4h-16.3c-0.7-0.1-1.2-0.7-1.1-1.4c0.1-0.6,0.5-1.1,1.1-1.1h16.3c0.7,0.1,1.2,0.7,1.1,1.4
	C193.8,74.8,193.4,75.3,192.8,75.4z"/>
<path class="st0" d="M192.8,78.9h-16.3c-0.7,0-1.2-0.6-1.2-1.2c0-0.7,0.6-1.2,1.2-1.2h16.3c0.7,0,1.2,0.6,1.2,1.2
	C194,78.3,193.4,78.9,192.8,78.9z"/>
<path class="st0" d="M185.8,83.6h-2.4c-2.1,0-3.9-1.7-3.9-3.9h2.5c0,0.8,0.6,1.4,1.4,1.4h2.4c0.8,0,1.4-0.6,1.4-1.4h2.5
	C189.7,81.8,188,83.6,185.8,83.6L185.8,83.6z"/>
<path class="st0" d="M186.4,51.3h-2.7v-2.2c0-0.8,0.1-1.6,0.4-2.4c0.4-0.8,1-1.5,1.6-2.1l1.3-1.3c0.5-0.4,0.9-0.9,1.2-1.5
	c0.2-0.4,0.3-0.9,0.3-1.3c0-0.8-0.3-1.5-0.9-2c-0.7-0.6-1.6-0.8-2.5-0.8c-0.8,0-1.6,0.2-2.4,0.5c-0.9,0.4-1.8,0.9-2.7,1.5v-2.7
	c0.8-0.5,1.8-0.9,2.7-1.2c0.9-0.3,1.9-0.4,2.8-0.4c1.5-0.1,3,0.4,4.2,1.4c1.1,0.9,1.6,2.3,1.6,3.7c0,0.7-0.2,1.4-0.5,2
	c-0.5,0.8-1.1,1.6-1.8,2.2l-1.3,1.2c-0.5,0.4-0.9,1-1.3,1.5c-0.2,0.5-0.3,1-0.3,1.5L186.4,51.3L186.4,51.3z M183.5,53.3h2.9V57h-2.9
	V53.3z"/>
<path class="st0" d="M110.5,118.3H78.5v2.5h31.9c0.7,0,1.2-0.6,1.2-1.2C111.7,118.9,111.1,118.3,110.5,118.3z"/>
<path class="st0" d="M66.9,120.8h-5c-4.8,0-8.7-3.9-8.7-8.7V56.7c0-4.8,3.9-8.7,8.7-8.7h48.5c0.7,0,1.2,0.6,1.2,1.2v55.4
	c0,0.7-0.6,1.2-1.2,1.2H62c-3.4-0.1-6.4,2.5-6.5,6c-0.1,3.4,2.5,6.4,6,6.5c0.2,0,0.3,0,0.5,0h5L66.9,120.8z M61.9,50.5
	c-3.4,0-6.2,2.8-6.2,6.2V106c1.6-1.7,3.9-2.6,6.2-2.6h47.3V50.5H61.9z"/>
<path class="st0" d="M106.4,99.9h-2.5v-2.6h2.5V99.9z M106.4,94.1h-2.5V80.6h2.5V94.1z"/>
<rect x="61.7" y="110.9" class="st0" width="22.1" height="2.5"/>
<path class="st0" d="M78.5,125.8c-0.3,0-0.5-0.1-0.8-0.3l-5-3.9l-5,3.9c-0.5,0.4-1.3,0.3-1.7-0.2c-0.2-0.2-0.3-0.5-0.3-0.8v-12.5
	c0-0.7,0.6-1.2,1.2-1.2h11.6c0.7,0,1.2,0.6,1.2,1.2v12.5c0,0.5-0.3,0.9-0.7,1.1C78.9,125.8,78.7,125.8,78.5,125.8z M68.2,113.3v8.7
	l3.8-2.9c0.4-0.4,1.1-0.4,1.5,0l3.8,2.9v-8.7H68.2z"/>
<rect x="107" y="104.6" class="st0" width="2.5" height="15"/>
<rect x="60.7" y="49.2" class="st0" width="2.5" height="43.8"/>
<rect x="60.7" y="98.6" class="st0" width="2.5" height="6"/>
<path class="st0" d="M67.2,76.5c-0.7,0-1.2-0.6-1.2-1.2V54.5c0-0.7,0.6-1.2,1.2-1.2h13.7c0.7,0.1,1.2,0.7,1.1,1.4
	c-0.1,0.6-0.5,1.1-1.1,1.1H68.5v19.5C68.5,76,67.9,76.5,67.2,76.5z"/>
<g>
	<g>
		<g>
			<rect x="149.7" y="234.3" class="st0" width="72.5" height="2.5"/>
		</g>
	</g>
	<g>
		<g>
			<path class="st0" d="M204,231.3h-24.2c-0.7,0-1.2-0.6-1.2-1.2v-15.9c0-4.7,3.8-8.6,8.6-8.6c3.2,0,6.1,1.7,7.6,4.5l10.4,19.4
				c0.2,0.4,0.2,0.8,0,1.2C204.8,231.1,204.4,231.3,204,231.3z M181.1,228.8h20.9l-9.4-17.5c-1.1-2-3.1-3.2-5.4-3.2
				c-3.4,0-6.1,2.7-6.1,6.1V228.8z"/>
		</g>
	</g>
	<g>
		<g>
			<path class="st0" d="M187.1,218.6c-2.4,0-4.4-2-4.4-4.4c0-2.4,2-4.4,4.4-4.4s4.4,2,4.4,4.4C191.5,216.6,189.6,218.6,187.1,218.6z
				 M187.1,212.3c-1,0-1.9,0.8-1.9,1.9c0,1,0.8,1.9,1.9,1.9c1,0,1.9-0.8,1.9-1.9C189,213.2,188.2,212.3,187.1,212.3z"/>
		</g>
	</g>
	<g>
		<g>
			<path class="st0" d="M197.1,217.4l-1.1-2.2c8.9-4.3,14.6-13.5,14.6-23.3c0-5.8-1.9-11.3-5.5-15.9l2-1.5c3.9,5,6,11.1,6,17.4
				C213.2,202.6,206.9,212.7,197.1,217.4z"/>
		</g>
	</g>
	<g>
		<g>
			<path class="st0" d="M193.2,210.5l-1-2.3c6.4-2.9,10.6-9.3,10.6-16.3c0-3.2-0.9-6.3-2.5-9.1l2.1-1.3c1.8,3.1,2.8,6.7,2.8,10.3
				C205.2,199.9,200.5,207.2,193.2,210.5z"/>
		</g>
	</g>
	<g>
		<g>
			<path class="st0" d="M179.8,219.4h-21.2c-0.7,0-1.2-0.6-1.2-1.2v-4.4c0-0.7,0.6-1.2,1.2-1.2h21.2c0.7,0,1.2,0.6,1.2,1.2v4.4
				C181.1,218.8,180.5,219.4,179.8,219.4z M159.8,216.9h18.7V215h-18.7V216.9z"/>
		</g>
	</g>
	<g>
		<g>
			<path class="st0" d="M174.2,215h-10.1c-0.7,0-1.2-0.6-1.2-1.2V210c0-0.7,0.6-1.2,1.2-1.2h10.1c0.7,0,1.2,0.6,1.2,1.2v3.7
				C175.5,214.4,174.9,215,174.2,215z M165.4,212.5h7.6v-1.2h-7.6V212.5z"/>
		</g>
	</g>
	<g>
		<g>
			<rect x="195.2" y="223.6" class="st0" width="6" height="2.5"/>
		</g>
	</g>
	<g>
		<g>
			<rect x="179.8" y="223.6" class="st0" width="11.7" height="2.5"/>
		</g>
	</g>
	<g>
		<g>
			<g>
				<path class="st0" d="M184.3,192c-0.3,0-0.5-0.1-0.7-0.2l-10.6-7.4c-0.3-0.2-0.5-0.5-0.5-0.8c-0.1-0.3,0-0.7,0.2-0.9l21.1-30.1
					c0.4-0.6,1.2-0.7,1.7-0.3l10.6,7.4c0.6,0.4,0.7,1.2,0.3,1.7l-5.8,8.2l-2-1.4l5.1-7.2l-8.5-6l-19.7,28.1l8.5,6l9.8-14l2,1.4
					l-10.5,15.1c-0.2,0.3-0.5,0.5-0.8,0.5C184.5,192,184.4,192,184.3,192z"/>
			</g>
		</g>
		<g>
			<g>
				<path class="st0" d="M180.8,183.4c-0.2,0-0.5-0.1-0.7-0.2c-0.6-0.4-0.7-1.2-0.3-1.7l11.6-16.5c0.4-0.6,1.2-0.7,1.7-0.3
					c0.6,0.4,0.7,1.2,0.3,1.7l-11.6,16.5C181.5,183.2,181.2,183.4,180.8,183.4z M195.2,162.8c-0.2,0-0.5-0.1-0.7-0.2
					c-0.6-0.4-0.7-1.2-0.3-1.7l0.9-1.2c0.4-0.6,1.2-0.7,1.7-0.3c0.6,0.4,0.7,1.2,0.3,1.7l-0.9,1.2
					C196,162.6,195.6,162.8,195.2,162.8z"/>
			</g>
		</g>
		<g>
			<g>
				<path class="st0" d="M177.5,197c-0.2,0-0.5-0.1-0.7-0.2l-6.1-4.3c-0.3-0.2-0.5-0.5-0.5-0.8c-0.1-0.3,0-0.7,0.2-0.9l4.6-6.6
					c0.2-0.3,0.5-0.5,0.8-0.5c0.3-0.1,0.7,0,0.9,0.2l6.1,4.3c0.6,0.4,0.7,1.2,0.3,1.7l-4.6,6.6C178.2,196.8,177.9,197,177.5,197z
					 M173.1,191.2l4,2.8l3.2-4.5l-4-2.8L173.1,191.2z"/>
			</g>
		</g>
		<g>
			<g>
				<path class="st0" d="M203.1,160.4c-0.3,0-0.5-0.1-0.7-0.2l-6.1-4.3c-0.6-0.4-0.7-1.2-0.3-1.7l7.6-10.8c0.2-0.3,0.5-0.5,0.8-0.5
					c0.3-0.1,0.7,0,0.9,0.2l6.1,4.3c0.6,0.4,0.7,1.2,0.3,1.7l-7.6,10.8c-0.2,0.3-0.5,0.5-0.8,0.5
					C203.3,160.3,203.2,160.4,203.1,160.4z M198.8,154.6l4,2.8l6.1-8.8l-4-2.8L198.8,154.6z"/>
			</g>
		</g>
		<g>
			<g>
				<path class="st0" d="M213,151.1c-0.2,0-0.5-0.1-0.7-0.2l-10.6-7.4c-0.6-0.4-0.7-1.2-0.3-1.7c0.4-0.6,1.2-0.7,1.7-0.3l10.6,7.4
					c0.6,0.4,0.7,1.2,0.3,1.7C213.7,150.9,213.4,151.1,213,151.1z"/>
			</g>
		</g>
		<g>
			<g>
				<path class="st0" d="M197.9,178.3c-3,0-5.5-2.5-5.5-5.5s2.5-5.5,5.5-5.5s5.5,2.5,5.5,5.5S200.9,178.3,197.9,178.3z M197.9,169.8
					c-1.7,0-3,1.3-3,3c0,1.7,1.3,3,3,3c1.7,0,3-1.3,3-3C200.9,171.2,199.6,169.8,197.9,169.8z"/>
			</g>
		</g>
		<g>
			<g>
				<path class="st0" d="M198.8,187c-0.3,0-0.5-0.1-0.7-0.2l-7.3-5.1c-0.6-0.4-0.7-1.2-0.3-1.7l3.4-4.9l2,1.4l-2.7,3.9l5.3,3.7
					l10.2-14.5l-5.3-3.7l-2.7,3.8l-2-1.4l3.4-4.9c0.2-0.3,0.5-0.5,0.8-0.5c0.3-0.1,0.7,0,0.9,0.2l7.3,5.1c0.3,0.2,0.5,0.5,0.5,0.8
					c0.1,0.3,0,0.7-0.2,0.9l-11.6,16.5c-0.2,0.3-0.5,0.5-0.8,0.5C198.9,187,198.8,187,198.8,187z"/>
			</g>
		</g>
	</g>
	<g>
		<g>
			<path class="st0" d="M213.3,236.8h-54.7c-0.7,0-1.2-0.6-1.2-1.2v-5.4c0-0.7,0.6-1.2,1.2-1.2h54.7c0.7,0,1.2,0.6,1.2,1.2v5.4
				C214.5,236.2,214,236.8,213.3,236.8z M159.8,234.3H212v-3h-52.2V234.3z"/>
		</g>
	</g>
</g>
</svg>
