<svg id="Layer_1" data-name="Layer 1" xmlns="http://www.w3.org/2000/svg" viewBox="0 0 261.35 215.12"><defs><style>.cls-1{fill:#232323;}</style></defs><path class="cls-1" d="M16.81,215.12h-13A1.24,1.24,0,0,1,2.56,214c-.66-5,1.52-10.16,3.62-15.18l.57-1.37,2.29,1c-.18.45-.37.91-.57,1.37-1.81,4.32-3.68,8.79-3.54,12.82H15.67c.15-4-1.72-8.5-3.54-12.82l-.57-1.37,2.3-.95c.18.45.37.9.56,1.36,2.11,5,4.28,10.22,3.62,15.18A1.23,1.23,0,0,1,16.81,215.12Z"/><path class="cls-1" d="M50.67,194.26a3.75,3.75,0,0,1-1.43-.28l-47-19.63a3.71,3.71,0,0,1,0-6.85l47-19.63a3.76,3.76,0,0,1,2.87,0l47,19.63a3.71,3.71,0,0,1,0,6.85L52.11,194A3.77,3.77,0,0,1,50.67,194.26Zm0-44.19a1.27,1.27,0,0,0-.47.09l-47,19.63a1.23,1.23,0,0,0,0,2.27l47,19.62a1.21,1.21,0,0,0,.95,0l47-19.62a1.23,1.23,0,0,0,0-2.27l-47-19.63A1.28,1.28,0,0,0,50.67,150.07Z"/><path class="cls-1" d="M11,172.17a1.25,1.25,0,0,1-.48-2.39L50.2,153.19a1.24,1.24,0,0,1,.95,2.3L11.47,172.07A1.18,1.18,0,0,1,11,172.17Z"/><path class="cls-1" d="M51.9,169.64a1.24,1.24,0,0,0-1.42-1L10.1,175.13a1.25,1.25,0,0,0-1,1.23v15.39h2.48V177.41l39.33-6.35A1.24,1.24,0,0,0,51.9,169.64Z"/><path class="cls-1" d="M50.67,213.51c-17.56,0-31.31-7-31.31-16V180.66h2.48V197.5C21.84,204.83,35,211,50.67,211s28.84-6.2,28.84-13.53V180.66H82V197.5C82,206.48,68.24,213.51,50.67,213.51Z"/><path class="cls-1" d="M58,207.75l-.33-2.46a37.37,37.37,0,0,0,11.37-3.2c3.35-1.65,5.16-3.59,5.16-4.59V187.25h2.49V197.5c0,2.25-2.45,4.8-6.56,6.82A39.9,39.9,0,0,1,58,207.75Z"/><path class="cls-1" d="M50.67,208.23v-2.48c.95,0,1.9,0,2.84-.07l.13,2.48C52.66,208.21,51.66,208.23,50.67,208.23Z"/><path class="cls-1" d="M10.3,200.14a4.82,4.82,0,1,1,4.82-4.81A4.82,4.82,0,0,1,10.3,200.14Zm0-7.15a2.34,2.34,0,1,0,2.33,2.34A2.34,2.34,0,0,0,10.3,193Z"/><rect class="cls-1" x="9.06" y="206.99" width="2.48" height="6.89"/><path class="cls-1" d="M256.8,23.45H170.3a1.24,1.24,0,0,1-.54-2.35L213,.12a1.27,1.27,0,0,1,1.08,0l43.25,21a1.24,1.24,0,0,1-.54,2.35ZM175.7,21h75.69L213.55,2.62Z"/><path class="cls-1" d="M200.66,15a1.24,1.24,0,0,1-.55-2.36L213,6.35a1.24,1.24,0,1,1,1.08,2.23L201.2,14.83A1.16,1.16,0,0,1,200.66,15Z"/><path class="cls-1" d="M194.68,17.86a1.24,1.24,0,0,1-.55-2.36l1.32-.64a1.24,1.24,0,1,1,1.09,2.23l-1.32.64A1.19,1.19,0,0,1,194.68,17.86Z"/><path class="cls-1" d="M250.29,31.9H176.8a1.24,1.24,0,0,1-1.24-1.24V22.21A1.24,1.24,0,0,1,176.8,21h73.49a1.25,1.25,0,0,1,1.25,1.24v8.45A1.25,1.25,0,0,1,250.29,31.9ZM178,29.42h71v-6H178Z"/><path class="cls-1" d="M194.83,36.46H190.1V34h3.49V31.9H181V34h6.29v2.48h-7.53a1.23,1.23,0,0,1-1.24-1.24V30.66a1.23,1.23,0,0,1,1.24-1.24h15.06a1.23,1.23,0,0,1,1.24,1.24v4.56A1.23,1.23,0,0,1,194.83,36.46Z"/><path class="cls-1" d="M193.19,41H190.1V38.55H192V36.46H190.1V34h3.09a1.25,1.25,0,0,1,1.24,1.24v4.57A1.25,1.25,0,0,1,193.19,41Z"/><path class="cls-1" d="M187.3,41h-5.88a1.25,1.25,0,0,1-1.25-1.24V35.22A1.25,1.25,0,0,1,181.42,34h5.88v2.48h-4.64v2.09h4.64Z"/><path class="cls-1" d="M194.83,81.88H179.77a1.23,1.23,0,0,1-1.24-1.24V76.08a1.23,1.23,0,0,1,1.24-1.24h7.53v2.48H181V79.4h12.58V77.32H190.1V74.84h4.73a1.23,1.23,0,0,1,1.24,1.24v4.56A1.23,1.23,0,0,1,194.83,81.88Z"/><path class="cls-1" d="M193.19,77.32H190.1V74.84H192V72.75H190.1V70.27h3.09a1.25,1.25,0,0,1,1.24,1.24v4.57A1.25,1.25,0,0,1,193.19,77.32Z"/><path class="cls-1" d="M187.3,77.32h-5.88a1.25,1.25,0,0,1-1.25-1.24V71.51a1.25,1.25,0,0,1,1.25-1.24h5.88v2.48h-4.64v2.09h4.64Z"/><path class="cls-1" d="M187.3,72.75h-4.79a1.23,1.23,0,0,1-1.24-1.24V39.79a1.23,1.23,0,0,1,1.24-1.24h4.79V41h-3.55V70.27h3.55Z"/><path class="cls-1" d="M192.09,72.75h-2V70.27h.75V41h-.75V38.55h2a1.24,1.24,0,0,1,1.25,1.24V71.51A1.24,1.24,0,0,1,192.09,72.75Z"/><path class="cls-1" d="M221.08,36.46h-4.73V34h3.49V31.9H207.26V34h6.29v2.48H206a1.23,1.23,0,0,1-1.24-1.24V30.66A1.23,1.23,0,0,1,206,29.42h15.06a1.23,1.23,0,0,1,1.24,1.24v4.56A1.23,1.23,0,0,1,221.08,36.46Z"/><path class="cls-1" d="M219.43,41h-3.08V38.55h1.84V36.46h-1.84V34h3.08a1.25,1.25,0,0,1,1.25,1.24v4.57A1.25,1.25,0,0,1,219.43,41Z"/><path class="cls-1" d="M213.55,41h-5.89a1.25,1.25,0,0,1-1.24-1.24V35.22A1.25,1.25,0,0,1,207.66,34h5.89v2.48H208.9v2.09h4.65Z"/><path class="cls-1" d="M221.08,81.88H206a1.23,1.23,0,0,1-1.24-1.24V76.08A1.23,1.23,0,0,1,206,74.84h7.53v2.48h-6.29V79.4h12.58V77.32h-3.49V74.84h4.73a1.23,1.23,0,0,1,1.24,1.24v4.56A1.23,1.23,0,0,1,221.08,81.88Z"/><path class="cls-1" d="M219.43,77.32h-3.08V74.84h1.84V72.75h-1.84V70.27h3.08a1.25,1.25,0,0,1,1.25,1.24v4.57A1.25,1.25,0,0,1,219.43,77.32Z"/><path class="cls-1" d="M213.55,77.32h-5.89a1.25,1.25,0,0,1-1.24-1.24V71.51a1.25,1.25,0,0,1,1.24-1.24h5.89v2.48H208.9v2.09h4.65Z"/><path class="cls-1" d="M213.55,72.75h-4.79a1.24,1.24,0,0,1-1.25-1.24V39.79a1.24,1.24,0,0,1,1.25-1.24h4.79V41H210V70.27h3.55Z"/><path class="cls-1" d="M218.34,72.75h-2V70.27h.75V41h-.75V38.55h2a1.23,1.23,0,0,1,1.24,1.24V71.51A1.23,1.23,0,0,1,218.34,72.75Z"/><path class="cls-1" d="M247.33,36.46h-4.74V34h3.5V31.9H233.51V34h6.28v2.48h-7.53A1.24,1.24,0,0,1,231,35.22V30.66a1.24,1.24,0,0,1,1.24-1.24h15.07a1.24,1.24,0,0,1,1.24,1.24v4.56A1.24,1.24,0,0,1,247.33,36.46Z"/><path class="cls-1" d="M245.68,41h-3.09V38.55h1.85V36.46h-1.85V34h3.09a1.24,1.24,0,0,1,1.24,1.24v4.57A1.24,1.24,0,0,1,245.68,41Z"/><path class="cls-1" d="M239.8,41h-5.89a1.24,1.24,0,0,1-1.24-1.24V35.22A1.24,1.24,0,0,1,233.91,34h5.89v2.48h-4.65v2.09h4.65Z"/><path class="cls-1" d="M247.33,81.88H232.26A1.24,1.24,0,0,1,231,80.64V76.08a1.24,1.24,0,0,1,1.24-1.24h7.53v2.48h-6.28V79.4h12.58V77.32h-3.5V74.84h4.74a1.24,1.24,0,0,1,1.24,1.24v4.56A1.24,1.24,0,0,1,247.33,81.88Z"/><path class="cls-1" d="M245.68,77.32h-3.09V74.84h1.85V72.75h-1.85V70.27h3.09a1.24,1.24,0,0,1,1.24,1.24v4.57A1.24,1.24,0,0,1,245.68,77.32Z"/><path class="cls-1" d="M239.8,77.32h-5.89a1.24,1.24,0,0,1-1.24-1.24V71.51a1.24,1.24,0,0,1,1.24-1.24h5.89v2.48h-4.65v2.09h4.65Z"/><path class="cls-1" d="M239.8,72.75H235a1.24,1.24,0,0,1-1.24-1.24V39.79A1.24,1.24,0,0,1,235,38.55h4.8V41h-3.56V70.27h3.56Z"/><path class="cls-1" d="M244.59,72.75h-2V70.27h.76V41h-.76V38.55h2a1.23,1.23,0,0,1,1.24,1.24V71.51A1.23,1.23,0,0,1,244.59,72.75Z"/><path class="cls-1" d="M251.21,87.36H175.89a1.23,1.23,0,0,1-1.24-1.24V80.64a1.24,1.24,0,0,1,1.24-1.24h75.32a1.25,1.25,0,0,1,1.24,1.24v5.48A1.24,1.24,0,0,1,251.21,87.36Zm-74.08-2.48H250v-3H177.13Z"/><path class="cls-1" d="M256.8,92.84H170.3a1.25,1.25,0,0,1-1.25-1.24V86.12a1.24,1.24,0,0,1,1.25-1.24h86.5A1.23,1.23,0,0,1,258,86.12V91.6A1.24,1.24,0,0,1,256.8,92.84Zm-85.26-2.48h84v-3h-84Z"/><path class="cls-1" d="M260.11,98.32H167a1.24,1.24,0,0,1-1.24-1.24V91.6A1.23,1.23,0,0,1,167,90.36h93.12a1.24,1.24,0,0,1,1.24,1.24v5.48A1.25,1.25,0,0,1,260.11,98.32Zm-91.88-2.49h90.64v-3H168.23Z"/><path class="cls-1" d="M151.34,50.44a1.26,1.26,0,0,1,.38-.9,1.27,1.27,0,0,1,.9-.38,1.3,1.3,0,0,1,.91.38,1.32,1.32,0,0,1,0,1.81,1.3,1.3,0,0,1-.91.38,1.27,1.27,0,0,1-.9-.38A1.3,1.3,0,0,1,151.34,50.44Z"/><path class="cls-1" d="M55.86,49.16a1.28,1.28,0,0,1,1.28,1.28h0a1.28,1.28,0,0,1-1.28,1.29h0a1.29,1.29,0,0,1-1.29-1.29h0A1.28,1.28,0,0,1,55.86,49.16Zm6.45,0a1.28,1.28,0,0,1,1.29,1.28h0a1.29,1.29,0,0,1-1.29,1.29h0A1.29,1.29,0,0,1,61,50.44h0A1.28,1.28,0,0,1,62.31,49.16Zm6.45,0a1.28,1.28,0,0,1,1.29,1.28h0a1.29,1.29,0,0,1-1.29,1.29h0a1.28,1.28,0,0,1-1.28-1.29h0A1.28,1.28,0,0,1,68.76,49.16Zm6.45,0a1.28,1.28,0,0,1,1.29,1.28h0a1.29,1.29,0,0,1-1.29,1.29h0a1.28,1.28,0,0,1-1.28-1.29h0A1.28,1.28,0,0,1,75.21,49.16Zm6.45,0A1.28,1.28,0,0,1,83,50.44h0a1.29,1.29,0,0,1-1.29,1.29h0a1.28,1.28,0,0,1-1.28-1.29h0A1.28,1.28,0,0,1,81.66,49.16Zm6.45,0a1.28,1.28,0,0,1,1.29,1.28h0a1.29,1.29,0,0,1-1.29,1.29h0a1.29,1.29,0,0,1-1.28-1.29h0A1.28,1.28,0,0,1,88.11,49.16Zm6.45,0a1.28,1.28,0,0,1,1.29,1.28h0a1.29,1.29,0,0,1-1.29,1.29h0a1.28,1.28,0,0,1-1.28-1.29h0A1.28,1.28,0,0,1,94.56,49.16Zm6.46,0a1.28,1.28,0,0,1,1.28,1.28h0A1.28,1.28,0,0,1,101,51.73h0a1.29,1.29,0,0,1-1.29-1.29h0A1.28,1.28,0,0,1,101,49.16Zm6.45,0a1.28,1.28,0,0,1,1.28,1.28h0a1.28,1.28,0,0,1-1.28,1.29h0a1.29,1.29,0,0,1-1.29-1.29h0A1.28,1.28,0,0,1,107.47,49.16Zm6.45,0a1.28,1.28,0,0,1,1.28,1.28h0a1.28,1.28,0,0,1-1.28,1.29h0a1.28,1.28,0,0,1-1.28-1.29h0A1.28,1.28,0,0,1,113.92,49.16Zm6.45,0a1.28,1.28,0,0,1,1.28,1.28h0a1.28,1.28,0,0,1-1.28,1.29h0a1.29,1.29,0,0,1-1.29-1.29h0A1.28,1.28,0,0,1,120.37,49.16Zm6.45,0a1.28,1.28,0,0,1,1.28,1.28h0a1.28,1.28,0,0,1-1.28,1.29h0a1.29,1.29,0,0,1-1.29-1.29h0A1.28,1.28,0,0,1,126.82,49.16Zm6.45,0a1.28,1.28,0,0,1,1.29,1.28h0a1.29,1.29,0,0,1-1.29,1.29h0A1.28,1.28,0,0,1,132,50.44h0A1.28,1.28,0,0,1,133.27,49.16Zm6.45,0A1.28,1.28,0,0,1,141,50.44h0a1.29,1.29,0,0,1-1.29,1.29h0a1.28,1.28,0,0,1-1.28-1.29h0A1.28,1.28,0,0,1,139.72,49.16Zm6.45,0a1.28,1.28,0,0,1,1.29,1.28h0a1.29,1.29,0,0,1-1.29,1.29h0a1.28,1.28,0,0,1-1.28-1.29h0A1.28,1.28,0,0,1,146.17,49.16Z"/><path class="cls-1" d="M48.13,50.44a1.25,1.25,0,0,1,.37-.9,1.28,1.28,0,0,1,1.82,0,1.33,1.33,0,0,1,0,1.81,1.28,1.28,0,0,1-2.19-.91Z"/><path class="cls-1" d="M49.41,122.61a1.28,1.28,0,0,1,1.28,1.29h0a1.28,1.28,0,0,1-1.28,1.28h0a1.28,1.28,0,0,1-1.28-1.28h0A1.28,1.28,0,0,1,49.41,122.61Zm0-6.67a1.28,1.28,0,0,1,1.28,1.28h0a1.28,1.28,0,0,1-1.28,1.29h0a1.28,1.28,0,0,1-1.28-1.29h0A1.28,1.28,0,0,1,49.41,115.94Zm0-6.68a1.28,1.28,0,0,1,1.28,1.28h0a1.28,1.28,0,0,1-1.28,1.29h0a1.28,1.28,0,0,1-1.28-1.29h0A1.28,1.28,0,0,1,49.41,109.26Zm0-6.68a1.28,1.28,0,0,1,1.28,1.29h0a1.28,1.28,0,0,1-1.28,1.28h0a1.28,1.28,0,0,1-1.28-1.28h0A1.28,1.28,0,0,1,49.41,102.58Zm0-6.68a1.28,1.28,0,0,1,1.28,1.29h0a1.28,1.28,0,0,1-1.28,1.28h0a1.28,1.28,0,0,1-1.28-1.28h0A1.28,1.28,0,0,1,49.41,95.9Zm0-6.68a1.28,1.28,0,0,1,1.28,1.29h0a1.28,1.28,0,0,1-1.28,1.28h0a1.28,1.28,0,0,1-1.28-1.28h0A1.28,1.28,0,0,1,49.41,89.22Zm0-6.67a1.28,1.28,0,0,1,1.28,1.28h0a1.28,1.28,0,0,1-1.28,1.29h0a1.28,1.28,0,0,1-1.28-1.29h0A1.28,1.28,0,0,1,49.41,82.55Zm0-6.68a1.28,1.28,0,0,1,1.28,1.28h0a1.28,1.28,0,0,1-1.28,1.29h0a1.28,1.28,0,0,1-1.28-1.29h0A1.28,1.28,0,0,1,49.41,75.87Zm0-6.68a1.28,1.28,0,0,1,1.28,1.29h0a1.28,1.28,0,0,1-1.28,1.28h0a1.28,1.28,0,0,1-1.28-1.28h0A1.28,1.28,0,0,1,49.41,69.19Zm0-6.67a1.28,1.28,0,0,1,1.28,1.28h0a1.28,1.28,0,0,1-1.28,1.29h0a1.28,1.28,0,0,1-1.28-1.29h0A1.28,1.28,0,0,1,49.41,62.52Zm0-6.68a1.28,1.28,0,0,1,1.28,1.28h0a1.28,1.28,0,0,1-1.28,1.29h0a1.28,1.28,0,0,1-1.28-1.29h0A1.28,1.28,0,0,1,49.41,55.84Z"/><path class="cls-1" d="M48.13,130.57a1.28,1.28,0,0,1,.37-.9,1.28,1.28,0,0,1,1.82,0,1.29,1.29,0,0,1-1.82,1.82A1.31,1.31,0,0,1,48.13,130.57Z"/><path class="cls-1" d="M111.3,187.65a1.3,1.3,0,0,1-1.28,1.29,1.3,1.3,0,0,1-.91-.38,1.33,1.33,0,0,1,0-1.82,1.29,1.29,0,0,1,.91-.37,1.25,1.25,0,0,1,.9.37A1.27,1.27,0,0,1,111.3,187.65Z"/><path class="cls-1" d="M206.78,188.94a1.28,1.28,0,0,1-1.28-1.29h0a1.28,1.28,0,0,1,1.28-1.28h0a1.29,1.29,0,0,1,1.29,1.28h0A1.29,1.29,0,0,1,206.78,188.94Zm-6.45,0a1.29,1.29,0,0,1-1.29-1.29h0a1.29,1.29,0,0,1,1.29-1.28h0a1.29,1.29,0,0,1,1.29,1.28h0A1.29,1.29,0,0,1,200.33,188.94Zm-6.45,0a1.28,1.28,0,0,1-1.28-1.29h0a1.28,1.28,0,0,1,1.28-1.28h0a1.28,1.28,0,0,1,1.28,1.28h0A1.28,1.28,0,0,1,193.88,188.94Zm-6.45,0a1.29,1.29,0,0,1-1.29-1.29h0a1.29,1.29,0,0,1,1.29-1.28h0a1.28,1.28,0,0,1,1.28,1.28h0A1.28,1.28,0,0,1,187.43,188.94Zm-6.45,0a1.29,1.29,0,0,1-1.29-1.29h0a1.29,1.29,0,0,1,1.29-1.28h0a1.29,1.29,0,0,1,1.29,1.28h0A1.29,1.29,0,0,1,181,188.94Zm-6.45,0a1.29,1.29,0,0,1-1.29-1.29h0a1.29,1.29,0,0,1,1.29-1.28h0a1.28,1.28,0,0,1,1.28,1.28h0A1.28,1.28,0,0,1,174.53,188.94Zm-6.45,0a1.29,1.29,0,0,1-1.29-1.29h0a1.29,1.29,0,0,1,1.29-1.28h0a1.28,1.28,0,0,1,1.28,1.28h0A1.28,1.28,0,0,1,168.08,188.94Zm-6.46,0a1.29,1.29,0,0,1-1.28-1.29h0a1.29,1.29,0,0,1,1.28-1.28h0a1.28,1.28,0,0,1,1.29,1.28h0A1.29,1.29,0,0,1,161.62,188.94Zm-6.44,0a1.29,1.29,0,0,1-1.29-1.29h0a1.28,1.28,0,0,1,1.29-1.28h0a1.29,1.29,0,0,1,1.28,1.28h0A1.29,1.29,0,0,1,155.18,188.94Zm-6.46,0a1.28,1.28,0,0,1-1.28-1.29h0a1.28,1.28,0,0,1,1.28-1.28h0a1.29,1.29,0,0,1,1.29,1.28h0A1.29,1.29,0,0,1,148.72,188.94Zm-6.45,0a1.28,1.28,0,0,1-1.28-1.29h0a1.28,1.28,0,0,1,1.28-1.28h0a1.29,1.29,0,0,1,1.29,1.28h0A1.29,1.29,0,0,1,142.27,188.94Zm-6.45,0a1.28,1.28,0,0,1-1.28-1.29h0a1.28,1.28,0,0,1,1.28-1.28h0a1.29,1.29,0,0,1,1.29,1.28h0A1.29,1.29,0,0,1,135.82,188.94Zm-6.45,0a1.29,1.29,0,0,1-1.29-1.29h0a1.29,1.29,0,0,1,1.29-1.28h0a1.28,1.28,0,0,1,1.28,1.28h0A1.28,1.28,0,0,1,129.37,188.94Zm-6.45,0a1.29,1.29,0,0,1-1.29-1.29h0a1.29,1.29,0,0,1,1.29-1.28h0a1.28,1.28,0,0,1,1.28,1.28h0A1.28,1.28,0,0,1,122.92,188.94Zm-6.45,0a1.28,1.28,0,0,1-1.28-1.29h0a1.28,1.28,0,0,1,1.28-1.28h0a1.29,1.29,0,0,1,1.29,1.28h0A1.29,1.29,0,0,1,116.47,188.94Z"/><path class="cls-1" d="M214.52,187.65a1.3,1.3,0,0,1-1.29,1.29,1.26,1.26,0,0,1-.9-.38,1.32,1.32,0,0,1,0-1.82,1.25,1.25,0,0,1,.9-.37,1.29,1.29,0,0,1,.91.37A1.31,1.31,0,0,1,214.52,187.65Z"/><path class="cls-1" d="M213.23,115.48A1.28,1.28,0,0,1,212,114.2h0a1.28,1.28,0,0,1,1.28-1.29h0a1.29,1.29,0,0,1,1.29,1.29h0A1.28,1.28,0,0,1,213.23,115.48Zm0,6.68a1.28,1.28,0,0,1-1.28-1.28h0a1.28,1.28,0,0,1,1.28-1.29h0a1.29,1.29,0,0,1,1.29,1.29h0A1.29,1.29,0,0,1,213.23,122.16Zm0,6.68a1.28,1.28,0,0,1-1.28-1.29h0a1.28,1.28,0,0,1,1.28-1.28h0a1.28,1.28,0,0,1,1.29,1.28h0A1.29,1.29,0,0,1,213.23,128.84Zm0,6.67a1.28,1.28,0,0,1-1.28-1.28h0a1.28,1.28,0,0,1,1.28-1.29h0a1.29,1.29,0,0,1,1.29,1.29h0A1.28,1.28,0,0,1,213.23,135.51Zm0,6.68a1.28,1.28,0,0,1-1.28-1.28h0a1.28,1.28,0,0,1,1.28-1.29h0a1.29,1.29,0,0,1,1.29,1.29h0A1.28,1.28,0,0,1,213.23,142.19Zm0,6.68a1.28,1.28,0,0,1-1.28-1.28h0a1.28,1.28,0,0,1,1.28-1.29h0a1.29,1.29,0,0,1,1.29,1.29h0A1.28,1.28,0,0,1,213.23,148.87Zm0,6.68a1.28,1.28,0,0,1-1.28-1.29h0a1.28,1.28,0,0,1,1.28-1.28h0a1.29,1.29,0,0,1,1.29,1.28h0A1.29,1.29,0,0,1,213.23,155.55Zm0,6.68a1.28,1.28,0,0,1-1.28-1.29h0a1.28,1.28,0,0,1,1.28-1.28h0a1.28,1.28,0,0,1,1.29,1.28h0A1.29,1.29,0,0,1,213.23,162.23Zm0,6.67a1.28,1.28,0,0,1-1.28-1.28h0a1.28,1.28,0,0,1,1.28-1.29h0a1.29,1.29,0,0,1,1.29,1.29h0A1.28,1.28,0,0,1,213.23,168.9Zm0,6.68A1.28,1.28,0,0,1,212,174.3h0a1.28,1.28,0,0,1,1.28-1.29h0a1.29,1.29,0,0,1,1.29,1.29h0A1.28,1.28,0,0,1,213.23,175.58Zm0,6.68A1.28,1.28,0,0,1,212,181h0a1.28,1.28,0,0,1,1.28-1.29h0a1.29,1.29,0,0,1,1.29,1.29h0A1.28,1.28,0,0,1,213.23,182.26Z"/><path class="cls-1" d="M214.52,107.52a1.3,1.3,0,0,1-1.29,1.29,1.26,1.26,0,0,1-.9-.38,1.32,1.32,0,0,1,0-1.82,1.25,1.25,0,0,1,.9-.37,1.28,1.28,0,0,1,1.29,1.28Z"/><path class="cls-1" d="M101.33,63.8H61.92a1.29,1.29,0,0,1,0-2.57h39.41a1.29,1.29,0,1,1,0,2.57Z"/><path class="cls-1" d="M111.15,63.8a1.3,1.3,0,0,1-1.28-1.28,1.3,1.3,0,0,1,.38-.91,1.32,1.32,0,0,1,1.81,0,1.3,1.3,0,0,1,.38.91,1.26,1.26,0,0,1-.38.9A1.3,1.3,0,0,1,111.15,63.8Z"/><path class="cls-1" d="M119.18,62.51a1.28,1.28,0,0,1,1.28-1.28h0a1.28,1.28,0,0,1,1.29,1.28h0a1.29,1.29,0,0,1-1.29,1.29h0A1.28,1.28,0,0,1,119.18,62.51Z"/><path class="cls-1" d="M129.77,63.8a1.29,1.29,0,0,1-.9-.38,1.26,1.26,0,0,1-.38-.9,1.3,1.3,0,0,1,.38-.91,1.32,1.32,0,0,1,1.81,0,1.3,1.3,0,0,1,.38.91,1.3,1.3,0,0,1-1.29,1.28Z"/><path class="cls-1" d="M195.2,148.29H184.54a1.29,1.29,0,1,1,0-2.57H195.2a1.29,1.29,0,1,1,0,2.57Z"/><path class="cls-1" d="M203.91,162.89H184a1.29,1.29,0,1,1,0-2.57h19.89a1.29,1.29,0,1,1,0,2.57Z"/><path class="cls-1" d="M176.67,162.89h-4.79a1.29,1.29,0,1,1,0-2.57h4.79a1.29,1.29,0,1,1,0,2.57Z"/><path class="cls-1" d="M186.61,176.16h-22a1.28,1.28,0,1,1,0-2.56h22a1.28,1.28,0,1,1,0,2.56Z"/></svg>