<?xml version="1.0" encoding="utf-8"?>
<!-- Generator: Adobe Illustrator 25.3.1, SVG Export Plug-In . SVG Version: 6.00 Build 0)  -->
<svg version="1.1" id="Layer_1" xmlns="http://www.w3.org/2000/svg" xmlns:xlink="http://www.w3.org/1999/xlink" x="0px" y="0px"
	 viewBox="0 0 669 340.1" style="enable-background:new 0 0 669 340.1;" xml:space="preserve">
<style type="text/css">
	.st0{fill:#FFFFFF;}
	.st1{fill:#FFFFFF;stroke:#000000;stroke-miterlimit:10;}
</style>
<path class="st0" d="M667.9,0.1c-21.4-0.4-42.8,0.9-64,4.1c-23.6,3.6-46.8,9.2-69.5,16.9c-29.7,10-58.1,23.3-84.7,39.8
	c-26.2,16.4-44,32.7-79.6,65.2c-28,25.7-69.2,66.3-79.6,77.1c-0.8,0.8-2.6,2.6-5.1,5.1c-7.3,7.1-12.1,10.6-20.3,17.5
	c-7.7,6.4-6.8,6-12.4,10.7c-10.8,8.8-22.1,16.9-33.9,24.3c-1.6,1-10.9,7-20.9,12.4c-28.2,15.5-55.8,24.3-68.3,28.2
	c-30.7,9.6-62.3,15.8-94.3,18.6c-14.4,1.3-26.5,1.6-35.3,1.7v18.3h669v-18H197.4c80.6-12.1,144.7-21.9,189.5-28.8
	c51.5-7.9,103.3-13.8,154.7-22.3c9.7-1.6,33.2-5.6,64.9-8.2c25.8-2.1,47.1-2.5,62.5-2.5v-18.4c-8.1-0.1-18-0.1-29.7,0.3
	c-19,0.6-34.7,2.1-53.9,4.2c-22.6,2.5-40.1,4.9-65.8,8.5c-29.2,4.1-48.9,6.8-81,11.6c-35.7,5.3-33.8,5.2-80.5,12.1
	c-28.2,4.2-38.1,5.6-68.9,10.2c-21.5,3.2-39.1,5.9-50.5,7.6c72.4-23,130-42.6,170-56.5c0,0,53.1-18.5,131.6-40.7
	c26.9-7.9,54.5-13.4,82.5-16.4c18.7-2,45.3-2.5,45.3-2.5v-19.2c0,0-14.1,0.2-24.4,0.9c-26.3,1.7-52.4,5.6-77.9,11.9
	c-73.6,17.6-144.3,42.1-144.3,42.1c-41.4,14.3-102.1,34.9-179.6,59.3c48-25.4,85.5-47.4,111.5-63.2c17.8-10.8,45.2-28,84.7-48.3
	c25.9-13.4,41.6-20.2,46.6-22.3c25.3-11.2,51.5-20.3,78.3-27.4c19.6-5.2,39.5-9,59.6-11.6c15.1-1.8,30.3-2.9,45.6-3.1V80.9
	c-9.9,0.1-23.3,0.5-39.1,2c-25.4,2.5-50.5,7.1-75.1,13.8c-47.3,12.7-81.5,29.4-116.3,46.6c-22.4,11.1-38.8,20.4-71.1,38.7
	c-27.6,15.7-50.5,29.3-66.9,39.2c11.8-11.5,30-29.4,52.2-51.7c26.5-26.5,32.2-32.7,45.2-44.3c15.2-13.6,34.7-31.1,63-48.8
	c38.7-24.3,72.3-35.4,80.5-38.1c36.7-11.9,67.5-14.8,90.9-17c15-1.4,36.8-2,36.8-2L667.9,0.1z"/>
<path class="st1" d="M669,340.1"/>
</svg>
