<?xml version="1.0" encoding="UTF-8" standalone="no"?>
<svg
   xmlns:dc="http://purl.org/dc/elements/1.1/"
   xmlns:cc="http://creativecommons.org/ns#"
   xmlns:rdf="http://www.w3.org/1999/02/22-rdf-syntax-ns#"
   xmlns:svg="http://www.w3.org/2000/svg"
   xmlns="http://www.w3.org/2000/svg"
   xmlns:sodipodi="http://sodipodi.sourceforge.net/DTD/sodipodi-0.dtd"
   xmlns:inkscape="http://www.inkscape.org/namespaces/inkscape"
   version="1.1"
   id="svg148"
   xml:space="preserve"
   width="250"
   height="150"
   viewBox="0 0 249.99999 150"
   sodipodi:docname="CHTCandOSG copy.svg"
   inkscape:version="1.0.2 (e86c8708, 2021-01-15)"><metadata
     id="metadata154"><rdf:RDF><cc:Work
         rdf:about=""><dc:format>image/svg+xml</dc:format><dc:type
           rdf:resource="http://purl.org/dc/dcmitype/StillImage" /><dc:title></dc:title></cc:Work></rdf:RDF></metadata><defs
     id="defs152" /><sodipodi:namedview
     pagecolor="#ffffff"
     bordercolor="#666666"
     borderopacity="1"
     objecttolerance="10"
     gridtolerance="10"
     guidetolerance="10"
     inkscape:pageopacity="0"
     inkscape:pageshadow="2"
     inkscape:window-width="1322"
     inkscape:window-height="762"
     id="namedview150"
     showgrid="false"
     inkscape:zoom="0.69602273"
     inkscape:cx="41.126538"
     inkscape:cy="120.60485"
     inkscape:window-x="118"
     inkscape:window-y="25"
     inkscape:window-maximized="0"
     inkscape:current-layer="g156"
     inkscape:document-rotation="0" /><g
     id="g156"
     inkscape:groupmode="layer"
     inkscape:label="ink_ext_XXXXXX"
     transform="matrix(1.3333333,0,0,-1.3333333,-284.97958,605.50282)"><g
       id="g1510"
       transform="translate(64.420409,34.481634)"><path
         d="m 205.98484,353.55098 c -1.103,0.99 -1.376,2.288 -1.376,3.369 0,0.763 0.261,2.094 1.274,3.108 0.684,0.683 1.72,1.218 3.473,1.218 0.455,0 1.092,-0.034 1.65,-0.137 0.433,-0.079 0.797,-0.148 1.161,-0.17 0.125,-0.012 0.148,-0.057 0.148,-0.125 0,-0.092 -0.035,-0.228 -0.057,-0.638 -0.023,-0.376 -0.023,-1.002 -0.034,-1.173 -0.012,-0.171 -0.034,-0.239 -0.103,-0.239 -0.079,0 -0.091,0.08 -0.091,0.239 0,0.444 -0.182,0.911 -0.478,1.161 -0.399,0.342 -1.275,0.65 -2.276,0.65 -1.514,0 -2.22,-0.445 -2.619,-0.832 -0.831,-0.796 -1.024,-1.81 -1.024,-2.971 0,-2.174 1.674,-4.166 4.109,-4.166 0.854,0 1.526,0.103 1.981,0.569 0.239,0.251 0.387,0.752 0.421,0.957 0.023,0.125 0.046,0.17 0.114,0.17 0.057,0 0.08,-0.08 0.08,-0.17 0,-0.08 -0.137,-1.07 -0.251,-1.457 -0.068,-0.217 -0.091,-0.24 -0.296,-0.33 -0.455,-0.183 -1.32,-0.262 -2.049,-0.262 -1.707,0 -2.857,0.421 -3.757,1.229"
         style="fill:#231f20;fill-opacity:1;fill-rule:nonzero;stroke:none;stroke-width:0.0999997"
         id="path1094" /><path
         d="m 215.29084,357.78598 c 0,1.775 0,2.094 -0.023,2.458 -0.023,0.387 -0.114,0.57 -0.49,0.649 -0.09,0.023 -0.284,0.034 -0.386,0.034 -0.046,0 -0.091,0.023 -0.091,0.069 0,0.068 0.057,0.09 0.182,0.09 0.261,0 0.569,0 0.819,-0.011 l 0.467,-0.023 c 0.08,0 2.345,0 2.607,0.012 0.216,0.011 0.399,0.034 0.489,0.057 0.057,0.011 0.103,0.057 0.16,0.057 0.034,0 0.045,-0.046 0.045,-0.103 0,-0.079 -0.057,-0.216 -0.091,-0.535 -0.011,-0.114 -0.035,-0.615 -0.057,-0.751 -0.012,-0.057 -0.034,-0.125 -0.079,-0.125 -0.068,0 -0.092,0.057 -0.092,0.147 0,0.08 -0.011,0.274 -0.068,0.411 -0.079,0.182 -0.194,0.318 -0.808,0.386 -0.193,0.023 -1.434,0.035 -1.559,0.035 -0.046,0 -0.069,-0.035 -0.069,-0.114 v -3.142 c 0,-0.08 0.012,-0.114 0.069,-0.114 0.147,0 1.547,0 1.809,0.023 0.274,0.023 0.433,0.045 0.535,0.159 0.08,0.091 0.125,0.148 0.171,0.148 0.034,0 0.057,-0.023 0.057,-0.091 0,-0.068 -0.057,-0.262 -0.091,-0.637 -0.022,-0.228 -0.046,-0.649 -0.046,-0.729 0,-0.091 0,-0.216 -0.079,-0.216 -0.058,0 -0.08,0.046 -0.08,0.103 0,0.113 0,0.227 -0.045,0.375 -0.046,0.16 -0.148,0.353 -0.593,0.399 -0.306,0.034 -1.433,0.056 -1.627,0.056 -0.057,0 -0.08,-0.034 -0.08,-0.079 v -1.002 c 0,-0.387 -0.012,-1.707 0,-1.946 0.034,-0.786 0.205,-0.934 1.321,-0.934 0.295,0 0.796,0 1.092,0.125 0.296,0.126 0.433,0.353 0.513,0.82 0.022,0.125 0.045,0.171 0.103,0.171 0.067,0 0.067,-0.091 0.067,-0.171 0,-0.091 -0.091,-0.865 -0.148,-1.104 -0.08,-0.296 -0.17,-0.296 -0.615,-0.296 -0.853,0 -1.479,0.022 -1.923,0.034 -0.444,0.023 -0.717,0.034 -0.888,0.034 -0.023,0 -0.216,0 -0.455,-0.011 -0.228,0 -0.49,-0.023 -0.661,-0.023 -0.125,0 -0.181,0.023 -0.181,0.091 0,0.034 0.022,0.068 0.091,0.068 0.102,0 0.239,0.023 0.341,0.046 0.228,0.045 0.285,0.296 0.331,0.626 0.056,0.478 0.056,1.377 0.056,2.47 v 2.004"
         style="fill:#231f20;fill-opacity:1;fill-rule:nonzero;stroke:none;stroke-width:0.0999997"
         id="path1096" /><path
         d="m 222.76584,354.02898 c 0.022,-0.933 0.136,-1.229 0.443,-1.32 0.217,-0.057 0.467,-0.069 0.569,-0.069 0.057,0 0.091,-0.022 0.091,-0.068 0,-0.068 -0.068,-0.091 -0.205,-0.091 -0.648,0 -1.103,0.034 -1.206,0.034 -0.102,0 -0.581,-0.034 -1.093,-0.034 -0.114,0 -0.182,0.011 -0.182,0.091 0,0.046 0.034,0.068 0.092,0.068 0.09,0 0.295,0.012 0.465,0.069 0.286,0.08 0.342,0.41 0.342,1.445 l 0.012,6.523 c 0,0.444 0.034,0.569 0.125,0.569 0.091,0 0.284,-0.25 0.398,-0.364 0.171,-0.194 1.868,-2.027 3.62,-3.905 1.127,-1.207 2.368,-2.595 2.73199,-2.971 l -0.12499,5.783 c -0.012,0.74 -0.091,0.99 -0.444,1.081 -0.205,0.046 -0.467,0.057 -0.558,0.057 -0.079,0 -0.091,0.034 -0.091,0.08 0,0.068 0.091,0.079 0.228,0.079 0.512,0 1.058,-0.034 1.183,-0.034 0.126,0 0.501,0.034 0.96799,0.034 0.12501,0 0.20501,-0.011 0.20501,-0.079 0,-0.046 -0.046,-0.08 -0.125,-0.08 -0.058,0 -0.13701,0 -0.273,-0.034 -0.376,-0.079 -0.421,-0.33 -0.421,-1.013 l -0.024,-6.671 c 0,-0.751 -0.022,-0.808 -0.102,-0.808 -0.091,0 -0.228,0.125 -0.83,0.729 -0.126,0.114 -1.765,1.787 -2.972,3.085 -1.32,1.423 -2.606,2.857 -2.971,3.266 l 0.149,-5.452"
         style="fill:#231f20;fill-opacity:1;fill-rule:nonzero;stroke:none;stroke-width:0.0999997"
         id="path1098" /><path
         d="m 235.88284,355.78198 c 0,-1.093 0,-1.992 0.057,-2.47 0.034,-0.33 0.102,-0.581 0.443,-0.626 0.16,-0.023 0.40999,-0.046 0.513,-0.046 0.068,0 0.09,-0.034 0.09,-0.068 0,-0.057 -0.056,-0.091 -0.18101,-0.091 -0.62599,0 -1.344,0.034 -1.401,0.034 -0.056,0 -0.774,-0.034 -1.11499,-0.034 -0.125,0 -0.182,0.023 -0.182,0.091 0,0.034 0.023,0.068 0.09,0.068 0.10299,0 0.24,0.023 0.342,0.046 0.228,0.045 0.285,0.296 0.33,0.626 0.057,0.478 0.057,1.377 0.057,2.47 v 4.815 l -1.68501,-0.023 c -0.705,-0.011 -0.978,-0.091 -1.161,-0.364 -0.12499,-0.194 -0.159,-0.273 -0.19299,-0.353 -0.034,-0.091 -0.068,-0.114 -0.11301,-0.114 -0.035,0 -0.058,0.034 -0.058,0.103 0,0.113 0.228,1.093 0.251,1.184 0.022,0.068 0.068,0.216 0.113,0.216 0.08,0 0.195,-0.114 0.501,-0.137 0.33,-0.034 0.763,-0.057 0.9,-0.057 h 4.268 c 0.364,0 0.626,0.023 0.809,0.057 0.171,0.023 0.273,0.057 0.318,0.057 0.057,0 0.057,-0.068 0.057,-0.136 0,-0.342 -0.034,-1.127 -0.034,-1.253 0,-0.102 -0.034,-0.148 -0.08,-0.148 -0.056,0 -0.08,0.035 -0.09,0.194 l -0.012,0.125 c -0.034,0.341 -0.308,0.604 -1.4,0.626 l -1.434,0.023 v -4.815"
         style="fill:#231f20;fill-opacity:1;fill-rule:nonzero;stroke:none;stroke-width:0.0999997"
         id="path1100" /><path
         d="m 241.54584,357.78598 c 0,1.775 0,2.094 -0.022,2.458 -0.024,0.387 -0.11499,0.57 -0.49099,0.649 -0.09,0.023 -0.284,0.034 -0.386,0.034 -0.046,0 -0.091,0.023 -0.091,0.069 0,0.068 0.056,0.09 0.181,0.09 0.26199,0 0.57,0 0.81999,-0.011 l 0.46701,-0.023 c 0.08,0 2.345,0 2.607,0.012 0.216,0.011 0.398,0.034 0.489,0.057 0.057,0.011 0.10299,0.057 0.159,0.057 0.035,0 0.046,-0.046 0.046,-0.103 0,-0.079 -0.057,-0.216 -0.091,-0.535 -0.011,-0.114 -0.035,-0.615 -0.057,-0.751 -0.011,-0.057 -0.034,-0.125 -0.079,-0.125 -0.069,0 -0.092,0.057 -0.092,0.147 0,0.08 -0.011,0.274 -0.068,0.411 -0.079,0.182 -0.194,0.318 -0.808,0.386 -0.193,0.023 -1.435,0.035 -1.56,0.035 -0.045,0 -0.068,-0.035 -0.068,-0.114 v -3.142 c 0,-0.08 0.012,-0.114 0.068,-0.114 0.148,0 1.548,0 1.81,0.023 0.273,0.023 0.433,0.045 0.535,0.159 0.08,0.091 0.125,0.148 0.171,0.148 0.034,0 0.057,-0.023 0.057,-0.091 0,-0.068 -0.057,-0.262 -0.091,-0.637 -0.023,-0.228 -0.046,-0.649 -0.046,-0.729 0,-0.091 0,-0.216 -0.079,-0.216 -0.058,0 -0.08,0.046 -0.08,0.103 0,0.113 0,0.227 -0.046,0.375 -0.045,0.16 -0.14801,0.353 -0.59201,0.399 -0.30699,0.034 -1.43299,0.056 -1.62699,0.056 -0.057,0 -0.08,-0.034 -0.08,-0.079 v -1.002 c 0,-0.387 -0.012,-1.707 0,-1.946 0.034,-0.786 0.20501,-0.934 1.32,-0.934 0.29601,0 0.79701,0 1.09301,0.125 0.29599,0.126 0.433,0.353 0.513,0.82 0.022,0.125 0.045,0.171 0.10099,0.171 0.069,0 0.069,-0.091 0.069,-0.171 0,-0.091 -0.091,-0.865 -0.14799,-1.104 -0.08,-0.296 -0.171,-0.296 -0.615,-0.296 -0.853,0 -1.479,0.022 -1.923,0.034 -0.444,0.023 -0.718,0.034 -0.888,0.034 -0.023,0 -0.216,0 -0.45501,-0.011 -0.228,0 -0.48999,-0.023 -0.66099,-0.023 -0.12501,0 -0.181,0.023 -0.181,0.091 0,0.034 0.022,0.068 0.091,0.068 0.102,0 0.239,0.023 0.33999,0.046 0.22901,0.045 0.28601,0.296 0.33101,0.626 0.057,0.478 0.057,1.377 0.057,2.47 v 2.004"
         style="fill:#231f20;fill-opacity:1;fill-rule:nonzero;stroke:none;stroke-width:0.0999997"
         id="path1102" /><path
         d="m 249.62284,356.79498 c 0,-0.057 0.024,-0.102 0.08,-0.136 0.171,-0.103 0.69499,-0.182 1.19599,-0.182 0.273,0 0.591,0.034 0.85301,0.216 0.399,0.273 0.694,0.887 0.694,1.753 0,1.423 -0.751,2.276 -1.968,2.276 -0.342,0 -0.65001,-0.034 -0.763,-0.068 -0.058,-0.023 -0.092,-0.068 -0.092,-0.136 z m -0.91,0.991 c 0,1.775 0,2.094 -0.023,2.458 -0.023,0.387 -0.114,0.57 -0.48999,0.649 -0.09,0.023 -0.28401,0.034 -0.38601,0.034 -0.046,0 -0.091,0.023 -0.091,0.069 0,0.068 0.056,0.09 0.18099,0.09 0.513,0 1.23,-0.034 1.287,-0.034 0.126,0 0.99,0.034 1.34301,0.034 0.717,0 1.47999,-0.068 2.08299,-0.5 0.285,-0.205 0.78501,-0.763 0.78501,-1.549 0,-0.842 -0.35201,-1.684 -1.37601,-2.629 0.933,-1.195 1.707,-2.208 2.367,-2.914 0.615,-0.649 1.104,-0.774 1.38801,-0.82 0.21699,-0.034 0.37599,-0.034 0.44499,-0.034 0.056,0 0.102,-0.034 0.102,-0.068 0,-0.068 -0.068,-0.091 -0.273,-0.091 h -0.809 c -0.636,0 -0.922,0.057 -1.218,0.216 -0.489,0.262 -0.88699,0.82 -1.536,1.674 -0.478,0.625 -1.01299,1.388 -1.24099,1.684 -0.045,0.046 -0.079,0.068 -0.147,0.068 l -1.401,0.023 c -0.056,0 -0.08,-0.034 -0.08,-0.091 v -0.273 c 0,-1.09301 0,-1.992 0.058,-2.47 0.034,-0.33 0.102,-0.581 0.443,-0.626 0.159,-0.023 0.41,-0.046 0.513,-0.046 0.068,0 0.091,-0.034 0.091,-0.068 0,-0.057 -0.057,-0.091 -0.183,-0.091 -0.626,0 -1.343,0.034 -1.399,0.034 -0.012,0 -0.729,-0.034 -1.071,-0.034 -0.125,0 -0.181,0.023 -0.181,0.091 0,0.034 0.022,0.068 0.091,0.068 0.102,0 0.239,0.023 0.341,0.046 0.228,0.045 0.284,0.296 0.33,0.626 0.057,0.478 0.057,1.37699 0.057,2.47 v 2.004"
         style="fill:#231f20;fill-opacity:1;fill-rule:nonzero;stroke:none;stroke-width:0.0999997"
         id="path1104" /><path
         d="m 261.41884,357.78598 c 0,1.775 0,2.094 -0.022,2.458 -0.024,0.387 -0.115,0.57 -0.491,0.649 -0.09,0.023 -0.284,0.034 -0.386,0.034 -0.046,0 -0.091,0.023 -0.091,0.069 0,0.068 0.056,0.09 0.181,0.09 0.262,0 0.57,0 0.82,-0.011 l 0.467,-0.023 c 0.228,-0.011 2.539,0 2.8,0.012 0.216,0.011 0.399,0.011 0.501,0.045 0.069,0.023 0.114,0.069 0.16,0.069 0.044,0 0.068,-0.046 0.068,-0.103 0,-0.079 -0.057,-0.216 -0.091,-0.535 -0.012,-0.114 -0.034,-0.615 -0.058,-0.751 -0.01,-0.057 -0.034,-0.125 -0.09,-0.125 -0.057,0 -0.08,0.057 -0.08,0.136 0,0.091 -0.035,0.285 -0.102,0.433 -0.068,0.148 -0.331,0.353 -0.774,0.364 l -1.753,0.034 c -0.069,0 -0.10299,-0.034 -0.10299,-0.125 v -3.142 c 0,-0.068 0.012,-0.102 0.08,-0.102 l 1.457,0.011 c 0.19401,0 0.35301,0 0.51201,0.012 0.273,0.022 0.42099,0.056 0.52299,0.205 0.046,0.056 0.08,0.113 0.12501,0.113 0.046,0 0.058,-0.034 0.058,-0.091 0,-0.068 -0.058,-0.262 -0.091,-0.637 -0.023,-0.228 -0.046,-0.683 -0.046,-0.763 0,-0.102 0,-0.216 -0.08,-0.216 -0.056,0 -0.079,0.045 -0.079,0.102 -0.012,0.114 -0.023,0.273 -0.068,0.41 -0.058,0.16 -0.239,0.364 -0.592,0.41 -0.285,0.034 -1.525,0.034 -1.719,0.034 -0.057,0 -0.08,-0.023 -0.08,-0.102 v -0.968 c 0,-1.093 0,-1.992 0.057,-2.47 0.034,-0.33 0.102,-0.581 0.444,-0.626 0.159,-0.023 0.409,-0.046 0.512,-0.046 0.068,0 0.092,-0.034 0.092,-0.068 0,-0.057 -0.058,-0.091 -0.183,-0.091 -0.626,0 -1.343,0.034 -1.4,0.034 -0.057,0 -0.774,-0.034 -1.116,-0.034 -0.125,0 -0.181,0.023 -0.181,0.091 0,0.034 0.022,0.068 0.091,0.068 0.102,0 0.239,0.023 0.34,0.046 0.229,0.045 0.286,0.296 0.331,0.626 0.057,0.478 0.057,1.377 0.057,2.47 v 2.004"
         style="fill:#231f20;fill-opacity:1;fill-rule:nonzero;stroke:none;stroke-width:0.0999997"
         id="path1106" /><path
         d="m 271.79484,352.75398 c 1.024,0 3.142,0.592 3.142,3.905 0,2.732 -1.66101,4.2 -3.46,4.2 -1.902,0 -3.32501,-1.252 -3.32501,-3.745 0,-2.653 1.59401,-4.36 3.64301,-4.36 z m -0.23801,8.492 c 2.56001,0 4.47201,-1.617 4.47201,-4.269 0,-2.55 -1.797,-4.655 -4.54101,-4.655 -3.11899,0 -4.41699,2.424 -4.41699,4.473 0,1.844 1.343,4.451 4.48599,4.451"
         style="fill:#231f20;fill-opacity:1;fill-rule:nonzero;stroke:none;stroke-width:0.0999997"
         id="path1108" /><path
         d="m 279.90384,356.79498 c 0,-0.057 0.024,-0.102 0.081,-0.136 0.17,-0.103 0.694,-0.182 1.195,-0.182 0.273,0 0.592,0.034 0.853,0.216 0.399,0.273 0.695,0.887 0.695,1.753 0,1.423 -0.751,2.276 -1.969,2.276 -0.342,0 -0.649,-0.034 -0.763,-0.068 -0.057,-0.023 -0.092,-0.068 -0.092,-0.136 z m -0.91,0.991 c 0,1.775 0,2.094 -0.023,2.458 -0.023,0.387 -0.113,0.57 -0.489,0.649 -0.091,0.023 -0.285,0.034 -0.387,0.034 -0.046,0 -0.091,0.023 -0.091,0.069 0,0.068 0.057,0.09 0.182,0.09 0.512,0 1.229,-0.034 1.286,-0.034 0.126,0 0.99,0.034 1.344,0.034 0.716,0 1.479,-0.068 2.083,-0.5 0.284,-0.205 0.785,-0.763 0.785,-1.549 0,-0.842 -0.353,-1.684 -1.377,-2.629 0.933,-1.195 1.707,-2.208 2.367,-2.914 0.615,-0.649 1.104,-0.774 1.389,-0.82 0.216,-0.034 0.376,-0.034 0.444,-0.034 0.057,0 0.103,-0.034 0.103,-0.068 0,-0.068 -0.069,-0.091 -0.274,-0.091 h -0.809 c -0.636,0 -0.921,0.057 -1.217,0.216 -0.49,0.262 -0.888,0.82 -1.536,1.674 -0.479,0.625 -1.014,1.388 -1.242,1.684 -0.045,0.046 -0.079,0.068 -0.147,0.068 l -1.4,0.023 c -0.057,0 -0.081,-0.034 -0.081,-0.091 v -0.273 c 0,-1.09301 0,-1.992 0.058,-2.47 0.034,-0.33 0.10299,-0.581 0.443,-0.626 0.16,-0.023 0.411,-0.046 0.513,-0.046 0.068,0 0.091,-0.034 0.091,-0.068 0,-0.057 -0.057,-0.091 -0.183,-0.091 -0.62601,0 -1.342,0.034 -1.399,0.034 -0.012,0 -0.729,-0.034 -1.07,-0.034 -0.12501,0 -0.18201,0.023 -0.18201,0.091 0,0.034 0.022,0.068 0.091,0.068 0.102,0 0.23899,0.023 0.342,0.046 0.22699,0.045 0.28399,0.296 0.33,0.626 0.056,0.478 0.056,1.37699 0.056,2.47 v 2.004"
         style="fill:#231f20;fill-opacity:1;fill-rule:nonzero;stroke:none;stroke-width:0.0999997"
         id="path1110" /><path
         d="m 166.23084,337.95198 c 0,-1.653 0,-3.013 0.086,-3.736 0.051,-0.499 0.154,-0.877 0.67,-0.946 0.242,-0.035 0.621,-0.069 0.775,-0.069 0.103,0 0.138,-0.052 0.138,-0.103 0,-0.086 -0.086,-0.138 -0.276,-0.138 -0.946,0 -2.03,0.052 -2.116,0.052 -0.087,0 -1.171,-0.052 -1.688,-0.052 -0.189,0 -0.275,0.034 -0.275,0.138 0,0.051 0.035,0.103 0.138,0.103 0.155,0 0.361,0.034 0.516,0.069 0.344,0.069 0.431,0.447 0.499,0.946 0.086,0.723 0.086,2.083 0.086,3.736 v 1.807 c 0,0.069 -0.051,0.103 -0.102,0.103 h -7.299 c -0.051,0 -0.103,-0.018 -0.103,-0.103 v -1.807 c 0,-1.653 0,-3.013 0.086,-3.736 0.052,-0.499 0.156,-0.877 0.671,-0.946 0.241,-0.035 0.62,-0.069 0.775,-0.069 0.103,0 0.137,-0.052 0.137,-0.103 0,-0.086 -0.086,-0.138 -0.275,-0.138 -0.946,0 -2.03,0.052 -2.117,0.052 -0.086,0 -1.17,-0.052 -1.687,-0.052 -0.189,0 -0.275,0.034 -0.275,0.138 0,0.051 0.034,0.103 0.138,0.103 0.155,0 0.361,0.034 0.516,0.069 0.345,0.069 0.431,0.447 0.499,0.946 0.086,0.723 0.086,2.083 0.086,3.736 v 3.029 c 0,2.685 0,3.167 -0.034,3.718 -0.034,0.585 -0.172,0.86 -0.74,0.981 -0.138,0.034 -0.431,0.051 -0.585,0.051 -0.07,0 -0.138,0.035 -0.138,0.103 0,0.104 0.086,0.138 0.275,0.138 0.775,0 1.859,-0.052 1.945,-0.052 0.087,0 1.171,0.052 1.687,0.052 0.19,0 0.276,-0.034 0.276,-0.138 0,-0.068 -0.07,-0.103 -0.138,-0.103 -0.121,0 -0.224,-0.017 -0.431,-0.051 -0.465,-0.086 -0.602,-0.379 -0.636,-0.981 -0.035,-0.551 -0.035,-1.033 -0.035,-3.718 v -0.362 c 0,-0.086 0.052,-0.103 0.103,-0.103 h 7.299 c 0.051,0 0.102,0.017 0.102,0.103 v 0.362 c 0,2.685 0,3.167 -0.034,3.718 -0.034,0.585 -0.172,0.86 -0.74,0.981 -0.138,0.034 -0.43,0.051 -0.585,0.051 -0.069,0 -0.138,0.035 -0.138,0.103 0,0.104 0.086,0.138 0.276,0.138 0.774,0 1.858,-0.052 1.945,-0.052 0.086,0 1.17,0.052 1.686,0.052 0.19,0 0.276,-0.034 0.276,-0.138 0,-0.068 -0.069,-0.103 -0.138,-0.103 -0.121,0 -0.223,-0.017 -0.43,-0.051 -0.465,-0.086 -0.603,-0.379 -0.637,-0.981 -0.034,-0.551 -0.034,-1.033 -0.034,-3.718 v -3.029"
         style="fill:#d41041;fill-opacity:1;fill-rule:nonzero;stroke:none;stroke-width:0.0999997"
         id="path1112" /><path
         d="m 172.52684,337.95198 c 0,-1.653 0,-3.013 0.086,-3.736 0.052,-0.499 0.155,-0.877 0.671,-0.946 0.242,-0.035 0.62,-0.069 0.775,-0.069 0.103,0 0.137,-0.052 0.137,-0.103 0,-0.086 -0.086,-0.138 -0.275,-0.138 -0.946,0 -2.03,0.052 -2.116,0.052 -0.087,0 -1.171,-0.052 -1.688,-0.052 -0.189,0 -0.275,0.034 -0.275,0.138 0,0.051 0.035,0.103 0.138,0.103 0.155,0 0.361,0.034 0.516,0.069 0.344,0.069 0.431,0.447 0.499,0.946 0.086,0.723 0.086,2.083 0.086,3.736 v 3.029 c 0,2.685 0,3.167 -0.034,3.718 -0.034,0.585 -0.207,0.878 -0.585,0.963 -0.189,0.052 -0.413,0.069 -0.534,0.069 -0.068,0 -0.138,0.035 -0.138,0.103 0,0.104 0.087,0.138 0.276,0.138 0.568,0 1.652,-0.052 1.739,-0.052 0.086,0 1.17,0.052 1.686,0.052 0.19,0 0.276,-0.034 0.276,-0.138 0,-0.068 -0.07,-0.103 -0.138,-0.103 -0.121,0 -0.224,-0.017 -0.431,-0.051 -0.464,-0.086 -0.602,-0.379 -0.636,-0.981 -0.035,-0.551 -0.035,-1.033 -0.035,-3.718 v -3.029"
         style="fill:#d41041;fill-opacity:1;fill-rule:nonzero;stroke:none;stroke-width:0.0999997"
         id="path1114" /><path
         d="m 185.21084,337.34898 c 0,1.394 -0.086,1.583 -0.774,1.773 -0.138,0.034 -0.431,0.051 -0.585,0.051 -0.07,0 -0.138,0.035 -0.138,0.104 0,0.103 0.086,0.137 0.275,0.137 0.775,0 1.859,-0.051 1.945,-0.051 0.086,0 1.171,0.051 1.687,0.051 0.19,0 0.276,-0.034 0.276,-0.137 0,-0.069 -0.07,-0.104 -0.138,-0.104 -0.121,0 -0.224,-0.017 -0.431,-0.051 -0.465,-0.086 -0.602,-0.379 -0.636,-0.981 -0.035,-0.551 -0.035,-1.067 -0.035,-1.79 v -1.928 c 0,-0.775 -0.017,-0.809 -0.223,-0.929 -1.102,-0.585 -2.652,-0.77499 -3.65,-0.77499 -1.307,0 -3.752,0.17199 -5.663,1.84199 -1.05,0.912 -2.048,2.754 -2.048,4.905 0,2.754 1.343,4.699 2.874,5.663 1.55,0.964 3.254,1.084 4.58,1.084 1.083,0 2.305,-0.223 2.632,-0.293 0.362,-0.086 0.964,-0.154 1.395,-0.172 0.172,-0.017 0.206,-0.086 0.206,-0.154 0,-0.242 -0.12,-0.723 -0.12,-2.445 0,-0.275 -0.034,-0.361 -0.155,-0.361 -0.086,0 -0.103,0.103 -0.121,0.258 -0.017,0.241 -0.103,0.723 -0.361,1.136 -0.431,0.654 -1.824,1.395 -4.045,1.395 -1.084,0 -2.375,-0.104 -3.683,-1.137 -0.998,-0.791 -1.705,-2.358 -1.705,-4.371 0,-2.428 1.223,-4.183 1.826,-4.768 1.359,-1.325 2.925,-1.842 4.508,-1.842 0.621,0 1.515,0.10301 1.963,0.362 0.224,0.12 0.344,0.309 0.344,0.602 v 2.926"
         style="fill:#d41041;fill-opacity:1;fill-rule:nonzero;stroke:none;stroke-width:0.0999997"
         id="path1116" /><path
         d="m 200.94084,337.95198 c 0,-1.653 0,-3.013 0.086,-3.736 0.051,-0.499 0.155,-0.877 0.67,-0.946 0.242,-0.035 0.621,-0.069 0.775,-0.069 0.103,0 0.138,-0.052 0.138,-0.103 0,-0.086 -0.086,-0.138 -0.276,-0.138 -0.946,0 -2.03,0.052 -2.117,0.052 -0.086,0 -1.17,-0.052 -1.687,-0.052 -0.189,0 -0.275,0.034 -0.275,0.138 0,0.051 0.034,0.103 0.138,0.103 0.155,0 0.361,0.034 0.516,0.069 0.345,0.069 0.431,0.447 0.499,0.946 0.086,0.723 0.086,2.083 0.086,3.736 v 1.807 c 0,0.069 -0.051,0.103 -0.103,0.103 h -7.297 c -0.052,0 -0.104,-0.018 -0.104,-0.103 v -1.807 c 0,-1.653 0,-3.013 0.086,-3.736 0.052,-0.499 0.155,-0.877 0.671,-0.946 0.241,-0.035 0.62,-0.069 0.775,-0.069 0.103,0 0.137,-0.052 0.137,-0.103 0,-0.086 -0.086,-0.138 -0.275,-0.138 -0.946,0 -2.03,0.052 -2.116,0.052 -0.087,0 -1.171,-0.052 -1.688,-0.052 -0.189,0 -0.275,0.034 -0.275,0.138 0,0.051 0.035,0.103 0.138,0.103 0.155,0 0.361,0.034 0.516,0.069 0.344,0.069 0.431,0.447 0.499,0.946 0.086,0.723 0.086,2.083 0.086,3.736 v 3.029 c 0,2.685 0,3.167 -0.034,3.718 -0.034,0.585 -0.172,0.86 -0.74,0.981 -0.138,0.034 -0.43,0.051 -0.585,0.051 -0.07,0 -0.138,0.035 -0.138,0.103 0,0.104 0.086,0.138 0.275,0.138 0.775,0 1.859,-0.052 1.946,-0.052 0.086,0 1.17,0.052 1.686,0.052 0.19,0 0.276,-0.034 0.276,-0.138 0,-0.068 -0.07,-0.103 -0.138,-0.103 -0.121,0 -0.224,-0.017 -0.431,-0.051 -0.465,-0.086 -0.602,-0.379 -0.636,-0.981 -0.035,-0.551 -0.035,-1.033 -0.035,-3.718 v -0.362 c 0,-0.086 0.052,-0.103 0.104,-0.103 h 7.297 c 0.052,0 0.103,0.017 0.103,0.103 v 0.362 c 0,2.685 0,3.167 -0.034,3.718 -0.034,0.585 -0.172,0.86 -0.74,0.981 -0.138,0.034 -0.431,0.051 -0.585,0.051 -0.069,0 -0.138,0.035 -0.138,0.103 0,0.104 0.086,0.138 0.276,0.138 0.774,0 1.858,-0.052 1.944,-0.052 0.087,0 1.171,0.052 1.687,0.052 0.19,0 0.276,-0.034 0.276,-0.138 0,-0.068 -0.07,-0.103 -0.138,-0.103 -0.121,0 -0.223,-0.017 -0.431,-0.051 -0.464,-0.086 -0.602,-0.379 -0.636,-0.981 -0.034,-0.551 -0.034,-1.033 -0.034,-3.718 v -3.029"
         style="fill:#d41041;fill-opacity:1;fill-rule:nonzero;stroke:none;stroke-width:0.0999997"
         id="path1118" /><path
         d="m 214.60284,337.95198 c 0,-1.653 0,-3.013 0.087,-3.736 0.05,-0.499 0.154,-0.877 0.67,-0.946 0.242,-0.035 0.62,-0.069 0.775,-0.069 0.103,0 0.138,-0.052 0.138,-0.103 0,-0.086 -0.086,-0.138 -0.276,-0.138 -0.946,0 -2.031,0.052 -2.117,0.052 -0.086,0 -1.17,-0.052 -1.686,-0.052 -0.19,0 -0.276,0.034 -0.276,0.138 0,0.051 0.034,0.103 0.138,0.103 0.155,0 0.361,0.034 0.516,0.069 0.344,0.069 0.43,0.447 0.499,0.946 0.086,0.723 0.086,2.083 0.086,3.736 v 7.28 l -2.547,-0.034 c -1.067,-0.018 -1.48,-0.138 -1.755,-0.55101 -0.19,-0.29199 -0.242,-0.41299 -0.293,-0.534 -0.052,-0.13699 -0.104,-0.17199 -0.172,-0.17199 -0.052,0 -0.086,0.052 -0.086,0.155 0,0.172 0.344,1.65199 0.378,1.78999 0.035,0.10401 0.103,0.327 0.173,0.327 0.12,0 0.292,-0.17199 0.756,-0.20599 0.499,-0.052 1.154,-0.087 1.36,-0.087 h 6.455 c 0.551,0 0.946,0.035 1.222,0.087 0.258,0.034 0.413,0.086 0.482,0.086 0.086,0 0.086,-0.10299 0.086,-0.207 0,-0.51699 -0.052,-1.704 -0.052,-1.893 0,-0.15499 -0.052,-0.22399 -0.12,-0.22399 -0.087,0 -0.121,0.052 -0.138,0.29299 l -0.017,0.189 c -0.052,0.51701 -0.465,0.91301 -2.117,0.94701 l -2.169,0.034 v -7.28"
         style="fill:#d41041;fill-opacity:1;fill-rule:nonzero;stroke:none;stroke-width:0.0999997"
         id="path1120" /><path
         d="m 232.29484,337.95198 c 0,-1.653 0,-3.013 0.086,-3.736 0.052,-0.499 0.154,-0.877 0.67099,-0.946 0.24101,-0.035 0.62001,-0.069 0.774,-0.069 0.10401,0 0.138,-0.052 0.138,-0.103 0,-0.086 -0.086,-0.138 -0.27499,-0.138 -0.947,0 -2.031,0.052 -2.117,0.052 -0.087,0 -1.17,-0.052 -1.687,-0.052 -0.19001,0 -0.275,0.034 -0.275,0.138 0,0.051 0.035,0.103 0.137,0.103 0.15499,0 0.36199,0.034 0.517,0.069 0.344,0.069 0.42999,0.447 0.49899,0.946 0.086,0.723 0.086,2.083 0.086,3.736 v 1.807 c 0,0.069 -0.052,0.103 -0.103,0.103 h -7.299 c -0.05,0 -0.102,-0.018 -0.102,-0.103 v -1.807 c 0,-1.653 0,-3.013 0.086,-3.736 0.052,-0.499 0.155,-0.877 0.671,-0.946 0.241,-0.035 0.62,-0.069 0.774,-0.069 0.104,0 0.138,-0.052 0.138,-0.103 0,-0.086 -0.086,-0.138 -0.276,-0.138 -0.946,0 -2.03,0.052 -2.117,0.052 -0.086,0 -1.17,-0.052 -1.686,-0.052 -0.19,0 -0.276,0.034 -0.276,0.138 0,0.051 0.035,0.103 0.138,0.103 0.155,0 0.361,0.034 0.517,0.069 0.344,0.069 0.43,0.447 0.499,0.946 0.086,0.723 0.086,2.083 0.086,3.736 v 3.029 c 0,2.685 0,3.167 -0.035,3.718 -0.034,0.585 -0.171,0.86 -0.74,0.981 -0.138,0.034 -0.43,0.051 -0.585,0.051 -0.069,0 -0.137,0.035 -0.137,0.103 0,0.104 0.085,0.138 0.275,0.138 0.774,0 1.858,-0.052 1.944,-0.052 0.087,0 1.171,0.052 1.688,0.052 0.189,0 0.275,-0.034 0.275,-0.138 0,-0.068 -0.069,-0.103 -0.138,-0.103 -0.121,0 -0.223,-0.017 -0.43,-0.051 -0.465,-0.086 -0.603,-0.379 -0.637,-0.981 -0.034,-0.551 -0.034,-1.033 -0.034,-3.718 v -0.362 c 0,-0.086 0.052,-0.103 0.102,-0.103 h 7.299 c 0.051,0 0.103,0.017 0.103,0.103 v 0.362 c 0,2.685 0,3.167 -0.034,3.718 -0.035,0.585 -0.172,0.86 -0.741,0.981 -0.137,0.034 -0.429,0.051 -0.585,0.051 -0.069,0 -0.137,0.035 -0.137,0.103 0,0.104 0.086,0.138 0.275,0.138 0.775,0 1.858,-0.052 1.945,-0.052 0.086,0 1.17,0.052 1.687,0.052 0.189,0 0.275,-0.034 0.275,-0.138 0,-0.068 -0.069,-0.103 -0.137,-0.103 -0.121,0 -0.224,-0.017 -0.431,-0.051 -0.465,-0.086 -0.603,-0.379 -0.637,-0.981 -0.034,-0.551 -0.034,-1.033 -0.034,-3.718 v -3.029"
         style="fill:#d41041;fill-opacity:1;fill-rule:nonzero;stroke:none;stroke-width:0.0999997"
         id="path1122" /><path
         d="m 238.14484,339.48298 c 0,-0.086 0.035,-0.155 0.12099,-0.206 0.258,-0.155 1.05,-0.275 1.806,-0.275 0.41301,0 0.89601,0.051 1.29101,0.326 0.603,0.414 1.05,1.343 1.05,2.651 0,2.151 -1.136,3.442 -2.97701,3.442 -0.51699,0 -0.981,-0.052 -1.15399,-0.103 -0.086,-0.034 -0.137,-0.103 -0.137,-0.206 z m -1.377,1.498 c 0,2.685 0,3.167 -0.034,3.718 -0.035,0.585 -0.172,0.86 -0.741,0.981 -0.137,0.034 -0.43,0.051 -0.585,0.051 -0.069,0 -0.137,0.035 -0.137,0.103 0,0.104 0.086,0.138 0.275,0.138 0.774,0 1.858,-0.052 1.944,-0.052 0.19,0 1.498,0.052 2.032,0.052 1.085,0 2.238,-0.103 3.15,-0.757 0.43,-0.31 1.188,-1.153 1.188,-2.341 0,-1.273 -0.535,-2.547 -2.083,-3.976 1.411,-1.807 2.582,-3.339 3.58,-4.406 0.929,-0.98099 1.67,-1.16999 2.099,-1.24 0.327,-0.051 0.569,-0.051 0.672,-0.051 0.086,0 0.154,-0.052 0.154,-0.103 0,-0.104 -0.102,-0.138 -0.413,-0.138 h -1.221 c -0.964,0 -1.395,0.086 -1.842,0.327 -0.74,0.396 -1.343,1.239 -2.323,2.531 -0.723,0.946 -1.533,2.099 -1.876,2.547 -0.07,0.069 -0.122,0.103 -0.224,0.103 l -2.117,0.034 c -0.086,0 -0.121,-0.051 -0.121,-0.137 v -0.413 c 0,-1.653 0,-3.013 0.086,-3.736 0.051,-0.499 0.155,-0.877 0.671,-0.946 0.241,-0.035 0.62,-0.069 0.775,-0.069 0.103,0 0.138,-0.052 0.138,-0.103 0,-0.086 -0.086,-0.138 -0.276,-0.138 -0.947,0 -2.031,0.052 -2.117,0.052 -0.018,0 -1.102,-0.052 -1.618,-0.052 -0.19,0 -0.276,0.034 -0.276,0.138 0,0.051 0.035,0.103 0.138,0.103 0.155,0 0.361,0.034 0.517,0.069 0.344,0.069 0.43,0.447 0.499,0.946 0.086,0.723 0.086,2.083 0.086,3.736 v 3.029"
         style="fill:#d41041;fill-opacity:1;fill-rule:nonzero;stroke:none;stroke-width:0.0999997"
         id="path1124" /><path
         d="m 253.80484,333.37299 c 1.55,0 4.751,0.89499 4.751,5.90399 0,4.131 -2.513,6.351 -5.23301,6.351 -2.874,0 -5.02599,-1.893 -5.02599,-5.663 0,-4.01 2.40999,-6.59199 5.508,-6.59199 z m -0.361,12.83999 c 3.873,0 6.76399,-2.444 6.76399,-6.454 0,-3.856 -2.71999,-7.03999 -6.86799,-7.03999 -4.716,0 -6.678,3.66599 -6.678,6.76399 0,2.789 2.03199,6.73 6.782,6.73"
         style="fill:#d41041;fill-opacity:1;fill-rule:nonzero;stroke:none;stroke-width:0.0999997"
         id="path1126" /><path
         d="m 261.75484,340.98098 c 0,2.685 0,3.167 -0.034,3.718 -0.035,0.585 -0.172,0.86 -0.74,0.981 -0.138,0.034 -0.431,0.051 -0.585,0.051 -0.07,0 -0.138,0.035 -0.138,0.103 0,0.104 0.086,0.138 0.275,0.138 0.775,0 1.825,-0.052 1.979,-0.052 0.155,0 1.188,0.052 1.704,0.052 0.189,0 0.275,-0.034 0.275,-0.138 0,-0.068 -0.068,-0.103 -0.137,-0.103 -0.12,0 -0.224,-0.017 -0.43,-0.051 -0.465,-0.069 -0.603,-0.379 -0.637,-0.981 -0.035,-0.551 -0.035,-1.033 -0.035,-3.718 v -2.41 c 0,-2.478 0.551,-3.546 1.29099,-4.251 0.84401,-0.792 1.61801,-0.94699 2.60001,-0.94699 1.05,0 2.082,0.49999 2.702,1.23899 0.792,0.981 0.99799,2.445 0.99799,4.218 v 2.151 c 0,2.685 0,3.167 -0.034,3.718 -0.035,0.585 -0.172,0.86 -0.74,0.981 -0.138,0.034 -0.431,0.051 -0.585,0.051 -0.07,0 -0.138,0.035 -0.138,0.103 0,0.104 0.086,0.138 0.275,0.138 0.775,0 1.721,-0.052 1.824,-0.052 0.121,0 0.93,0.052 1.446,0.052 0.189,0 0.275,-0.034 0.275,-0.138 0,-0.068 -0.068,-0.103 -0.138,-0.103 -0.12,0 -0.223,-0.017 -0.429,-0.051 -0.465,-0.103 -0.603,-0.379 -0.637,-0.981 -0.035,-0.551 -0.035,-1.033 -0.035,-3.718 v -1.842 c 0,-1.859 -0.206,-3.924 -1.583,-5.146 -1.239,-1.102 -2.53,-1.27399 -3.546,-1.27399 -0.585,0 -2.323,0.069 -3.546,1.22199 -0.843,0.809 -1.497,2.014 -1.497,4.527 v 2.513"
         style="fill:#d41041;fill-opacity:1;fill-rule:nonzero;stroke:none;stroke-width:0.0999997"
         id="path1128" /><path
         d="m 283.76584,337.34898 c 0,1.394 -0.086,1.583 -0.775,1.773 -0.137,0.034 -0.43,0.051 -0.585,0.051 -0.069,0 -0.137,0.035 -0.137,0.104 0,0.103 0.086,0.137 0.275,0.137 0.775,0 1.858,-0.051 1.944,-0.051 0.086,0 1.171,0.051 1.688,0.051 0.189,0 0.275,-0.034 0.275,-0.137 0,-0.069 -0.069,-0.104 -0.137,-0.104 -0.121,0 -0.224,-0.017 -0.431,-0.051 -0.465,-0.086 -0.603,-0.379 -0.637,-0.981 -0.034,-0.551 -0.034,-1.067 -0.034,-1.79 v -1.928 c 0,-0.775 -0.018,-0.809 -0.224,-0.929 -1.101,-0.585 -2.651,-0.77499 -3.649,-0.77499 -1.308,0 -3.752,0.17199 -5.663,1.84199 -1.05,0.912 -2.048,2.754 -2.048,4.905 0,2.754 1.343,4.699 2.874,5.663 1.55,0.964 3.254,1.084 4.579,1.084 1.084,0 2.306,-0.223 2.633,-0.293 0.361,-0.086 0.964,-0.154 1.395,-0.172 0.171,-0.017 0.206,-0.086 0.206,-0.154 0,-0.242 -0.121,-0.723 -0.121,-2.445 0,-0.275 -0.034,-0.361 -0.155,-0.361 -0.086,0 -0.102,0.103 -0.12,0.258 -0.017,0.241 -0.103,0.723 -0.361,1.136 -0.431,0.654 -1.824,1.395 -4.045,1.395 -1.084,0 -2.375,-0.104 -3.684,-1.137 -0.998,-0.791 -1.704,-2.358 -1.704,-4.371 0,-2.428 1.223,-4.183 1.825,-4.768 1.36,-1.325 2.926,-1.842 4.509,-1.842 0.62,0 1.515,0.10301 1.963,0.362 0.224,0.12 0.344,0.309 0.344,0.602 v 2.926"
         style="fill:#d41041;fill-opacity:1;fill-rule:nonzero;stroke:none;stroke-width:0.0999997"
         id="path1130" /><path
         d="m 298.97984,337.95198 c 0,-1.653 0,-3.013 0.086,-3.736 0.051,-0.499 0.155,-0.877 0.67,-0.946 0.242,-0.035 0.621,-0.069 0.775,-0.069 0.103,0 0.138,-0.052 0.138,-0.103 0,-0.086 -0.086,-0.138 -0.276,-0.138 -0.946,0 -2.03,0.052 -2.117,0.052 -0.086,0 -1.17,-0.052 -1.687,-0.052 -0.189,0 -0.275,0.034 -0.275,0.138 0,0.051 0.034,0.103 0.138,0.103 0.155,0 0.361,0.034 0.516,0.069 0.345,0.069 0.431,0.447 0.499,0.946 0.086,0.723 0.086,2.083 0.086,3.736 v 1.807 c 0,0.069 -0.051,0.103 -0.103,0.103 h -7.297 c -0.052,0 -0.104,-0.018 -0.104,-0.103 v -1.807 c 0,-1.653 0,-3.013 0.086,-3.736 0.052,-0.499 0.155,-0.877 0.671,-0.946 0.241,-0.035 0.62,-0.069 0.775,-0.069 0.103,0 0.137,-0.052 0.137,-0.103 0,-0.086 -0.086,-0.138 -0.275,-0.138 -0.946,0 -2.03,0.052 -2.116,0.052 -0.087,0 -1.171,-0.052 -1.688,-0.052 -0.189,0 -0.275,0.034 -0.275,0.138 0,0.051 0.035,0.103 0.138,0.103 0.155,0 0.361,0.034 0.516,0.069 0.344,0.069 0.431,0.447 0.499,0.946 0.086,0.723 0.086,2.083 0.086,3.736 v 3.029 c 0,2.685 0,3.167 -0.034,3.718 -0.034,0.585 -0.172,0.86 -0.74,0.981 -0.138,0.034 -0.43,0.051 -0.585,0.051 -0.07,0 -0.138,0.035 -0.138,0.103 0,0.104 0.086,0.138 0.275,0.138 0.775,0 1.859,-0.052 1.946,-0.052 0.086,0 1.17,0.052 1.686,0.052 0.19,0 0.276,-0.034 0.276,-0.138 0,-0.068 -0.07,-0.103 -0.138,-0.103 -0.121,0 -0.224,-0.017 -0.431,-0.051 -0.465,-0.086 -0.602,-0.379 -0.636,-0.981 -0.035,-0.551 -0.035,-1.033 -0.035,-3.718 v -0.362 c 0,-0.086 0.052,-0.103 0.104,-0.103 h 7.297 c 0.052,0 0.103,0.017 0.103,0.103 v 0.362 c 0,2.685 0,3.167 -0.034,3.718 -0.034,0.585 -0.172,0.86 -0.74,0.981 -0.138,0.034 -0.431,0.051 -0.585,0.051 -0.069,0 -0.138,0.035 -0.138,0.103 0,0.104 0.086,0.138 0.276,0.138 0.774,0 1.858,-0.052 1.944,-0.052 0.087,0 1.171,0.052 1.688,0.052 0.189,0 0.275,-0.034 0.275,-0.138 0,-0.068 -0.069,-0.103 -0.138,-0.103 -0.121,0 -0.223,-0.017 -0.43,-0.051 -0.465,-0.086 -0.603,-0.379 -0.637,-0.981 -0.034,-0.551 -0.034,-1.033 -0.034,-3.718 v -3.029"
         style="fill:#d41041;fill-opacity:1;fill-rule:nonzero;stroke:none;stroke-width:0.0999997"
         id="path1132" /><path
         d="m 303.64084,340.98098 c 0,2.685 0,3.167 -0.034,3.718 -0.035,0.585 -0.172,0.86 -0.741,0.981 -0.137,0.034 -0.43,0.051 -0.585,0.051 -0.069,0 -0.137,0.035 -0.137,0.103 0,0.104 0.086,0.138 0.275,0.138 0.775,0 1.808,-0.052 1.944,-0.052 0.379,0 1.377,0.052 2.169,0.052 2.152,0 2.927,-0.722 3.203,-0.981 0.377,-0.361 0.86,-1.136 0.86,-2.048 0,-2.444 -1.79,-4.096 -4.235,-4.096 -0.085,0 -0.275,0 -0.361,0.017 -0.086,0 -0.189,0.034 -0.189,0.12 0,0.138 0.103,0.155 0.465,0.155 1.669,0 2.977,1.222 2.977,2.806 0,0.568 -0.052,1.721 -0.964,2.65 -0.912,0.93 -1.962,0.861 -2.358,0.861 -0.292,0 -0.585,-0.035 -0.74,-0.10401 -0.103,-0.034 -0.137,-0.15399 -0.137,-0.32599 v -7.074 c 0,-1.653 0,-3.013 0.086,-3.736 0.051,-0.49901 0.154,-0.87701 0.671,-0.94601 0.241,-0.035 0.62,-0.069 0.774,-0.069 0.104,0 0.138,-0.052 0.138,-0.103 0,-0.086 -0.086,-0.138 -0.276,-0.138 -0.946,0 -2.031,0.052 -2.117,0.052 -0.052,0 -1.135,-0.052 -1.652,-0.052 -0.19,0 -0.275,0.034 -0.275,0.138 0,0.051 0.034,0.103 0.137,0.103 0.155,0 0.362,0.034 0.517,0.069 0.345,0.069 0.43,0.447 0.499,0.94601 0.086,0.723 0.086,2.083 0.086,3.736 v 3.029"
         style="fill:#d41041;fill-opacity:1;fill-rule:nonzero;stroke:none;stroke-width:0.0999997"
         id="path1134" /><path
         d="m 312.22784,340.98098 c 0,2.685 0,3.167 -0.034,3.718 -0.036,0.585 -0.172,0.86 -0.741,0.981 -0.137,0.034 -0.43,0.051 -0.585,0.051 -0.069,0 -0.137,0.035 -0.137,0.103 0,0.104 0.086,0.138 0.275,0.138 0.774,0 1.824,-0.052 1.979,-0.052 0.155,0 1.188,0.052 1.704,0.052 0.189,0 0.275,-0.034 0.275,-0.138 0,-0.068 -0.068,-0.103 -0.138,-0.103 -0.12,0 -0.223,-0.017 -0.429,-0.051 -0.465,-0.069 -0.603,-0.379 -0.637,-0.981 -0.035,-0.551 -0.035,-1.033 -0.035,-3.718 v -2.41 c 0,-2.478 0.551,-3.546 1.29099,-4.251 0.84401,-0.792 1.61801,-0.94699 2.59901,-0.94699 1.05,0 2.082,0.49999 2.703,1.23899 0.792,0.981 0.99799,2.445 0.99799,4.218 v 2.151 c 0,2.685 0,3.167 -0.035,3.718 -0.035,0.585 -0.171,0.86 -0.74,0.981 -0.138,0.034 -0.43101,0.051 -0.585,0.051 -0.069,0 -0.13701,0.035 -0.13701,0.103 0,0.104 0.085,0.138 0.27501,0.138 0.774,0 1.721,-0.052 1.824,-0.052 0.12,0 0.93,0.052 1.445,0.052 0.19,0 0.276,-0.034 0.276,-0.138 0,-0.068 -0.069,-0.103 -0.138,-0.103 -0.12,0 -0.224,-0.017 -0.43001,-0.051 -0.46399,-0.103 -0.60199,-0.379 -0.636,-0.981 -0.035,-0.551 -0.035,-1.033 -0.035,-3.718 v -1.842 c 0,-1.859 -0.206,-3.924 -1.583,-5.146 -1.24,-1.102 -2.53101,-1.27399 -3.546,-1.27399 -0.585,0 -2.32401,0.069 -3.546,1.22199 -0.843,0.809 -1.497,2.014 -1.497,4.527 v 2.513"
         style="fill:#d41041;fill-opacity:1;fill-rule:nonzero;stroke:none;stroke-width:0.0999997"
         id="path1136" /><path
         d="m 330.58984,337.95198 c 0,-1.653 0,-3.013 0.086,-3.736 0.052,-0.499 0.15501,-0.877 0.672,-0.946 0.24101,-0.035 0.61901,-0.069 0.774,-0.069 0.10401,0 0.138,-0.052 0.138,-0.103 0,-0.086 -0.086,-0.138 -0.27499,-0.138 -0.947,0 -2.03201,0.052 -2.118,0.052 -0.086,0 -1.17,-0.052 -1.686,-0.052 -0.19001,0 -0.276,0.034 -0.276,0.138 0,0.051 0.035,0.103 0.138,0.103 0.154,0 0.361,0.034 0.517,0.069 0.34299,0.069 0.429,0.447 0.49899,0.946 0.086,0.723 0.086,2.083 0.086,3.736 v 7.28 l -2.548,-0.034 c -1.067,-0.018 -1.48001,-0.138 -1.755,-0.55101 -0.19001,-0.29199 -0.24101,-0.41299 -0.293,-0.534 -0.052,-0.13699 -0.10401,-0.17199 -0.172,-0.17199 -0.052,0 -0.086,0.052 -0.086,0.155 0,0.172 0.344,1.65199 0.378,1.78999 0.035,0.10401 0.104,0.327 0.173,0.327 0.12,0 0.292,-0.17199 0.757,-0.20599 0.49899,-0.052 1.15299,-0.087 1.35999,-0.087 h 6.45401 c 0.55099,0 0.94699,0.035 1.222,0.087 0.25899,0.034 0.413,0.086 0.482,0.086 0.086,0 0.086,-0.10299 0.086,-0.207 0,-0.51699 -0.051,-1.704 -0.051,-1.893 0,-0.15499 -0.052,-0.22399 -0.12099,-0.22399 -0.086,0 -0.121,0.052 -0.13701,0.29299 l -0.018,0.189 c -0.052,0.51701 -0.465,0.91301 -2.11699,0.94701 l -2.169,0.034 v -7.28"
         style="fill:#d41041;fill-opacity:1;fill-rule:nonzero;stroke:none;stroke-width:0.0999997"
         id="path1138" /><path
         d="m 205.67884,319.70698 c -1.104,0.99 -1.377,2.28701 -1.377,3.369 0,0.76301 0.262,2.094 1.274,3.108 0.684,0.683 1.72,1.218 3.473,1.218 0.455,0 1.093,-0.034 1.65,-0.13699 0.433,-0.079 0.797,-0.14801 1.161,-0.171 0.125,-0.011 0.148,-0.057 0.148,-0.12501 0,-0.091 -0.034,-0.227 -0.057,-0.63699 -0.022,-0.37601 -0.022,-1.002 -0.034,-1.173 -0.012,-0.171 -0.034,-0.23901 -0.102,-0.23901 -0.08,0 -0.091,0.08 -0.091,0.23901 0,0.444 -0.183,0.91099 -0.479,1.161 -0.398,0.342 -1.274,0.64899 -2.276,0.64899 -1.514,0 -2.22,-0.444 -2.618,-0.831 -0.831,-0.797 -1.025,-1.80999 -1.025,-2.97099 0,-2.17401 1.674,-4.16601 4.11,-4.16601 0.853,0 1.525,0.102 1.98,0.56901 0.239,0.25099 0.387,0.75099 0.421,0.95599 0.023,0.125 0.046,0.171 0.114,0.171 0.057,0 0.08,-0.08 0.08,-0.171 0,-0.079 -0.136,-1.069 -0.251,-1.45699 -0.068,-0.216 -0.09,-0.23901 -0.295,-0.33 -0.456,-0.18201 -1.321,-0.26201 -2.049,-0.26201 -1.707,0 -2.858,0.42101 -3.757,1.23"
         style="fill:#231f20;fill-opacity:1;fill-rule:nonzero;stroke:none;stroke-width:0.0999997"
         id="path1140" /><path
         d="m 218.18284,318.90999 c 1.024,0 3.141,0.59199 3.141,3.90399 0,2.73201 -1.661,4.2 -3.46,4.2 -1.901,0 -3.324,-1.251 -3.324,-3.74499 0,-2.652 1.594,-4.359 3.643,-4.359 z m -0.239,8.49199 c 2.561,0 4.473,-1.617 4.473,-4.269 0,-2.54899 -1.798,-4.656 -4.541,-4.656 -3.119,0 -4.417,2.42501 -4.417,4.47401 0,1.84399 1.343,4.45099 4.485,4.45099"
         style="fill:#231f20;fill-opacity:1;fill-rule:nonzero;stroke:none;stroke-width:0.0999997"
         id="path1142" /><path
         d="m 233.63383,320.10498 c 0.046,-0.41 0.12501,-1.047 0.61401,-1.20699 0.33099,-0.102 0.627,-0.102 0.74,-0.102 0.057,0 0.091,-0.011 0.091,-0.057 0,-0.068 -0.102,-0.102 -0.238,-0.102 -0.251,0 -1.481,0.034 -1.901,0.068 -0.262,0.023 -0.319,0.057 -0.319,0.114 0,0.045 0.023,0.068 0.079,0.079 0.058,0.012 0.069,0.20499 0.046,0.40999 l -0.547,5.874 h -0.034 l -2.78801,-5.919 c -0.23899,-0.501 -0.273,-0.603 -0.37599,-0.603 -0.08,0 -0.137,0.113 -0.352,0.52301 -0.296,0.558 -1.276,2.52699 -1.332,2.64099 -0.103,0.205 -1.378,2.937 -1.503,3.244 h -0.045 l -0.456,-5.281 c -0.011,-0.182 -0.011,-0.38799 -0.011,-0.581 0,-0.171 0.125,-0.319 0.296,-0.35299 0.193,-0.046 0.364,-0.057 0.432,-0.057 0.045,0 0.091,-0.023 0.091,-0.057 0,-0.079 -0.068,-0.102 -0.205,-0.102 -0.421,0 -0.968,0.034 -1.058,0.034 -0.103,0 -0.649,-0.034 -0.956,-0.034 -0.115,0 -0.194,0.023 -0.194,0.102 0,0.034 0.057,0.057 0.113,0.057 0.092,0 0.171,0 0.342,0.034 0.376,0.068 0.41,0.512 0.455,0.945 l 0.821,7.422 c 0.01,0.125 0.056,0.205 0.125,0.205 0.068,0 0.113,-0.046 0.171,-0.171 l 3.48201,-7.16 3.347,7.148 c 0.046,0.103 0.091,0.183 0.171,0.183 0.08,0 0.114,-0.091 0.136,-0.308 l 0.76299,-6.989"
         style="fill:#231f20;fill-opacity:1;fill-rule:nonzero;stroke:none;stroke-width:0.0999997"
         id="path1144" /><path
         d="m 237.22384,323.94099 c 0,1.776 0,2.09499 -0.023,2.45899 -0.023,0.387 -0.114,0.569 -0.49,0.64901 -0.091,0.023 -0.284,0.034 -0.387,0.034 -0.046,0 -0.09,0.023 -0.09,0.068 0,0.068 0.056,0.091 0.181,0.091 0.513,0 1.19501,-0.034 1.286,-0.034 0.25101,0 0.91101,0.034 1.435,0.034 1.42301,0 1.935,-0.47799 2.117,-0.64899 0.25101,-0.23801 0.56901,-0.75101 0.56901,-1.35401 0,-1.61599 -1.18301,-2.709 -2.80001,-2.709 -0.057,0 -0.18199,0 -0.23899,0.011 -0.057,0 -0.12501,0.023 -0.12501,0.08 0,0.091 0.068,0.102 0.307,0.102 1.104,0 1.97,0.808 1.97,1.855 0,0.377 -0.034,1.139 -0.638,1.754 -0.603,0.61399 -1.29799,0.56899 -1.56,0.56899 -0.193,0 -0.38599,-0.023 -0.489,-0.069 -0.068,-0.022 -0.091,-0.102 -0.091,-0.216 v -4.67799 c 0,-1.093 0,-1.992 0.057,-2.47 0.034,-0.33 0.103,-0.581 0.444,-0.626 0.16,-0.023 0.41001,-0.046 0.51201,-0.046 0.068,0 0.091,-0.034 0.091,-0.068 0,-0.057 -0.057,-0.091 -0.182,-0.091 -0.62599,0 -1.344,0.034 -1.39999,0.034 -0.034,0 -0.75101,-0.034 -1.09301,-0.034 -0.12499,0 -0.18199,0.023 -0.18199,0.091 0,0.034 0.023,0.068 0.091,0.068 0.103,0 0.24,0.023 0.34101,0.046 0.22899,0.045 0.285,0.296 0.33099,0.626 0.057,0.478 0.057,1.377 0.057,2.47 v 2.003"
         style="fill:#231f20;fill-opacity:1;fill-rule:nonzero;stroke:none;stroke-width:0.0999997"
         id="path1146" /><path
         d="m 243.96883,323.94099 c 0,1.776 0,2.09499 -0.024,2.45899 -0.022,0.387 -0.11299,0.569 -0.489,0.64901 -0.091,0.023 -0.28399,0.034 -0.387,0.034 -0.045,0 -0.09,0.023 -0.09,0.068 0,0.068 0.056,0.091 0.18101,0.091 0.513,0 1.207,-0.034 1.30999,-0.034 0.102,0 0.78501,0.034 1.12701,0.034 0.125,0 0.18099,-0.023 0.18099,-0.091 0,-0.045 -0.045,-0.068 -0.09,-0.068 -0.08,0 -0.14899,-0.011 -0.28599,-0.034 -0.306,-0.046 -0.39801,-0.25101 -0.42,-0.64901 -0.023,-0.364 -0.023,-0.68299 -0.023,-2.45899 v -1.593 c 0,-1.63901 0.36401,-2.34501 0.854,-2.81201 0.55701,-0.52399 1.07001,-0.62599 1.71801,-0.62599 0.69499,0 1.37799,0.33 1.788,0.81999 0.52299,0.648 0.66,1.61601 0.66,2.788 v 1.42301 c 0,1.776 0,2.09499 -0.023,2.45899 -0.022,0.387 -0.114,0.569 -0.489,0.64901 -0.092,0.023 -0.285,0.034 -0.388,0.034 -0.045,0 -0.091,0.023 -0.091,0.068 0,0.068 0.057,0.091 0.183,0.091 0.512,0 1.138,-0.034 1.206,-0.034 0.08,0 0.615,0.034 0.956,0.034 0.126,0 0.183,-0.023 0.183,-0.091 0,-0.045 -0.046,-0.068 -0.091,-0.068 -0.08,0 -0.148,-0.011 -0.285,-0.034 -0.308,-0.069 -0.399,-0.25101 -0.421,-0.64901 -0.023,-0.364 -0.023,-0.68299 -0.023,-2.45899 v -1.218 c 0,-1.22901 -0.136,-2.595 -1.047,-3.40301 -0.82,-0.729 -1.673,-0.843 -2.345,-0.843 -0.387,0 -1.537,0.046 -2.345,0.809 -0.557,0.535 -0.99,1.33101 -0.99,2.99301 v 1.662"
         style="fill:#231f20;fill-opacity:1;fill-rule:nonzero;stroke:none;stroke-width:0.0999997"
         id="path1148" /><path
         d="m 256.60984,321.93798 c 0,-1.09299 0,-1.992 0.056,-2.46999 0.034,-0.33 0.103,-0.58101 0.444,-0.62601 0.16,-0.023 0.41,-0.046 0.512,-0.046 0.069,0 0.091,-0.034 0.091,-0.068 0,-0.057 -0.057,-0.091 -0.182,-0.091 -0.626,0 -1.343,0.034 -1.4,0.034 -0.057,0 -0.774,-0.034 -1.115,-0.034 -0.125,0 -0.183,0.023 -0.183,0.091 0,0.034 0.024,0.068 0.091,0.068 0.103,0 0.239,0.023 0.342,0.046 0.227,0.045 0.285,0.29601 0.33,0.62601 0.056,0.47799 0.056,1.377 0.056,2.46999 v 4.815 l -1.684,-0.023 c -0.705,-0.011 -0.979,-0.091 -1.161,-0.364 -0.125,-0.194 -0.159,-0.273 -0.194,-0.353 -0.034,-0.091 -0.068,-0.114 -0.113,-0.114 -0.034,0 -0.057,0.034 -0.057,0.103 0,0.113 0.228,1.092 0.251,1.184 0.022,0.068 0.068,0.216 0.113,0.216 0.08,0 0.194,-0.114 0.501,-0.137 0.33,-0.034 0.762,-0.057 0.899,-0.057 h 4.269 c 0.364,0 0.626,0.023 0.808,0.057 0.171,0.023 0.274,0.057 0.319,0.057 0.056,0 0.056,-0.068 0.056,-0.136 0,-0.342 -0.034,-1.127 -0.034,-1.253 0,-0.102 -0.033,-0.148 -0.079,-0.148 -0.057,0 -0.08,0.034 -0.091,0.194 l -0.011,0.125 c -0.035,0.341 -0.30801,0.603 -1.401,0.626 l -1.43301,0.023 v -4.815"
         style="fill:#231f20;fill-opacity:1;fill-rule:nonzero;stroke:none;stroke-width:0.0999997"
         id="path1150" /><path
         d="m 263.11483,321.93798 c 0,-1.09299 0,-1.992 0.057,-2.46999 0.034,-0.33 0.10301,-0.58101 0.444,-0.62601 0.16001,-0.023 0.41001,-0.046 0.51201,-0.046 0.068,0 0.092,-0.034 0.092,-0.068 0,-0.057 -0.058,-0.091 -0.183,-0.091 -0.626,0 -1.343,0.034 -1.4,0.034 -0.057,0 -0.774,-0.034 -1.11501,-0.034 -0.12499,0 -0.18199,0.023 -0.18199,0.091 0,0.034 0.022,0.068 0.091,0.068 0.102,0 0.239,0.023 0.341,0.046 0.228,0.045 0.285,0.29601 0.331,0.62601 0.056,0.47799 0.056,1.377 0.056,2.46999 v 2.00301 c 0,1.776 0,2.09499 -0.022,2.45899 -0.024,0.387 -0.137,0.58001 -0.388,0.63701 -0.125,0.035 -0.273,0.046 -0.352,0.046 -0.046,0 -0.091,0.023 -0.091,0.068 0,0.068 0.056,0.091 0.181,0.091 0.376,0 1.093,-0.034 1.15,-0.034 0.057,0 0.774,0.034 1.116,0.034 0.125,0 0.182,-0.023 0.182,-0.091 0,-0.045 -0.045,-0.068 -0.091,-0.068 -0.08,0 -0.149,-0.011 -0.284,-0.034 -0.308,-0.057 -0.399,-0.25101 -0.422,-0.64901 -0.023,-0.364 -0.023,-0.68299 -0.023,-2.45899 v -2.00301"
         style="fill:#231f20;fill-opacity:1;fill-rule:nonzero;stroke:none;stroke-width:0.0999997"
         id="path1152" /><path
         d="m 267.58483,320.18499 c 0.023,-0.933 0.13601,-1.23 0.44301,-1.32101 0.21699,-0.057 0.467,-0.068 0.57,-0.068 0.056,0 0.091,-0.023 0.091,-0.068 0,-0.068 -0.069,-0.091 -0.20499,-0.091 -0.649,0 -1.104,0.034 -1.207,0.034 -0.102,0 -0.581,-0.034 -1.092,-0.034 -0.11501,0 -0.183,0.011 -0.183,0.091 0,0.045 0.034,0.068 0.092,0.068 0.091,0 0.29601,0.011 0.46601,0.068 0.285,0.08 0.342,0.41 0.342,1.446 l 0.011,6.522 c 0,0.444 0.034,0.57 0.12501,0.57 0.091,0 0.284,-0.25099 0.399,-0.36499 0.171,-0.19301 1.86699,-2.02601 3.62,-3.90401 1.12699,-1.207 2.367,-2.596 2.731,-2.971 l -0.12501,5.78301 c -0.011,0.73999 -0.091,0.99 -0.444,1.08099 -0.204,0.046 -0.46699,0.057 -0.558,0.057 -0.079,0 -0.091,0.034 -0.091,0.079 0,0.069 0.091,0.08 0.228,0.08 0.513,0 1.059,-0.034 1.184,-0.034 0.126,0 0.501,0.034 0.967,0.034 0.125,0 0.20499,-0.011 0.20499,-0.08 0,-0.045 -0.045,-0.079 -0.12499,-0.079 -0.057,0 -0.13601,0 -0.273,-0.034 -0.37601,-0.08 -0.42101,-0.33 -0.42101,-1.013 l -0.023,-6.67103 c 0,-0.751 -0.023,-0.808 -0.10301,-0.808 -0.091,0 -0.22699,0.12501 -0.82999,0.729 -0.126,0.11301 -1.76501,1.78701 -2.972,3.085 -1.32,1.422 -2.60601,2.856 -2.97,3.266 l 0.14799,-5.45199"
         style="fill:#231f20;fill-opacity:1;fill-rule:nonzero;stroke:none;stroke-width:0.0999997"
         id="path1154" /><path
         d="m 283.41184,321.53898 c 0,0.922 -0.057,1.047 -0.512,1.173 -0.091,0.023 -0.285,0.034 -0.387,0.034 -0.046,0 -0.092,0.023 -0.092,0.068 0,0.069 0.058,0.091 0.183,0.091 0.511,0 1.229,-0.034 1.286,-0.034 0.056,0 0.774,0.034 1.115,0.034 0.126,0 0.183,-0.022 0.183,-0.091 0,-0.045 -0.046,-0.068 -0.091,-0.068 -0.08,0 -0.149,-0.011 -0.285,-0.034 -0.307,-0.057 -0.399,-0.251 -0.421,-0.64899 -0.023,-0.36401 -0.023,-0.70601 -0.023,-1.18401 v -1.274 c 0,-0.513 -0.011,-0.53599 -0.148,-0.615 -0.729,-0.388 -1.753,-0.513 -2.413,-0.513 -0.865,0 -2.482,0.114 -3.745,1.218 -0.695,0.60401 -1.355,1.821 -1.355,3.24401 0,1.82199 0.888,3.108 1.902,3.74599 1.024,0.63701 2.151,0.717 3.027,0.717 0.718,0 1.525,-0.148 1.742,-0.19399 0.238,-0.057 0.637,-0.102 0.922,-0.114 0.113,-0.011 0.137,-0.057 0.137,-0.102 0,-0.16001 -0.08,-0.47801 -0.08,-1.617 0,-0.18201 -0.023,-0.23901 -0.103,-0.23901 -0.057,0 -0.068,0.069 -0.08,0.171 -0.011,0.16 -0.067,0.478 -0.238,0.75201 -0.285,0.432 -1.207,0.921 -2.676,0.921 -0.717,0 -1.57,-0.068 -2.436,-0.75101 -0.66,-0.52399 -1.127,-1.55899 -1.127,-2.89099 0,-1.605 0.809,-2.766 1.207,-3.153 0.899,-0.87701 1.935,-1.218 2.983,-1.218 0.409,0 1.001,0.068 1.297,0.23899 0.148,0.08 0.228,0.20501 0.228,0.399 v 1.934"
         style="fill:#231f20;fill-opacity:1;fill-rule:nonzero;stroke:none;stroke-width:0.0999997"
         id="path1156" /><path
         d="m 154.18584,349.52498 h 180.119"
         style="fill:none;stroke:#231f20;stroke-width:0.459;stroke-linecap:round;stroke-linejoin:round;stroke-miterlimit:4;stroke-dasharray:none;stroke-opacity:1"
         id="path1158" /><path
         d="m 154.18584,330.02098 h 180.119"
         style="fill:none;stroke:#231f20;stroke-width:0.459;stroke-linecap:round;stroke-linejoin:round;stroke-miterlimit:4;stroke-dasharray:none;stroke-opacity:1"
         id="path1160" /><path
         d="m 242.22484,392.20698 h -16.318 v 16.663 h -9.652 v -41.921 h 9.652 v 16.664 h 16.318 v -16.664 h 9.651 v 33.071 h -9.651 v -7.813"
         style="fill:#231f20;fill-opacity:1;fill-rule:nonzero;stroke:none;stroke-width:0.0999997"
         id="path1162" /><path
         d="m 242.22384,408.86898 v -8.847 h 14.605 v -33.072 h 10.131 v 33.044 h 11.289 v 8.875"
         style="fill:#d41041;fill-opacity:1;fill-rule:nonzero;stroke:none;stroke-width:0.0999997"
         id="path1164" /></g></g></svg>
