<?xml version="1.0" encoding="UTF-8" standalone="no"?>
<svg
   xmlns:dc="http://purl.org/dc/elements/1.1/"
   xmlns:cc="http://creativecommons.org/ns#"
   xmlns:rdf="http://www.w3.org/1999/02/22-rdf-syntax-ns#"
   xmlns:svg="http://www.w3.org/2000/svg"
   xmlns="http://www.w3.org/2000/svg"
   xmlns:sodipodi="http://sodipodi.sourceforge.net/DTD/sodipodi-0.dtd"
   xmlns:inkscape="http://www.inkscape.org/namespaces/inkscape"
   version="1.1"
   id="svg148"
   xml:space="preserve"
   width="250"
   height="150"
   viewBox="0 0 249.99999 149.99999"
   sodipodi:docname="CHTCandOSG.svg"
   inkscape:version="1.0.2 (e86c8708, 2021-01-15)"><metadata
     id="metadata154"><rdf:RDF><cc:Work
         rdf:about=""><dc:format>image/svg+xml</dc:format><dc:type
           rdf:resource="http://purl.org/dc/dcmitype/StillImage" /><dc:title></dc:title></cc:Work></rdf:RDF></metadata><defs
     id="defs152" /><sodipodi:namedview
     pagecolor="#ffffff"
     bordercolor="#666666"
     borderopacity="1"
     objecttolerance="10"
     gridtolerance="10"
     guidetolerance="10"
     inkscape:pageopacity="0"
     inkscape:pageshadow="2"
     inkscape:window-width="1440"
     inkscape:window-height="900"
     id="namedview150"
     showgrid="false"
     inkscape:zoom="0.69602273"
     inkscape:cx="41.126538"
     inkscape:cy="120.60485"
     inkscape:window-x="0"
     inkscape:window-y="0"
     inkscape:window-maximized="0"
     inkscape:current-layer="g156"
     inkscape:document-rotation="0" /><g
     id="g156"
     inkscape:groupmode="layer"
     inkscape:label="ink_ext_XXXXXX"
     transform="matrix(1.3333333,0,0,-1.3333333,-284.97958,605.50282)"><g
       id="g1551"
       transform="translate(4.3124714e-8,90.514288)"><g
         id="g592"
         transform="matrix(0.24036005,0,0,-0.24036005,213.73469,362.54542)">
	<path
   fill="#f08231"
   d="m 95.952,328.711 c 17.018,0 27.027,12.708 27.027,29.03 0,15.861 -10.009,28.569 -27.027,28.569 -17.016,0 -27.025,-12.708 -27.025,-28.569 0,-16.322 10.009,-29.03 27.025,-29.03 z m 0,47.433 c 10.858,0 14.94,-9.238 14.94,-18.402 0,-9.625 -4.082,-18.863 -14.94,-18.863 -10.854,0 -14.937,9.238 -14.937,18.863 0,9.163 4.082,18.402 14.937,18.402 z"
   id="path562" />
	<path
   fill="#f08231"
   d="m 128.138,345.189 h 10.397 v 5.081 h 0.152 c 2.62,-4.232 6.931,-6.155 11.859,-6.155 12.474,0 18.097,10.087 18.097,21.403 0,10.625 -5.852,20.561 -17.482,20.561 -4.771,0 -9.316,-2.077 -11.934,-6.01 h -0.154 v 18.943 h -10.936 v -53.823 z m 29.567,20.024 c 0,-6.316 -2.54,-12.858 -9.545,-12.858 -7.163,0 -9.473,6.387 -9.473,12.858 0,6.467 2.466,12.628 9.551,12.628 7.158,0 9.467,-6.161 9.467,-12.628 z"
   id="path564" />
	<path
   fill="#f08231"
   d="m 183.811,367.753 c 0.307,6.93 3.695,10.088 9.777,10.088 4.391,0 7.931,-2.697 8.624,-5.162 h 9.625 c -3.077,9.395 -9.625,13.4 -18.632,13.4 -12.554,0 -20.331,-8.625 -20.331,-20.947 0,-11.934 8.24,-21.017 20.331,-21.017 13.552,0 20.096,11.392 19.324,23.638 z m 17.785,-6.928 c -1.001,-5.549 -3.386,-8.471 -8.701,-8.471 -6.93,0 -8.933,5.387 -9.084,8.471 z"
   id="path566" />
	<path
   fill="#f08231"
   d="m 217.073,345.189 h 10.395 v 5.543 h 0.231 c 2.771,-4.464 7.544,-6.617 12.165,-6.617 11.626,0 14.553,6.542 14.553,16.397 V 385 h -10.936 v -22.483 c 0,-6.547 -1.922,-9.781 -7.007,-9.781 -5.926,0 -8.47,3.314 -8.47,11.398 V 385 h -10.932 v -39.811 z"
   id="path568" />
	<path
   fill="#f08231"
   d="m 288.144,366.749 c 0,7.315 5.698,10.168 12.165,10.168 4.236,0 10.703,-1.236 10.703,-6.854 0,-5.93 -8.24,-6.93 -16.323,-9.088 -8.163,-2.154 -16.401,-5.312 -16.401,-15.631 0,-11.241 10.626,-16.634 20.557,-16.634 11.473,0 22.021,5.006 22.021,17.714 h -11.702 c -0.385,-6.623 -5.082,-8.32 -10.858,-8.32 -3.849,0 -8.314,1.617 -8.314,6.242 0,4.232 2.618,4.77 16.401,8.314 4.004,0.998 16.321,3.539 16.321,16.016 0,10.088 -7.929,17.634 -22.868,17.634 -12.165,0 -23.562,-6.005 -23.406,-19.562 h 11.704 z"
   id="path570" />
	<path
   fill="#f08231"
   d="m 355.441,359.202 c -0.694,-4.463 -3.543,-6.848 -8.086,-6.848 -7.007,0 -9.316,7.079 -9.316,12.934 0,5.699 2.231,12.553 9.084,12.553 5.082,0 8.009,-3.234 8.701,-8.09 h 10.549 c -1.387,10.555 -8.701,16.328 -19.172,16.328 -12.011,0 -20.098,-8.47 -20.098,-20.404 0,-12.396 7.392,-21.56 20.329,-21.56 9.394,0 18.017,4.925 18.709,15.087 z"
   id="path572" />
	<path
   fill="#f08231"
   d="m 383.389,339.028 h -10.932 v -9.007 h 10.932 z m -10.932,6.161 h 10.932 V 385 h -10.932 z"
   id="path574" />
	<path
   fill="#f08231"
   d="m 399.097,367.753 c 0.308,6.93 3.697,10.088 9.777,10.088 4.39,0 7.933,-2.697 8.627,-5.162 h 9.625 c -3.077,9.395 -9.625,13.4 -18.632,13.4 -12.554,0 -20.331,-8.625 -20.331,-20.947 0,-11.934 8.24,-21.017 20.331,-21.017 13.55,0 20.093,11.392 19.324,23.638 z m 17.786,-6.928 c -0.998,-5.549 -3.385,-8.471 -8.701,-8.471 -6.93,0 -8.93,5.387 -9.085,8.471 z"
   id="path576" />
	<path
   fill="#f08231"
   d="m 432.361,345.189 h 10.394 v 5.543 h 0.231 c 2.771,-4.464 7.546,-6.617 12.165,-6.617 11.628,0 14.557,6.542 14.557,16.397 V 385 h -10.936 v -22.483 c 0,-6.547 -1.924,-9.781 -7.009,-9.781 -5.93,0 -8.472,3.314 -8.472,11.398 V 385 H 432.36 v -39.811 z"
   id="path578" />
	<path
   fill="#f08231"
   d="m 503.202,359.202 c -0.692,-4.463 -3.545,-6.848 -8.09,-6.848 -7.004,0 -9.312,7.079 -9.312,12.934 0,5.699 2.229,12.553 9.081,12.553 5.082,0 8.009,-3.234 8.703,-8.09 h 10.547 c -1.385,10.555 -8.699,16.328 -19.169,16.328 -12.015,0 -20.098,-8.47 -20.098,-20.404 0,-12.396 7.391,-21.56 20.329,-21.56 9.394,0 18.016,4.925 18.708,15.087 z"
   id="path580" />
	<path
   fill="#f08231"
   d="m 527.377,367.753 c 0.306,6.93 3.695,10.088 9.78,10.088 4.388,0 7.928,-2.697 8.622,-5.162 h 9.625 c -3.079,9.395 -9.625,13.4 -18.634,13.4 -12.552,0 -20.329,-8.625 -20.329,-20.947 0,-11.934 8.24,-21.017 20.329,-21.017 13.552,0 20.1,11.392 19.326,23.638 z m 17.789,-6.928 c -1.005,-5.549 -3.39,-8.471 -8.701,-8.471 -6.935,0 -8.933,5.387 -9.088,8.471 z"
   id="path582" />
	<path
   fill="#f08231"
   d="m 621.006,378.765 c -4.232,5.467 -9.775,7.546 -15.087,7.546 -17.022,0 -27.027,-12.708 -27.027,-28.569 0,-16.322 10.005,-29.03 27.027,-29.03 11.241,0 21.864,6.935 23.177,19.405 h -11.554 c -1.387,-6.08 -5.93,-9.238 -11.623,-9.238 -10.861,0 -14.943,9.238 -14.943,18.863 0,9.164 4.082,18.402 14.943,18.402 7.852,0 12.396,-4.232 13.089,-11.854 h -12.165 v -9.013 h 23.096 V 385 h -7.698 z"
   id="path584" />
	<path
   fill="#f08231"
   d="m 636.635,345.189 h 10.398 v 7.396 h 0.152 c 2.003,-5.006 7.396,-8.47 12.707,-8.47 0.769,0 1.692,0.15 2.385,0.382 v 10.167 c -0.998,-0.231 -2.616,-0.387 -3.927,-0.387 -8.009,0 -10.778,5.774 -10.778,12.783 V 385 h -10.938 v -39.811 z"
   id="path586" />
	<path
   fill="#f08231"
   d="m 675.908,339.028 h -10.934 v -9.007 h 10.934 z m -10.933,6.161 h 10.934 V 385 h -10.934 z"
   id="path588" />
	<path
   fill="#f08231"
   d="m 712.561,379.919 h -0.155 c -2.54,4.312 -7.009,6.16 -12.091,6.16 -12.008,0 -17.863,-10.317 -17.863,-21.328 0,-10.705 5.93,-20.636 17.634,-20.636 4.698,0 9.319,1.998 11.859,5.925 h -0.076 0.15 v -20.019 h 10.936 V 385 h -10.394 z m -9.549,-27.565 c -7.159,0 -9.625,6.155 -9.625,12.703 0,6.235 2.846,12.783 9.625,12.783 7.235,0 9.394,-6.316 9.394,-12.859 -10e-4,-6.471 -2.309,-12.627 -9.394,-12.627 z"
   id="path590" />
</g><path
         fill="#f08231"
         d="m 309.17402,327.37233 -55.57677,-18.10127 55.57677,-18.10224 55.57509,18.10224 z m -46.38179,-17.47634 46.38179,15.10663 46.37964,-15.10663 -46.37964,-15.10735 z"
         id="path594"
         style="stroke-width:0.24036" /><path
         fill="#f1a42b"
         d="m 309.17402,337.02615 -55.57677,-18.10199 55.57677,-18.10248 55.57509,18.10248 z m -46.38179,-17.4761 46.38179,15.10591 46.37964,-15.10591 -46.37964,-15.10735 z"
         id="path596"
         style="stroke-width:0.24036" /><path
         fill="#fdcb26"
         d="m 309.17402,346.67901 -55.57677,-18.10103 55.57677,-18.102 55.57509,18.102 z m -46.38179,-17.47682 46.38179,15.10663 46.37964,-15.10663 -46.37964,-15.10398 z"
         id="path598"
         style="stroke-width:0.24036" /></g></g></svg>
